<svg width="128" height="128" viewBox="0 0 128 128" fill="none" xmlns="http://www.w3.org/2000/svg">
<path fill-rule="evenodd" clip-rule="evenodd" d="M115.344 72.4205H117.339C117.55 72.4205 117.721 72.2495 117.721 72.0387V66.9041H121.131C124.908 66.9041 128 64.8937 128 61.0448C128 57.5392 125.473 55.2591 121.474 55.2591H115.344C114.99 55.2591 114.703 55.5458 114.703 55.8993V71.7801C114.703 72.1339 114.99 72.4205 115.344 72.4205ZM56.709 69.855L56.7091 69.8651C56.7091 69.9902 56.6489 70.1013 56.5557 70.1709C54.8707 71.5608 52.4968 72.7146 49.5453 72.7146C44.1729 72.7146 40.6401 68.8899 40.6401 63.8397C40.6401 59.0344 44.3201 54.9647 49.4964 54.9647C52.1844 54.9647 53.9424 55.637 55.5526 56.8578L55.5533 56.8583L55.5559 56.8602C55.7177 56.9767 55.8231 57.1662 55.8231 57.3807C55.8231 57.5431 55.7626 57.6916 55.6627 57.8044L55.6677 57.8039L54.4356 59.272C54.3657 59.3619 54.2565 59.4198 54.1337 59.4198C54.0451 59.4198 53.9633 59.3895 53.8984 59.3387L53.898 59.3384L53.8908 59.3327C52.6622 58.3458 51.3972 57.735 49.3736 57.735C46.2089 57.735 43.8048 60.5055 43.8048 63.8397C43.8048 67.3702 46.1352 69.9688 49.6436 69.9688C51.2627 69.9688 52.7347 69.454 53.7898 68.6693V65.4578H49.7801C49.5691 65.4578 49.3981 65.2868 49.3981 65.076L49.3983 65.0661V63.2268L49.3981 63.2163C49.3981 63.0054 49.5691 62.8345 49.7801 62.8345H56.3271C56.5382 62.8348 56.7091 63.0056 56.7091 63.2164L56.709 63.2262V69.855ZM60.4584 72.4205H62.4534C62.6644 72.4205 62.8354 72.2495 62.8354 72.0387L62.8353 72.0289V66.4383H66.5641L70.6486 72.1622L70.6493 72.1613C70.766 72.3186 70.9532 72.4205 71.1642 72.4205H73.649C73.86 72.4205 74.0309 72.2495 74.0309 72.0387C74.0309 71.9495 74.0003 71.8674 73.9488 71.8022L69.7534 65.9235C72.1576 65.2372 73.8505 63.5455 73.8505 60.7264C73.8505 57.4163 71.4953 55.2591 67.4719 55.2591H60.4669L60.4584 55.2588C60.1046 55.2588 59.8177 55.5457 59.8177 55.8992V71.7801C59.8177 72.1339 60.1046 72.4205 60.4584 72.4205ZM62.8353 63.766V58.3865C62.8353 58.1756 63.0063 58.0048 63.2174 58.0048H67.2265C69.4589 58.0048 70.7838 59.01 70.7838 60.8485C70.7838 62.6384 69.41 63.766 67.2511 63.766H62.8353ZM84.9553 72.7146C90.23 72.7146 93.9589 68.6693 93.9589 63.8397C93.9589 58.961 90.279 54.9647 85.0044 54.9647C79.7298 54.9647 76.0009 59.01 76.0009 63.8397C76.0009 68.7184 79.6808 72.7146 84.9553 72.7146ZM85.0044 69.9445C81.5943 69.9445 79.1657 67.1738 79.1657 63.8397C79.1657 60.4564 81.5452 57.735 84.9553 57.735C88.3653 57.735 90.7942 60.5055 90.7942 63.8397C90.7942 67.223 88.4144 69.9445 85.0044 69.9445ZM103.839 72.6902C108.328 72.6902 111.223 70.1161 111.223 64.992V55.8993C111.223 55.5458 110.936 55.2591 110.582 55.2591H108.587C108.376 55.2591 108.205 55.4299 108.205 55.6407L108.205 55.6506V65.1392C108.205 68.3015 106.562 69.9198 103.888 69.9198C101.189 69.9198 99.5454 68.2036 99.5454 65.0165V55.6407C99.5454 55.4299 99.3746 55.2591 99.1636 55.2591H97.1686C96.8146 55.2591 96.5278 55.5458 96.5278 55.8993V65.1392C96.5278 70.1161 99.3737 72.6902 103.839 72.6902ZM117.721 64.183V58.3865C117.721 58.1756 117.891 58.0048 118.102 58.0048H121.229C123.485 58.0048 124.933 59.0589 124.933 61.0696C124.933 62.908 123.511 64.183 121.229 64.183H117.721Z" fill="#15599D"/>
<path fill-rule="evenodd" clip-rule="evenodd" d="M25.2339 77.25C30.7348 75.2929 35.0327 70.8223 35.0327 63.8392C35.0327 56.8565 30.7348 52.3857 25.2336 50.4288C23.0798 49.6624 20.7404 49.2793 18.3993 49.2793C16.0582 49.2793 13.7188 49.6624 11.5649 50.4288C6.06397 52.3857 1.76603 56.8565 1.76603 63.8392C1.76603 70.8223 6.06398 75.2929 11.5651 77.25C13.7189 78.0164 16.0583 78.3997 18.3995 78.3997C20.7405 78.3997 23.08 78.0164 25.2339 77.25ZM36.799 63.8397C36.799 85.3864 0 85.3864 0 63.8397C0 42.293 36.799 42.293 36.799 63.8397ZM35.8368 63.8392C35.8368 71.22 31.3034 75.9421 25.5007 78.0067C23.2591 78.8043 20.8281 79.2031 18.3995 79.2031C15.9707 79.2031 13.5397 78.8043 11.2981 78.0067C5.49536 75.9421 0.962038 71.22 0.962038 63.8392C0.962038 56.459 5.49536 51.7367 11.298 49.6723C13.5396 48.8745 15.9706 48.4758 18.3993 48.4758C20.828 48.4758 23.259 48.8745 25.5006 49.6723C31.3034 51.7367 35.8368 56.459 35.8368 63.8392Z" fill="url(#paint0_linear_249_2965)"/>
<path fill-rule="evenodd" clip-rule="evenodd" d="M35.8368 63.8392C35.8368 71.22 31.3034 75.9421 25.5007 78.0067C23.2591 78.8043 20.8281 79.2031 18.3995 79.2031C15.9707 79.2031 13.5397 78.8043 11.2981 78.0067C5.49536 75.9421 0.962038 71.22 0.962038 63.8392C0.962038 56.459 5.49536 51.7367 11.298 49.6723C13.5396 48.8745 15.9706 48.4758 18.3993 48.4758C20.828 48.4758 23.259 48.8745 25.5006 49.6723C31.3034 51.7367 35.8368 56.459 35.8368 63.8392ZM25.2339 77.25C30.7348 75.2929 35.0327 70.8223 35.0327 63.8392C35.0327 56.8565 30.7348 52.3857 25.2336 50.4288C23.0798 49.6624 20.7404 49.2793 18.3993 49.2793C16.0582 49.2793 13.7188 49.6624 11.5649 50.4288C6.06397 52.3857 1.76603 56.8565 1.76603 63.8392C1.76603 70.8223 6.06398 75.2929 11.5651 77.25C13.7189 78.0164 16.0583 78.3997 18.3995 78.3997C20.7405 78.3997 23.08 78.0164 25.2339 77.25Z" fill="#FEFEFE"/>
<path fill-rule="evenodd" clip-rule="evenodd" d="M8.92132 72.509H16.0104C19.9295 72.509 22.5087 70.9241 22.5087 67.7533C22.5087 65.3748 21.2682 64.211 19.2596 63.4429C20.4995 62.7492 21.5418 61.6598 21.5418 59.7024C21.5418 56.4506 18.707 55.1693 15.812 55.1693H8.92132C8.56968 55.1693 8.2847 55.4542 8.2847 55.8057V71.8726C8.2847 72.2242 8.56968 72.509 8.92132 72.509ZM12.0058 62.1798V58.8952C12.0059 58.6844 12.1767 58.5135 12.3877 58.5135H15.2415C16.8534 58.5135 17.7466 59.1573 17.7466 60.2973C17.7466 61.6347 16.6797 62.1798 14.9936 62.1798H12.0058ZM12.0058 68.783V65.3503H15.8863C17.8454 65.3503 18.7135 66.069 18.7135 67.2327C18.7135 68.5706 17.6965 69.1649 16.0104 69.1649H12.3877C12.1767 69.1649 12.0058 68.9939 12.0058 68.783ZM25.0762 72.509H27.8776C28.2292 72.509 28.5141 72.2243 28.5141 71.8727V55.8057C28.5139 55.4542 28.2292 55.1693 27.8776 55.1693H25.0762C24.8653 55.1693 24.6945 55.3401 24.6944 55.5511V72.1273C24.6944 72.3382 24.8653 72.509 25.0762 72.509Z" fill="white"/>
<defs>
<linearGradient id="paint0_linear_249_2965" x1="78.9068" y1="68.4325" x2="69.3827" y2="32.8822" gradientUnits="userSpaceOnUse">
<stop stop-color="#074C89"/>
<stop offset="1" stop-color="#2F83C5"/>
</linearGradient>
</defs>
</svg>
