<svg width="54" height="54" viewBox="0 0 54 54" fill="none" xmlns="http://www.w3.org/2000/svg">
<path d="M19.0702 34.4287C18.564 33.7537 18.0577 32.5725 17.0452 31.0537C16.539 30.21 15.0202 28.5225 14.514 27.8475C14.1765 27.1725 14.1765 26.835 14.3452 26.16C14.514 25.1475 15.5265 24.3037 16.7077 24.3037C17.5515 24.3037 18.3952 24.9787 19.0702 25.485C19.4077 25.8225 19.914 26.4975 20.2515 26.835C20.589 27.1725 20.589 27.3412 20.9265 27.6787C21.264 28.185 21.4327 28.5225 21.264 27.8475C21.0952 27.0037 20.9265 25.6537 20.589 24.3037C20.4202 23.2912 20.2515 23.1225 20.0827 22.4475C19.914 21.6037 19.7452 21.0975 19.5765 20.2537C19.4077 19.7475 19.239 18.3975 19.0702 17.7225C18.9015 16.8787 18.9015 15.36 19.5765 14.685C20.0827 14.1787 21.0952 14.01 21.7702 14.3475C22.614 14.8537 23.1202 16.035 23.289 16.5412C23.6265 17.385 23.964 18.5662 24.1327 19.9162C24.4702 21.6037 24.9765 24.135 24.9765 24.6412C24.9765 23.9662 24.8077 22.785 24.9765 22.11C25.1452 21.6037 25.4827 20.9287 26.1577 20.76C26.664 20.5912 27.1702 20.5912 27.6765 20.5912C28.1827 20.76 28.689 21.0975 29.0265 21.435C29.7015 22.4475 29.7015 24.6412 29.7015 24.4725C29.8702 23.7975 29.8702 22.4475 30.2077 21.7725C30.3765 21.435 31.0515 21.0975 31.389 20.9287C31.8952 20.76 32.5702 20.76 33.0765 20.9287C33.414 20.9287 34.089 21.435 34.2577 21.7725C34.5952 22.2787 34.764 23.9662 34.9327 24.6412C34.9327 24.81 35.1015 23.9662 35.439 23.46C36.114 22.4475 38.4765 22.11 38.6452 24.4725C38.6452 25.6537 38.6452 25.485 38.6452 26.3287C38.6452 27.1725 38.6452 27.6787 38.6452 28.3537C38.6452 29.0287 38.4765 30.5475 38.3077 31.2225C38.139 31.7287 37.6327 32.91 37.1265 33.585C37.1265 33.585 35.2702 35.61 35.1015 36.6225C34.9327 37.635 34.9327 37.635 34.9327 38.31C34.9327 38.985 35.1015 39.8287 35.1015 39.8287C35.1015 39.8287 33.7515 39.9975 33.0765 39.8287C32.4015 39.66 31.5577 38.4787 31.389 37.9725C31.0515 37.4662 30.5452 37.4662 30.2077 37.9725C29.8702 38.6475 29.0265 39.8287 28.3515 39.8287C27.1702 39.9975 24.8077 39.8287 23.1202 39.8287C23.1202 39.8287 23.4577 38.1412 22.7827 37.4662C22.2765 36.96 21.4327 36.1162 20.9265 35.61L19.0702 34.4287Z" fill="white"/>
<path d="M19.0702 34.4287C18.564 33.7537 18.0577 32.5725 17.0452 31.0537C16.539 30.21 15.0202 28.5225 14.514 27.8475C14.1765 27.1725 14.1765 26.835 14.3452 26.16C14.514 25.1475 15.5265 24.3037 16.7077 24.3037C17.5515 24.3037 18.3952 24.9787 19.0702 25.485C19.4077 25.8225 19.914 26.4975 20.2515 26.835C20.589 27.1725 20.589 27.3412 20.9265 27.6787C21.264 28.185 21.4327 28.5225 21.264 27.8475C21.0952 27.0037 20.9265 25.6537 20.589 24.3037C20.4202 23.2912 20.2515 23.1225 20.0827 22.4475C19.914 21.6037 19.7452 21.0975 19.5765 20.2537C19.4077 19.7475 19.239 18.3975 19.0702 17.7225C18.9015 16.8787 18.9015 15.36 19.5765 14.685C20.0827 14.1787 21.0952 14.01 21.7702 14.3475C22.614 14.8537 23.1202 16.035 23.289 16.5412C23.6265 17.385 23.964 18.5662 24.1327 19.9162C24.4702 21.6037 24.9765 24.135 24.9765 24.6412C24.9765 23.9662 24.8077 22.785 24.9765 22.11C25.1452 21.6037 25.4827 20.9287 26.1577 20.76C26.664 20.5912 27.1702 20.5912 27.6765 20.5912C28.1827 20.76 28.689 21.0975 29.0265 21.435C29.7015 22.4475 29.7015 24.6412 29.7015 24.4725C29.8702 23.7975 29.8702 22.4475 30.2077 21.7725C30.3765 21.435 31.0515 21.0975 31.389 20.9287C31.8952 20.76 32.5702 20.76 33.0765 20.9287C33.414 20.9287 34.089 21.435 34.2577 21.7725C34.5952 22.2787 34.764 23.9662 34.9327 24.6412C34.9327 24.81 35.1015 23.9662 35.439 23.46C36.114 22.4475 38.4765 22.11 38.6452 24.4725C38.6452 25.6537 38.6452 25.485 38.6452 26.3287C38.6452 27.1725 38.6452 27.6787 38.6452 28.3537C38.6452 29.0287 38.4765 30.5475 38.3077 31.2225C38.139 31.7287 37.6327 32.91 37.1265 33.585C37.1265 33.585 35.2702 35.61 35.1015 36.6225C34.9327 37.635 34.9327 37.635 34.9327 38.31C34.9327 38.985 35.1015 39.8287 35.1015 39.8287C35.1015 39.8287 33.7515 39.9975 33.0765 39.8287C32.4015 39.66 31.5577 38.4787 31.389 37.9725C31.0515 37.4662 30.5452 37.4662 30.2077 37.9725C29.8702 38.6475 29.0265 39.8287 28.3515 39.8287C27.1702 39.9975 24.8077 39.8287 23.1202 39.8287C23.1202 39.8287 23.4577 38.1412 22.7827 37.4662C22.2765 36.96 21.4327 36.1162 20.9265 35.61L19.0702 34.4287Z" stroke="#212121" stroke-width="0.75" stroke-linecap="round" stroke-linejoin="round"/>
<path d="M33.0781 34.9328V29.1953" stroke="#212121" stroke-width="0.75" stroke-linecap="round"/>
<path d="M29.7 34.9328L29.5312 29.1953" stroke="#212121" stroke-width="0.75" stroke-linecap="round"/>
<path d="M26.3281 29.1953V34.9328" stroke="#212121" stroke-width="0.75" stroke-linecap="round"/>
</svg>
