<svg width="128" height="128" viewBox="0 0 128 128" fill="none" xmlns="http://www.w3.org/2000/svg">
<path fill-rule="evenodd" clip-rule="evenodd" d="M102.351 48.1657C103.199 47.645 104.135 47.2964 105.108 47.1387L128 43.5234V55.9378C128 57.0777 127.594 60.0873 125.464 62.9651C124.77 63.8324 123.905 64.5353 122.927 65.0267C121.972 65.5578 120.926 65.8912 119.848 66.0086L104.699 67.6149C103.705 67.7263 102.742 68.0409 101.865 68.5403C101.435 68.782 101.028 69.0641 100.648 69.383H100.619L100.376 69.6012C100.271 69.6915 100.141 69.8194 100.068 69.8909C99.9956 69.9624 99.9521 70.0075 99.8507 70.1166L99.8357 70.1327C99.7376 70.2381 99.6257 70.3584 99.5499 70.4514C99.483 70.5335 99.4058 70.6316 99.3442 70.7099L99.3108 70.7524C99.2456 70.8351 99.1803 70.9216 99.1187 71.0082C99.1046 71.025 99.0913 71.0426 99.0789 71.0608C99.0327 71.1248 98.9883 71.1906 98.9445 71.2557L98.9444 71.2558C98.9361 71.2681 98.9279 71.2803 98.9197 71.2924C98.9099 71.3069 98.9002 71.3212 98.8905 71.3355L98.8325 71.422C98.7988 71.4735 98.7694 71.5227 98.7384 71.5746C98.7128 71.6175 98.6861 71.6623 98.655 71.7117C98.5861 71.8208 98.5245 71.9336 98.4629 72.0465C98.4086 72.148 98.3542 72.2534 98.3035 72.3587C98.2963 72.3775 98.2781 72.4114 98.2781 72.4114C98.2274 72.5129 98.1767 72.6258 98.1332 72.7236C98.0897 72.8214 98.0499 72.9192 98.01 73.017C98.0065 73.0257 98.0013 73.0347 97.9961 73.044C97.9853 73.0631 97.9738 73.0833 97.9738 73.1036L97.952 73.1675V73.1939C97.8858 73.3423 97.8296 73.5292 97.777 73.704L97.7709 73.7243C97.7557 73.7649 97.7444 73.8041 97.7323 73.846L97.7322 73.8464L97.7315 73.8489C97.7237 73.8761 97.7155 73.9044 97.7057 73.935C97.6841 74.0023 97.6651 74.075 97.6465 74.1462L97.6368 74.1832C97.625 74.2266 97.6154 74.2706 97.6078 74.3149C97.5859 74.3904 97.5677 74.467 97.5535 74.5444C97.5507 74.5559 97.5475 74.5676 97.5442 74.5795L97.5442 74.5796C97.5345 74.6145 97.5245 74.6509 97.5245 74.6873C97.5229 74.6948 97.5229 74.7025 97.5245 74.7099C97.5173 74.7534 97.5101 74.7956 97.5029 74.8379C97.492 74.9017 97.481 74.9655 97.4701 75.0334C97.4645 75.0689 97.4573 75.1039 97.4503 75.1388C97.4348 75.2152 97.4194 75.2908 97.4194 75.3683V75.5037C97.4086 75.5747 97.4013 75.6463 97.3977 75.7181C97.3958 75.7457 97.3958 75.7733 97.3977 75.8009C97.3939 75.8309 97.3939 75.8612 97.3977 75.8912C97.3796 76.0266 97.3796 76.147 97.3796 76.2674L97.347 57.1116C97.5614 54.5426 98.5188 52.1009 100.093 50.1068C100.738 49.3355 101.501 48.6796 102.351 48.1657ZM109.304 59.2822L110.905 59.0828L110.923 57.3147L109.326 57.5216L109.423 50.1068L106.206 50.5771L102.043 58.101L101.996 60.1851L107.036 59.5455L107.01 61.34L105.713 61.4942L105.684 63.2736L110.297 62.7545L110.318 60.96L109.282 61.0804L109.304 59.2822ZM118.674 61.7914L121.051 61.5206L121.148 56.0432L121.974 55.9416V54.0606L116.79 54.7491V56.63L118.601 56.4006V59.222C118.488 59.3355 118.367 59.4399 118.239 59.5343C118.115 59.631 117.983 59.7154 117.844 59.7863C117.703 59.8626 117.555 59.9231 117.402 59.9669C117.238 60.0168 117.071 60.052 116.902 60.0722H116.782H116.659H116.543H116.431C116.084 60.0448 115.752 59.9142 115.474 59.696C115.187 59.463 114.958 59.1626 114.804 58.8195C114.608 58.3935 114.475 57.9396 114.409 57.4727C114.316 56.8897 114.275 56.2991 114.286 55.7084V55.4864C114.284 55.4563 114.284 55.4262 114.286 55.3961V55.3021V55.0237V54.892V54.7152C114.282 54.689 114.282 54.6624 114.286 54.6362C114.282 54.6125 114.282 54.5884 114.286 54.5647C114.284 54.5434 114.284 54.5221 114.286 54.5008C114.282 54.4645 114.282 54.428 114.286 54.3917V54.2638C114.284 54.2526 114.284 54.2411 114.286 54.2299C114.29 54.1943 114.297 54.1593 114.304 54.1246C114.315 54.0714 114.326 54.019 114.326 53.9666V53.9327C114.33 53.8948 114.336 53.8571 114.344 53.8199C114.342 53.7948 114.342 53.7697 114.344 53.7446C114.351 53.7024 114.357 53.675 114.366 53.6327L114.366 53.6321L114.38 53.5678C114.398 53.4813 114.427 53.3571 114.438 53.3158C114.442 53.3015 114.447 53.2877 114.452 53.2741L114.452 53.2738C114.461 53.2479 114.471 53.2224 114.471 53.1954C114.475 53.1736 114.481 53.1522 114.489 53.1314C114.5 53.0869 114.513 53.0429 114.529 52.9998C114.607 52.7403 114.708 52.4885 114.829 52.2474C115.021 51.8561 115.296 51.5152 115.634 51.2505C115.96 51.0034 116.342 50.8467 116.742 50.7953H116.876H117.003H117.13C117.17 50.7913 117.21 50.7913 117.25 50.7953C117.463 50.8032 117.673 50.8517 117.869 50.9382C118.05 51.0249 118.215 51.1447 118.355 51.2918C118.499 51.4556 118.621 51.6391 118.717 51.8373C118.832 52.0681 118.926 52.31 118.996 52.5596L121.076 51.9803C121.05 51.5535 120.964 51.1328 120.822 50.7313C120.688 50.3537 120.485 50.0063 120.224 49.7081C119.952 49.402 119.622 49.1585 119.253 48.9933C118.817 48.8058 118.352 48.7013 117.88 48.6848H117.598C117.5 48.6792 117.402 48.6792 117.304 48.6848C117.241 48.6872 117.179 48.6925 117.114 48.6979C117.076 48.7012 117.037 48.7046 116.996 48.7074C116.887 48.7149 116.782 48.73 116.67 48.7488C115.918 48.8504 115.192 49.1061 114.536 49.5012C113.905 49.8848 113.356 50.3966 112.92 51.0059C112.451 51.6795 112.101 52.4333 111.884 53.233C111.63 54.1749 111.501 55.148 111.5 56.1259C111.482 56.9526 111.551 57.7789 111.706 58.59C111.829 59.2638 112.056 59.9127 112.376 60.5124C112.649 61.0308 113.035 61.4754 113.503 61.8102C113.974 62.1362 114.518 62.3294 115.083 62.3708H115.293H115.503C115.577 62.3746 115.651 62.3746 115.724 62.3708C115.799 62.3763 115.874 62.3763 115.949 62.3708C116.276 62.337 116.597 62.2612 116.905 62.145C117.171 62.0544 117.425 61.9279 117.659 61.7688C117.874 61.6164 118.069 61.4356 118.239 61.2309C118.405 61.0421 118.551 60.8352 118.674 60.6139V61.7914ZM114.177 54.9785C114.176 54.9848 114.176 54.9912 114.177 54.9975V54.9785ZM114.177 54.9975V55.1111C114.175 55.0969 114.175 55.0767 114.176 55.0505C114.177 55.0349 114.177 55.0173 114.177 54.9975ZM107.155 52.221L107.065 57.7925L103.887 58.1988L107.155 52.221ZM46.3781 84.4834H37.8272L37.8127 78.1032L46.3781 77.8323V84.4834ZM66.1432 84.4834H56.2443V77.5238L66.1432 77.2116V84.4834ZM66.1432 58.9022L56.2443 60.0308V53.0863L66.1432 51.6417V58.9022ZM21.3774 68.3786L26.2833 67.9309V74.0516L21.3774 74.3262V68.3786ZM91.441 76.4141V84.4834H68.3316V77.1401L91.441 76.4141ZM56.2443 65.2637L62.7337 64.6881V71.9712L56.2443 72.3474V65.2637ZM36.7402 84.4834H30.8487V56.8068L36.7402 55.9416V84.4834ZM80.6508 64.7257C82.5857 62.3519 83.4045 59.7938 82.611 58.0972C82.1183 57.0137 80.9769 56.4758 79.582 56.5548V48.8541C83.0241 48.3462 86.1691 49.2115 88.3141 51.3144C90.2782 53.2416 91.2802 55.9992 91.0316 58.7931C90.5859 64.1426 88.0858 68.4275 81.1219 75.4886L69.7266 75.8648C69.7266 75.8648 77.6652 68.3823 80.6508 64.7257ZM78.2631 56.8783C76.8609 57.4878 75.4659 58.6088 75.792 63.3338L68.636 63.9959C68.2519 55.6294 71.5491 50.5244 78.2631 49.0196V56.8783ZM28.8523 84.4834H21.3774V78.6223L28.8523 78.3853V84.4834ZM20.3991 84.4834H15.2178V59.0753L20.3991 58.3229V84.4834ZM28.8523 63.1758L21.3774 64.026V58.1799L28.8523 57.089V63.1758ZM9.19229 84.4834H4.27548V66.7835L9.19229 66.2568V84.4834ZM13.4062 64.9326L0 66.4637V61.3024L13.4062 59.3386V64.9326ZM54.9762 84.4834H48.1898V54.245L54.9762 53.2593V84.4834Z" fill="#232628"/>
</svg>
