<svg width="128" height="128" viewBox="0 0 128 128" fill="none" xmlns="http://www.w3.org/2000/svg">
<path d="M101.246 45.7578H115.256C118.636 45.7582 121.877 47.1013 124.267 49.4918C126.657 51.8823 128 55.1245 128 58.5051V69.4918C128 71.1657 127.67 72.8233 127.03 74.3698C126.389 75.9163 125.451 77.3215 124.267 78.5051C123.084 79.6887 121.679 80.6275 120.133 81.268C118.587 81.9084 116.929 82.238 115.256 82.2378H101.246C99.5721 82.2379 97.915 81.9083 96.3689 81.2678C94.8228 80.6274 93.4179 79.6886 92.2345 78.505C91.0513 77.3214 90.1127 75.9162 89.4724 74.3697C88.8321 72.8232 88.5026 71.1657 88.5027 69.4918V58.5051C88.5027 51.4637 94.2059 45.7578 101.246 45.7578Z" fill="black"/>
<path d="M104.585 66.3837V65.7645H100.858V63.0085H108.127V66.2867C108.127 71.4465 105.664 74.4443 101.002 74.4443C96.1973 74.4443 93.4048 70.6572 93.4048 63.9799C93.4048 57.4687 96.4524 53.4822 102.04 53.4822C104.152 53.4822 105.972 54.0417 106.967 54.7698V57.6069C105.538 56.7208 103.892 56.2458 102.21 56.2342C98.5447 56.2342 96.9917 58.7231 96.9917 63.9799C96.9917 69.0785 98.2777 71.687 101.069 71.687C103.736 71.7003 104.585 69.6366 104.585 66.3837ZM123.205 66.7717C123.205 71.7255 120.535 74.4563 116.696 74.4563C112.857 74.4563 110.186 71.7255 110.186 66.8089C110.186 61.8551 112.857 59.1244 116.696 59.1244C120.535 59.1244 123.205 61.8431 123.205 66.7717ZM119.601 66.7717C119.601 63.3726 118.63 61.8803 116.7 61.8803C114.77 61.8803 113.8 63.3726 113.8 66.8089C113.8 70.208 114.771 71.7016 116.7 71.7016C118.629 71.7016 119.601 70.1961 119.601 66.7717Z" fill="white"/>
<path d="M10.0009 56.5385H8.40668C5.51058 56.5385 3.98547 58.0068 3.98547 60.1795C3.98547 62.6444 5.04029 63.7859 7.2137 65.2542L8.99786 66.4568L3.83934 74.1639H0L4.62447 67.2687C1.95421 65.3632 0.460986 63.5188 0.460986 60.3748C0.460986 56.4415 3.18838 53.7825 8.36949 53.7825H13.5267V74.1652H9.98892V56.5385H10.0009ZM28.1095 59.4154V74.1652H24.6262V68.0102H19.9645V74.1652H16.4812V59.4154H19.9645V65.2542H24.6262V59.4154H28.1095ZM43.8508 77.5285H40.6226V74.1533H32.7938V77.5285H29.5655V71.404H30.6576C31.8838 68.939 32.1269 64.2775 32.1269 60.6724V59.4101H42.2965V71.404H43.8508V77.5285ZM38.8132 62.1714H35.1239V62.6085C35.1239 65.1572 34.8582 69.1755 33.8858 71.4093H38.8132V62.1714ZM51.6783 74.4443C47.2252 74.4443 44.6997 71.9554 44.6997 66.8209C44.6997 62.3654 46.727 59.1137 50.9755 59.1137C54.4588 59.1137 56.7159 61.0551 56.7159 66.1791V68.0235H48.3052C48.45 70.4884 49.4212 71.6897 51.9705 71.6897C53.6697 71.6897 55.4897 71.0465 56.5698 70.3064V73.158C55.5508 73.8623 53.9114 74.4443 51.6783 74.4443ZM48.3052 65.4482H53.1715V65.1585C53.1715 63.3141 52.6401 61.8817 50.913 61.8817C49.2511 61.8671 48.4022 63.1055 48.3052 65.4482ZM62.5533 66.9179V74.1652H59.058V59.4154H62.5533V66.2136L67.4873 59.4154H71.0078L66.0804 66.2136L71.6747 74.1533H67.7118L62.5533 66.9179ZM71.4741 66.797C71.4741 62.3042 73.7923 59.1124 78.2494 59.1124C79.9764 59.1124 81.2717 59.4034 81.9997 59.8154V62.7786C81.2956 62.3414 79.9724 61.8671 78.6253 61.8671C76.343 61.8671 75.0809 63.5068 75.0809 66.7119C75.0809 69.7589 76.1132 71.7003 78.6014 71.7003C80.0694 71.7003 81.1256 71.3242 81.9997 70.705V73.546C81.1495 74.1652 80.007 74.4563 78.3942 74.4563C73.7312 74.4443 71.4728 71.7255 71.4728 66.797H71.4741Z" fill="black"/>
</svg>
