<svg width="147" height="32" viewBox="0 0 147 32" fill="none" xmlns="http://www.w3.org/2000/svg">
<path d="M79.2727 0H0V32H79.2727V0Z" fill="#1E1E1E"/>
<path d="M6.76562 26.1821V23.5581L14.5343 13.9404V13.8268H7.03421V10.3143H19.8338V13.1759L12.5404 22.5561V22.6697H20.1024V26.1821H6.76562ZM23.4676 26.1821V10.3143H27.8684V26.1821H23.4676ZM25.6783 8.26887C25.0241 8.26887 24.4628 8.05193 23.9945 7.61804C23.533 7.17729 23.3023 6.65043 23.3023 6.03748C23.3023 5.43142 23.533 4.91145 23.9945 4.47756C24.4628 4.03679 25.0241 3.81641 25.6783 3.81641C26.3326 3.81641 26.8905 4.03679 27.3519 4.47756C27.8202 4.91145 28.0544 5.43142 28.0544 6.03748C28.0544 6.65043 27.8202 7.17729 27.3519 7.61804C26.8905 8.05193 26.3326 8.26887 25.6783 8.26887ZM31.3937 26.1821V10.3143H35.5879V13.1139H35.7739C36.1044 12.1841 36.6554 11.4507 37.4268 10.9135C38.1981 10.3763 39.121 10.1077 40.1953 10.1077C41.2836 10.1077 42.2098 10.3798 42.9743 10.9239C43.7388 11.461 44.2484 12.1911 44.5032 13.1139H44.6685C44.9922 12.2048 45.5776 11.4783 46.4247 10.9342C47.2787 10.3832 48.2876 10.1077 49.4516 10.1077C50.9323 10.1077 52.1341 10.5795 53.0569 11.5231C53.9867 12.4596 54.4516 13.7889 54.4516 15.5106V26.1821H50.0611V16.3784C50.0611 15.4969 49.8269 14.8357 49.3586 14.3949C48.8903 13.9542 48.3049 13.7337 47.6024 13.7337C46.8035 13.7337 46.1802 13.9886 45.7326 14.4983C45.2849 15.0009 45.0611 15.6656 45.0611 16.492V26.1821H40.7945V16.2854C40.7945 15.5072 40.5707 14.8873 40.1231 14.4259C39.6823 13.9645 39.1004 13.7337 38.3772 13.7337C37.8882 13.7337 37.4474 13.8577 37.0549 14.1057C36.6692 14.3467 36.3628 14.6876 36.1355 15.1284C35.9082 15.5623 35.7945 16.0719 35.7945 16.6573V26.1821H31.3937ZM62.4526 26.4817C61.4402 26.4817 60.538 26.3061 59.746 25.9548C58.954 25.5967 58.3273 25.0698 57.8658 24.3743C57.4113 23.6718 57.184 22.7971 57.184 21.7503C57.184 20.8687 57.3459 20.1284 57.6695 19.5292C57.9932 18.93 58.434 18.4479 58.9919 18.0829C59.5497 17.7179 60.1833 17.4425 60.8927 17.2565C61.6089 17.0705 62.3596 16.9397 63.1447 16.8639C64.0676 16.7675 64.8114 16.678 65.3761 16.5953C65.9409 16.5058 66.3507 16.375 66.6055 16.2028C66.8603 16.0306 66.9877 15.7758 66.9877 15.4383V15.3763C66.9877 14.722 66.7811 14.2159 66.3679 13.8577C65.9615 13.4996 65.383 13.3205 64.6324 13.3205C63.8404 13.3205 63.2102 13.4961 62.7419 13.8474C62.2735 14.1918 61.9636 14.6256 61.8121 15.149L57.7419 14.8185C57.9485 13.8543 58.3548 13.0209 58.9609 12.3185C59.5669 11.6091 60.3486 11.065 61.3059 10.6863C62.2701 10.3006 63.3858 10.1077 64.653 10.1077C65.5345 10.1077 66.3783 10.2111 67.184 10.4177C67.9967 10.6243 68.7164 10.9445 69.3431 11.3784C69.9767 11.8123 70.476 12.3701 70.841 13.0519C71.206 13.7269 71.3886 14.5361 71.3886 15.4796V26.1821H67.215V23.9817H67.091C66.8362 24.4775 66.4953 24.9149 66.0683 25.2937C65.6413 25.6656 65.1282 25.9583 64.5291 26.1718C63.9299 26.3784 63.2377 26.4817 62.4526 26.4817ZM63.7129 23.4445C64.3603 23.4445 64.9319 23.3171 65.4278 23.0623C65.9237 22.8006 66.3128 22.4493 66.5952 22.0086C66.8775 21.5678 67.0187 21.0684 67.0187 20.5106V18.8268C66.881 18.9163 66.6916 18.9989 66.4505 19.0747C66.2164 19.1436 65.9512 19.2089 65.6551 19.271C65.359 19.326 65.0628 19.3777 64.7667 19.4259C64.4705 19.4672 64.2019 19.5051 63.9609 19.5396C63.4444 19.6153 62.9932 19.7359 62.6076 19.9011C62.2219 20.0664 61.9223 20.2903 61.7088 20.5726C61.4953 20.8481 61.3886 21.1924 61.3886 21.6057C61.3886 22.2048 61.6055 22.6628 62.0394 22.9796C62.4801 23.2895 63.038 23.4445 63.7129 23.4445Z" fill="white"/>
<path d="M85.4766 26.1805V5.02344H89.878V12.978H90.0118C90.2046 12.551 90.4838 12.1171 90.8489 11.6763C91.2206 11.2287 91.7027 10.8568 92.2947 10.5606C92.894 10.2576 93.638 10.1061 94.5267 10.1061C95.6838 10.1061 96.7507 10.4091 97.7289 11.0152C98.7071 11.6144 99.4889 12.52 100.074 13.7321C100.659 14.9373 100.952 16.449 100.952 18.2672C100.952 20.0372 100.666 21.5317 100.095 22.7507C99.5297 23.9629 98.7587 24.8823 97.7806 25.509C96.8097 26.1288 95.7217 26.4387 94.5158 26.4387C93.662 26.4387 92.9355 26.2976 92.3362 26.0152C91.7442 25.7328 91.2584 25.3781 90.8795 24.9512C90.5013 24.5173 90.2118 24.0799 90.0118 23.6392H89.8155V26.1805H85.4766ZM89.7849 18.2466C89.7849 19.1901 89.9158 20.0131 90.1769 20.7156C90.4387 21.4181 90.8177 21.9656 91.3137 22.3581C91.8097 22.7438 92.4118 22.9367 93.1216 22.9367C93.838 22.9367 94.4438 22.7404 94.9398 22.3478C95.4358 21.9484 95.8111 21.3974 96.0657 20.6949C96.3275 19.9856 96.4584 19.1694 96.4584 18.2466C96.4584 17.3306 96.3311 16.5248 96.0758 15.8292C95.8213 15.1336 95.446 14.5896 94.95 14.197C94.454 13.8045 93.8446 13.6082 93.1216 13.6082C92.4053 13.6082 91.7995 13.7976 91.3035 14.1763C90.814 14.5552 90.4387 15.0923 90.1769 15.7879C89.9158 16.4835 89.7849 17.3031 89.7849 18.2466ZM108.29 5.02344V26.1805H103.888V5.02344H108.29ZM121.99 19.4242V10.3127H126.391V26.1805H122.166V23.2982H122.001C121.642 24.228 121.047 24.9752 120.213 25.54C119.387 26.1047 118.378 26.3871 117.186 26.3871C116.126 26.3871 115.193 26.1461 114.387 25.664C113.581 25.1818 112.951 24.4966 112.496 23.6082C112.049 22.7197 111.821 21.6557 111.815 20.416V10.3127H116.215V19.6309C116.223 20.5675 116.474 21.3079 116.97 21.852C117.466 22.396 118.13 22.6681 118.963 22.6681C119.494 22.6681 119.989 22.5475 120.451 22.3065C120.912 22.0586 121.285 21.6936 121.567 21.2114C121.856 20.7293 121.997 20.1336 121.99 19.4242ZM137.143 26.4904C135.511 26.4904 134.106 26.1598 132.927 25.4986C131.757 24.8306 130.855 23.8871 130.221 22.6681C129.588 21.4421 129.271 19.9925 129.271 18.3189C129.271 16.6866 129.588 15.2541 130.221 14.0213C130.855 12.7886 131.746 11.8279 132.897 11.1392C134.054 10.4504 135.41 10.1061 136.967 10.1061C138.014 10.1061 138.989 10.2748 139.89 10.6123C140.799 10.9429 141.591 11.4421 142.266 12.1102C142.949 12.7783 143.479 13.6185 143.858 14.6309C144.237 15.6364 144.426 16.8141 144.426 18.164V19.3726H131.027V16.6453H140.283C140.283 16.0117 140.146 15.4504 139.87 14.9615C139.594 14.4725 139.213 14.0902 138.723 13.8148C138.241 13.5324 137.68 13.3912 137.039 13.3912C136.371 13.3912 135.779 13.5461 135.263 13.8561C134.753 14.1591 134.354 14.5689 134.064 15.0854C133.775 15.5951 133.627 16.1632 133.62 16.79V19.3829C133.62 20.1681 133.765 20.8464 134.054 21.4181C134.35 21.9897 134.767 22.4305 135.303 22.7404C135.841 23.0503 136.478 23.2053 137.215 23.2053C137.704 23.2053 138.151 23.1364 138.558 22.9986C138.965 22.8609 139.312 22.6543 139.602 22.3788C139.89 22.1033 140.111 21.7658 140.263 21.3664L144.333 21.635C144.126 22.613 143.703 23.4669 143.062 24.197C142.429 24.9201 141.609 25.4849 140.603 25.8912C139.605 26.2906 138.451 26.4904 137.143 26.4904Z" fill="#212121"/>
</svg>
