<svg width="128" height="128" viewBox="0 0 128 128" fill="none" xmlns="http://www.w3.org/2000/svg">
<g clip-path="url(#clip0_394_1223)">
<path d="M84.7273 43H44C32.402 43 23 52.402 23 64C23 75.598 32.402 85 44 85H84.7273C96.3252 85 105.727 75.598 105.727 64C105.727 52.402 96.3252 43 84.7273 43Z" fill="#3447F6"/>
<path fill-rule="evenodd" clip-rule="evenodd" d="M48.02 57.5525L44.4602 74.0262H49.0863L53.2725 54.5039H46.3598L40.8164 60.657L43.0927 62.7548L47.779 57.5525H48.02ZM55.3143 54.5039L51.1588 74.0262H55.6794L57.3458 65.9432H63.9813L64.6776 62.3631H58.1475L59.1603 58.0838H66.4451L67.1414 54.5039H55.3143ZM68.6633 54.5598L64.6154 74.0267H68.9858L73.2718 54.5598H68.6633ZM80.1484 74.0265L83.5979 58.1297H87.7534L88.4406 54.5598H74.6816L73.9944 58.1297H78.9184L75.7176 74.0265H80.1484Z" fill="white"/>
</g>
<defs>
<clipPath id="clip0_394_1223">
<rect width="82.7273" height="42" fill="white" transform="translate(23 43)"/>
</clipPath>
</defs>
</svg>
