<svg width="60" height="31" viewBox="0 0 60 31" fill="none" xmlns="http://www.w3.org/2000/svg">
<g clip-path="url(#clip0_394_1225)">
<path d="M44.3878 0.5H15.2969C7.0126 0.5 0.296875 7.21573 0.296875 15.5C0.296875 23.7843 7.0126 30.5 15.2969 30.5H44.3878C52.6721 30.5 59.3878 23.7843 59.3878 15.5C59.3878 7.21573 52.6721 0.5 44.3878 0.5Z" fill="#3447F6"/>
<path fill-rule="evenodd" clip-rule="evenodd" d="M18.1689 10.8924L15.6262 22.6593H18.9305L21.9206 8.71484H16.983L13.0234 13.1099L14.6493 14.6083L17.9967 10.8924H18.1689ZM23.3791 8.71484L20.4109 22.6593H23.6399L24.8302 16.8858H29.5698L30.0672 14.3286H25.4028L26.1263 11.2719H31.3296L31.827 8.71484H23.3791ZM32.9141 8.75479L30.0227 22.6597H33.1444L36.2059 8.75479H32.9141ZM41.1177 22.6596L43.5816 11.3047H46.5499L47.0407 8.75479H37.2129L36.722 11.3047H40.2392L37.9529 22.6596H41.1177Z" fill="white"/>
</g>
<defs>
<clipPath id="clip0_394_1225">
<rect width="59.0909" height="30" fill="white" transform="translate(0.296875 0.5)"/>
</clipPath>
</defs>
</svg>
