<svg width="112" height="37" viewBox="0 0 112 37" fill="none" xmlns="http://www.w3.org/2000/svg">
<g clip-path="url(#clip0_394_1182)">
<rect width="111" height="36" transform="translate(0.46875 0.5)" fill="white"/>
<path fill-rule="evenodd" clip-rule="evenodd" d="M0.46875 36.5H36.8469V0.5H0.46875V36.5Z" fill="#C80000"/>
<path fill-rule="evenodd" clip-rule="evenodd" d="M18.5676 20.3529H16.6333C16.5918 20.3529 16.5549 20.3738 16.5336 20.4053C16.2942 20.8135 15.763 21.4749 14.755 21.4749C13.4363 21.4749 12.621 20.3347 12.621 19.1524C12.621 18.0447 13.3827 16.8727 14.7452 16.8727C15.679 16.8727 16.2523 17.4417 16.5404 17.9699C16.5438 17.9765 16.5484 17.9841 16.5521 17.9914C16.5739 18.022 16.6103 18.0425 16.6518 18.0425H18.5895C18.6547 18.0425 18.7083 17.9896 18.7083 17.925C18.7083 17.9148 18.7067 17.9051 18.7043 17.8954C18.7027 17.8896 18.7009 17.8842 18.6991 17.879C18.3165 16.6762 17.0137 15.1211 14.755 15.1211C12.16 15.1211 10.5938 17.168 10.5938 19.1633C10.5938 21.2738 12.2886 23.2265 14.7769 23.2265C16.5675 23.2265 18.1032 22.1596 18.6766 20.5176C18.6778 20.5143 18.679 20.5113 18.6803 20.5079C18.6843 20.4961 18.6864 20.484 18.6864 20.471C18.6864 20.4062 18.6323 20.3529 18.5676 20.3529Z" fill="white"/>
<path fill-rule="evenodd" clip-rule="evenodd" d="M27.177 20.3529H25.2427C25.2012 20.3529 25.1642 20.3738 25.143 20.4053C24.9036 20.8135 24.3723 21.4749 23.365 21.4749C22.0456 21.4749 21.2304 20.3347 21.2304 19.1524C21.2304 18.0447 21.9921 16.8727 23.3546 16.8727C24.2883 16.8727 24.8617 17.4417 25.1498 17.9699C25.1538 17.9765 25.1578 17.9841 25.1618 17.9914C25.1833 18.022 25.2196 18.0425 25.2612 18.0425H27.1989C27.2641 18.0425 27.3177 17.9896 27.3177 17.925C27.3177 17.9148 27.3167 17.9051 27.3137 17.8954C27.3121 17.8896 27.3103 17.8842 27.3084 17.879C26.9259 16.6762 25.6234 15.1211 23.365 15.1211C20.7693 15.1211 19.2031 17.168 19.2031 19.1633C19.2031 21.2738 20.898 23.2265 23.3863 23.2265C25.1775 23.2265 26.7126 22.1596 27.286 20.5176C27.2872 20.5143 27.2884 20.5113 27.289 20.5079C27.293 20.4961 27.2958 20.484 27.2958 20.471C27.2958 20.4062 27.2423 20.3529 27.177 20.3529Z" fill="white"/>
<path fill-rule="evenodd" clip-rule="evenodd" d="M7.61203 20.2845L7.60741 20.2709L6.87739 17.8606C6.86877 17.8294 6.84046 17.8067 6.8063 17.8067C6.77306 17.8067 6.74536 17.8276 6.73767 17.8582L6.00272 20.2742L5.99965 20.2839C5.99841 20.2884 5.99811 20.293 5.99811 20.2975C5.99811 20.3363 6.02981 20.3669 6.06889 20.3669H7.54216C7.58187 20.3669 7.61326 20.3363 7.61326 20.2975C7.61326 20.293 7.61264 20.289 7.61203 20.2845ZM8.19894 22.0225C8.18109 21.9801 8.13831 21.9498 8.08814 21.9498H5.50168C5.45213 21.9498 5.40935 21.9801 5.39089 22.0225L5.02618 23.0073L5.02557 23.0079C5.00772 23.0503 4.96494 23.0794 4.91662 23.0794H2.99893C2.93277 23.0794 2.87891 23.027 2.87891 22.9622C2.87891 22.947 2.88198 22.9328 2.88752 22.9198L2.88937 22.9146L5.97595 15.3468L5.97964 15.3383C5.99841 15.298 6.03996 15.2695 6.08859 15.2695H7.52616C7.57263 15.2695 7.61387 15.2968 7.63265 15.3359L7.63911 15.3507L10.6906 22.9107L10.6971 22.9264C10.7011 22.9373 10.7032 22.9491 10.7032 22.9622C10.7032 23.027 10.6497 23.0794 10.5844 23.0794H8.64673C8.59657 23.0794 8.5544 23.0503 8.53594 23.0082L8.53471 23.0055L8.19894 22.0225Z" fill="white"/>
<path fill-rule="evenodd" clip-rule="evenodd" d="M31.9987 20.2845L31.9941 20.2709L31.2641 17.8606C31.2555 17.8294 31.2272 17.8067 31.1927 17.8067C31.1598 17.8067 31.1321 17.8276 31.1244 17.8582L30.3894 20.2742L30.3864 20.2839C30.3851 20.2884 30.3848 20.293 30.3848 20.2975C30.3848 20.3363 30.4165 20.3669 30.4556 20.3669H31.9295C31.9686 20.3669 32 20.3363 32 20.2975C32 20.293 31.9994 20.289 31.9987 20.2845ZM32.5857 22.0225C32.5678 21.9801 32.525 21.9498 32.4749 21.9498H29.8884C29.8388 21.9498 29.7961 21.9801 29.7776 22.0225L29.4129 23.0073L29.4123 23.0079C29.3938 23.0503 29.3517 23.0794 29.3027 23.0794H27.3857C27.3195 23.0794 27.2656 23.027 27.2656 22.9622C27.2656 22.947 27.2687 22.9328 27.2742 22.9198L27.2761 22.9146L30.3627 15.3468L30.3664 15.3383C30.3851 15.298 30.4267 15.2695 30.4753 15.2695H31.9129C31.9594 15.2695 32.0006 15.2968 32.0194 15.3359L32.0258 15.3507L35.0779 22.9107L35.0838 22.9264C35.0878 22.9373 35.0899 22.9491 35.0899 22.9622C35.0899 23.027 35.0364 23.0794 34.9711 23.0794H33.0335C32.9833 23.0794 32.9405 23.0503 32.9227 23.0082L32.9214 23.0055L32.5857 22.0225Z" fill="white"/>
<path fill-rule="evenodd" clip-rule="evenodd" d="M47.1848 22.296H47.9364L47.9776 16.7914H46.2766L46.2347 17.8389H45.1914L45.233 15.9492H51.8607L51.9025 17.8389H50.8583L50.8167 16.7914H49.1471L49.1053 22.296H49.9507V23.1382H47.1848V22.296Z" fill="#231F20"/>
<path fill-rule="evenodd" clip-rule="evenodd" d="M52.3674 22.2977H52.9833L53.0251 16.0844H52.2422V15.2422H54.2356L54.2048 17.7993C54.2048 18.1588 54.1423 18.5286 54.0691 18.9807H54.09C54.3088 18.2926 54.9139 17.6764 56 17.6764C57.2732 17.6764 57.8891 18.4671 57.8891 19.7405C57.8891 20.593 57.8577 21.4458 57.8472 22.2977H58.5569V23.1398H56.0625V22.2977H56.6783C56.6888 21.5169 56.7202 20.7268 56.7202 19.9461C56.7202 19.1963 56.365 18.6418 55.6239 18.6418C54.8206 18.6418 54.2147 19.2681 54.1943 20.2641L54.1528 22.2977H54.8828V23.1398H52.3674V22.2977Z" fill="#231F20"/>
<path fill-rule="evenodd" clip-rule="evenodd" d="M60.549 15.1172C60.9983 15.1172 61.3528 15.4664 61.3528 15.9082C61.3528 16.3497 60.9983 16.6989 60.549 16.6989C60.1002 16.6989 59.7457 16.3497 59.7457 15.9082C59.7457 15.4664 60.1002 15.1172 60.549 15.1172ZM59.2339 22.2959H59.9436L59.9645 18.6401H59.1406V17.7979H61.134L61.1131 22.2959H61.8431V23.1384H59.2339V22.2959Z" fill="#231F20"/>
<path fill-rule="evenodd" clip-rule="evenodd" d="M62.6135 22.2971H63.2294L63.2503 18.6412H62.4883V17.7987H64.4195C64.4195 18.1582 64.3884 18.528 64.3152 18.9801H64.3361C64.5549 18.2921 65.16 17.6758 66.2461 17.6758C67.5193 17.6758 68.1352 18.4665 68.1352 19.7399C68.1352 20.5924 68.1038 21.4452 68.0933 22.2971H68.803V23.1392H66.3086V22.2971H66.9244C66.9349 21.5163 66.9663 20.7262 66.9663 19.9455C66.9663 19.1957 66.6111 18.6412 65.87 18.6412C65.0667 18.6412 64.4608 19.2675 64.4404 20.2635L64.3989 22.2971H65.1289V23.1392H62.6135V22.2971Z" fill="#231F20"/>
<path fill-rule="evenodd" clip-rule="evenodd" d="M69.5315 22.2977H70.1888L70.2307 16.0844H69.2812V15.2422H71.4002L71.3584 20.1209L73.2788 18.6624V18.6418H72.5063V17.7993H75.0531V18.6418H74.5105L72.5691 20.2229L74.6671 22.2977H75.2827V23.1398H72.6734V22.2977H73.3102L71.3584 20.4285V22.2977H72.0161V23.1398H69.5315V22.2977Z" fill="#231F20"/>
<path fill-rule="evenodd" clip-rule="evenodd" d="M82.2919 17.5718C82.1771 17.2535 82.1353 17.0685 82.1039 16.9147H82.083C82.0516 17.0582 82.0097 17.2535 81.8845 17.5718L81.0812 19.6054H83.0121L82.2919 17.5718ZM78.2734 22.2957H78.8997L81.5508 15.9492H82.845L85.2976 22.2957H85.9445V23.1382H83.2728V22.2957H83.9406L83.3146 20.509H80.747L80.0686 22.2957H80.8202V23.1382H78.2734V22.2957Z" fill="#231F20"/>
<path fill-rule="evenodd" clip-rule="evenodd" d="M86.5667 22.2977H87.1825L87.224 16.0844H86.4414V15.2422H88.4348L88.404 17.7993C88.404 18.1588 88.3415 18.5286 88.2683 18.9807H88.2892C88.508 18.2926 89.1131 17.6764 90.1992 17.6764C91.4724 17.6764 92.0883 18.4671 92.0883 19.7405C92.0883 20.593 92.0569 21.4458 92.0464 22.2977H92.7561V23.1398H90.2617V22.2977H90.8775C90.888 21.5169 90.9194 20.7268 90.9194 19.9461C90.9194 19.1963 90.5642 18.6418 89.8231 18.6418C89.0199 18.6418 88.4139 19.2681 88.3936 20.2641L88.352 22.2977H89.082V23.1398H86.5667V22.2977Z" fill="#231F20"/>
<path fill-rule="evenodd" clip-rule="evenodd" d="M97.2815 19.8735V19.7708C97.2815 19.3293 96.9888 18.5177 95.9978 18.5177C95.0059 18.5177 94.6723 19.2266 94.6304 19.8735H97.2815ZM98.1682 22.8927C97.7927 23.0469 97.0725 23.2628 96.2582 23.2628C94.4633 23.2525 93.3984 22.1635 93.3984 20.4897C93.3984 18.908 94.3066 17.6758 96.0597 17.6758C97.6884 17.6758 98.5129 18.8465 98.5129 20.5V20.6542H94.6304C94.6409 21.6911 95.4128 22.3588 96.4881 22.3588C97.1667 22.3588 97.7613 22.1838 98.231 21.9482L98.1682 22.8927Z" fill="#231F20"/>
<path fill-rule="evenodd" clip-rule="evenodd" d="M101.465 22.3588C102.373 22.3588 102.864 21.6811 102.864 21.003V20.788C101.653 20.7983 100.599 20.8489 100.599 21.6399C100.599 22.0409 100.912 22.3588 101.465 22.3588ZM99.6596 18.1585C99.9513 18.025 100.651 17.6758 101.81 17.6758C103.417 17.6758 103.928 18.4562 103.928 19.7193C103.928 20.5824 103.897 21.4349 103.886 22.2971H104.617V23.1395H102.895C102.895 22.801 102.926 22.3897 102.989 22.0306H102.968C102.738 22.6365 102.3 23.2628 101.162 23.2628C99.8575 23.2628 99.4297 22.4103 99.4297 21.7323C99.4297 20.3253 100.88 20.1409 101.768 20.0997L102.884 20.0379V19.6375C102.884 18.9801 102.644 18.518 101.684 18.518C101.277 18.518 100.88 18.6309 100.703 18.703V19.4834H99.6596V18.1585Z" fill="#231F20"/>
<path fill-rule="evenodd" clip-rule="evenodd" d="M109.333 18.806C109.092 18.6624 108.727 18.58 108.299 18.58C107.224 18.58 106.619 19.5043 106.619 20.5521C106.619 21.5478 107.057 22.2976 107.934 22.2976C108.873 22.2976 109.333 21.5375 109.333 20.295V18.806ZM111.211 23.1401H109.374C109.374 22.7604 109.426 22.3594 109.478 22.0514H109.457C109.176 22.7707 108.581 23.2634 107.652 23.2634C106.347 23.2634 105.387 22.3182 105.387 20.7268C105.387 18.9601 106.452 17.6764 108.299 17.6764C108.685 17.6764 109.05 17.7276 109.374 17.7993L109.395 16.0844H108.403V15.2422H110.522L110.481 22.2976H111.211V23.1401Z" fill="#231F20"/>
</g>
<defs>
<clipPath id="clip0_394_1182">
<rect width="111" height="36" fill="white" transform="translate(0.46875 0.5)"/>
</clipPath>
</defs>
</svg>
