<svg width="128" height="128" viewBox="0 0 128 128" fill="none" xmlns="http://www.w3.org/2000/svg">
<g clip-path="url(#clip0_394_1176)">
<path fill-rule="evenodd" clip-rule="evenodd" d="M0 84.9496H41.9496V43H0V84.9496Z" fill="#C80000"/>
<path fill-rule="evenodd" clip-rule="evenodd" d="M20.8709 66.1355H18.6403C18.5924 66.1355 18.5498 66.1598 18.5254 66.1965C18.2492 66.6722 17.6367 67.4429 16.4744 67.4429C14.9536 67.4429 14.0135 66.1143 14.0135 64.7367C14.0135 63.4458 14.8919 62.0801 16.463 62.0801C17.5398 62.0801 18.201 62.7432 18.5332 63.3586C18.5371 63.3664 18.5424 63.3752 18.5467 63.3837C18.5719 63.4193 18.6137 63.4433 18.6616 63.4433H20.8961C20.9713 63.4433 21.0331 63.3816 21.0331 63.3064C21.0331 63.2944 21.0313 63.2831 21.0285 63.2718C21.0267 63.2651 21.0246 63.2588 21.0224 63.2528C20.5813 61.8511 19.079 60.0391 16.4744 60.0391C13.4819 60.0391 11.6758 62.4242 11.6758 64.7494C11.6758 67.2086 13.6302 69.484 16.4996 69.484C18.5644 69.484 20.3354 68.2408 20.9965 66.3275C20.9979 66.3236 20.9994 66.32 21.0008 66.3162C21.0054 66.3024 21.0079 66.2883 21.0079 66.2731C21.0079 66.1976 20.9454 66.1355 20.8709 66.1355Z" fill="white"/>
<path fill-rule="evenodd" clip-rule="evenodd" d="M30.7967 66.1355H28.5661C28.5182 66.1355 28.4756 66.1598 28.4511 66.1965C28.175 66.6722 27.5625 67.4429 26.4009 67.4429C24.8794 67.4429 23.9393 66.1143 23.9393 64.7367C23.9393 63.4458 24.8177 62.0801 26.3888 62.0801C27.4656 62.0801 28.1268 62.7432 28.4589 63.3586C28.4636 63.3664 28.4682 63.3752 28.4728 63.3837C28.4976 63.4193 28.5395 63.4433 28.5874 63.4433H30.8219C30.8971 63.4433 30.9589 63.3816 30.9589 63.3064C30.9589 63.2944 30.9578 63.2831 30.9543 63.2718C30.9525 63.2651 30.9503 63.2588 30.9482 63.2528C30.5071 61.8511 29.0051 60.0391 26.4009 60.0391C23.4076 60.0391 21.6016 62.4242 21.6016 64.7494C21.6016 67.2086 23.556 69.484 26.4254 69.484C28.4909 69.484 30.2611 68.2408 30.9223 66.3275C30.9237 66.3236 30.9252 66.32 30.9259 66.3162C30.9305 66.3024 30.9337 66.2883 30.9337 66.2731C30.9337 66.1976 30.8719 66.1355 30.7967 66.1355Z" fill="white"/>
<path fill-rule="evenodd" clip-rule="evenodd" d="M8.23536 66.0547L8.23003 66.0388L7.38821 63.2302C7.37827 63.1939 7.34562 63.1674 7.30623 63.1674C7.2679 63.1674 7.23596 63.1917 7.22709 63.2274L6.37958 66.0427L6.37603 66.054C6.37461 66.0593 6.37426 66.0646 6.37426 66.0699C6.37426 66.115 6.41081 66.1507 6.45589 66.1507H8.15479C8.20058 66.1507 8.23678 66.115 8.23678 66.0699C8.23678 66.0646 8.23607 66.06 8.23536 66.0547ZM8.91215 68.0799C8.89157 68.0305 8.84224 67.9952 8.78439 67.9952H5.8018C5.74467 67.9952 5.69534 68.0305 5.67404 68.0799L5.25348 69.2275L5.25277 69.2282C5.23219 69.2776 5.18286 69.3115 5.12714 69.3115H2.91575C2.83945 69.3115 2.77734 69.2504 2.77734 69.1749C2.77734 69.1573 2.78089 69.1407 2.78728 69.1255L2.78941 69.1195L6.34871 60.3009L6.35297 60.291C6.37461 60.2441 6.42253 60.2109 6.4786 60.2109H8.13634C8.18993 60.2109 8.23749 60.2427 8.25914 60.2882L8.26659 60.3055L11.7854 69.1149L11.7929 69.1333C11.7975 69.146 11.8 69.1597 11.8 69.1749C11.8 69.2504 11.7382 69.3115 11.663 69.3115H9.42853C9.37068 69.3115 9.32206 69.2776 9.30077 69.2285L9.29935 69.2254L8.91215 68.0799Z" fill="white"/>
<path fill-rule="evenodd" clip-rule="evenodd" d="M36.3565 66.0547L36.3511 66.0388L35.5093 63.2302C35.4994 63.1939 35.4667 63.1674 35.427 63.1674C35.389 63.1674 35.3571 63.1917 35.3482 63.2274L34.5007 66.0427L34.4971 66.054C34.4957 66.0593 34.4954 66.0646 34.4954 66.0699C34.4954 66.115 34.5319 66.1507 34.577 66.1507H36.2766C36.3217 66.1507 36.3579 66.115 36.3579 66.0699C36.3579 66.0646 36.3572 66.06 36.3565 66.0547ZM37.0332 68.0799C37.0127 68.0305 36.9633 67.9952 36.9055 67.9952H33.9229C33.8658 67.9952 33.8164 68.0305 33.7951 68.0799L33.3746 69.2275L33.3739 69.2282C33.3526 69.2776 33.304 69.3115 33.2475 69.3115H31.0368C30.9605 69.3115 30.8984 69.2504 30.8984 69.1749C30.8984 69.1573 30.902 69.1407 30.9084 69.1255L30.9105 69.1195L34.4698 60.3009L34.4741 60.291C34.4957 60.2441 34.5436 60.2109 34.5997 60.2109H36.2574C36.311 60.2109 36.3586 60.2427 36.3802 60.2882L36.3877 60.3055L39.9072 69.1149L39.914 69.1333C39.9186 69.146 39.9211 69.1597 39.9211 69.1749C39.9211 69.2504 39.8593 69.3115 39.7841 69.3115H37.5496C37.4918 69.3115 37.4424 69.2776 37.4219 69.2285L37.4204 69.2254L37.0332 68.0799Z" fill="white"/>
<path fill-rule="evenodd" clip-rule="evenodd" d="M53.869 68.3996H54.7357L54.7832 61.9853H52.8217L52.7734 63.2059H51.5703L51.6182 61.0039H59.261L59.3093 63.2059H58.1051L58.0572 61.9853H56.1318L56.0836 68.3996H57.0585V69.381H53.869V68.3996Z" fill="#231F20"/>
<path fill-rule="evenodd" clip-rule="evenodd" d="M59.8476 68.4012H60.5577L60.606 61.1611H59.7031V60.1797H62.0018L61.9663 63.1594C61.9663 63.5783 61.8943 64.0092 61.8098 64.536H61.834C62.0863 63.7343 62.784 63.0162 64.0365 63.0162C65.5047 63.0162 66.2148 63.9375 66.2148 65.4214C66.2148 66.4148 66.1786 67.4085 66.1666 68.4012H66.985V69.3825H64.1085V68.4012H64.8187C64.8307 67.4914 64.8669 66.5708 64.8669 65.661C64.8669 64.7873 64.4574 64.1412 63.6028 64.1412C62.6765 64.1412 61.9777 64.8709 61.9543 66.0316L61.9063 68.4012H62.7482V69.3825H59.8476V68.4012Z" fill="#231F20"/>
<path fill-rule="evenodd" clip-rule="evenodd" d="M69.2803 60.0352C69.7984 60.0352 70.2073 60.442 70.2073 60.9569C70.2073 61.4714 69.7984 61.8783 69.2803 61.8783C68.7628 61.8783 68.354 61.4714 68.354 60.9569C68.354 60.442 68.7628 60.0352 69.2803 60.0352ZM67.7638 68.4003H68.5822L68.6063 64.1403H67.6562V63.1589H69.9549L69.9308 68.4003H70.7726V69.382H67.7638V68.4003Z" fill="#231F20"/>
<path fill-rule="evenodd" clip-rule="evenodd" d="M71.6601 68.4006H72.3702L72.3944 64.1406H71.5156V63.1589H73.7426C73.7426 63.5778 73.7068 64.0086 73.6223 64.5355H73.6465C73.8988 63.7337 74.5965 63.0156 75.849 63.0156C77.3172 63.0156 78.0273 63.937 78.0273 65.4209C78.0273 66.4143 77.9911 67.408 77.9791 68.4006H78.7975V69.382H75.921V68.4006H76.6312C76.6432 67.4909 76.6794 66.5702 76.6794 65.6605C76.6794 64.7867 76.2699 64.1406 75.4153 64.1406C74.489 64.1406 73.7902 64.8704 73.7668 66.031L73.7188 68.4006H74.5607V69.382H71.6601V68.4006Z" fill="#231F20"/>
<path fill-rule="evenodd" clip-rule="evenodd" d="M79.6362 68.4012H80.3943L80.4425 61.1611H79.3477V60.1797H81.7911L81.7429 65.8646L83.9575 64.1652V64.1412H83.0667V63.1594H86.0035V64.1412H85.3778L83.1391 65.9836L85.5584 68.4012H86.2682V69.3825H83.2594V68.4012H83.9937L81.7429 66.2232V68.4012H82.5013V69.3825H79.6362V68.4012Z" fill="#231F20"/>
<path fill-rule="evenodd" clip-rule="evenodd" d="M94.3527 62.8947C94.2203 62.5238 94.172 62.3082 94.1358 62.1289H94.1117C94.0755 62.2962 94.0272 62.5238 93.8828 62.8947L92.9565 65.2643H95.1832L94.3527 62.8947ZM89.7188 68.3993H90.441L93.4981 61.0039H94.9904L97.8186 68.3993H98.5646V69.381H95.4838V68.3993H96.2539L95.532 66.3173H92.5711L91.7889 68.3993H92.6556V69.381H89.7188V68.3993Z" fill="#231F20"/>
<path fill-rule="evenodd" clip-rule="evenodd" d="M99.2812 68.4012H99.9913L100.039 61.1611H99.1367V60.1797H101.435L101.4 63.1594C101.4 63.5783 101.328 64.0092 101.243 64.536H101.268C101.52 63.7343 102.218 63.0162 103.47 63.0162C104.938 63.0162 105.648 63.9375 105.648 65.4214C105.648 66.4148 105.612 67.4085 105.6 68.4012H106.419V69.3825H103.542V68.4012H104.252C104.264 67.4914 104.301 66.5708 104.301 65.661C104.301 64.7873 103.891 64.1412 103.036 64.1412C102.11 64.1412 101.411 64.8709 101.388 66.0316L101.34 68.4012H102.182V69.3825H99.2812V68.4012Z" fill="#231F20"/>
<path fill-rule="evenodd" clip-rule="evenodd" d="M111.638 65.5765V65.4569C111.638 64.9424 111.3 63.9966 110.158 63.9966C109.014 63.9966 108.629 64.8227 108.581 65.5765H111.638ZM112.66 69.0948C112.227 69.2744 111.397 69.526 110.458 69.526C108.388 69.514 107.16 68.245 107.16 66.2946C107.16 64.4515 108.207 63.0156 110.229 63.0156C112.107 63.0156 113.058 64.3799 113.058 66.3066V66.4862H108.581C108.593 67.6945 109.483 68.4726 110.723 68.4726C111.506 68.4726 112.191 68.2687 112.733 67.9941L112.66 69.0948Z" fill="#231F20"/>
<path fill-rule="evenodd" clip-rule="evenodd" d="M116.46 68.4726C117.508 68.4726 118.073 67.6829 118.073 66.8928V66.6422C116.677 66.6542 115.461 66.7131 115.461 67.6349C115.461 68.1021 115.822 68.4726 116.46 68.4726ZM114.378 63.5781C114.715 63.4225 115.521 63.0156 116.858 63.0156C118.711 63.0156 119.301 63.925 119.301 65.3969C119.301 66.4026 119.264 67.396 119.252 68.4006H120.095V69.3824H118.109C118.109 68.9878 118.145 68.5086 118.218 68.0901H118.194C117.928 68.7962 117.423 69.526 116.111 69.526C114.607 69.526 114.113 68.5326 114.113 67.7425C114.113 66.103 115.786 65.8881 116.809 65.8401L118.097 65.7681V65.3016C118.097 64.5355 117.82 63.997 116.713 63.997C116.243 63.997 115.786 64.1286 115.582 64.2126V65.122H114.378V63.5781Z" fill="#231F20"/>
<path fill-rule="evenodd" clip-rule="evenodd" d="M125.535 64.3324C125.257 64.1652 124.836 64.0692 124.342 64.0692C123.103 64.0692 122.405 65.1462 122.405 66.3672C122.405 67.5274 122.91 68.4012 123.922 68.4012C125.004 68.4012 125.535 67.5154 125.535 66.0676V64.3324ZM127.701 69.3829H125.582C125.582 68.9404 125.642 68.4732 125.702 68.1143H125.678C125.354 68.9524 124.668 69.5265 123.596 69.5265C122.092 69.5265 120.984 68.4252 120.984 66.5708C120.984 64.512 122.212 63.0162 124.342 63.0162C124.787 63.0162 125.209 63.0758 125.582 63.1594L125.606 61.1611H124.463V60.1797H126.907L126.858 68.4012H127.701V69.3829Z" fill="#231F20"/>
</g>
<defs>
<clipPath id="clip0_394_1176">
<rect width="128" height="41.9496" fill="white" transform="translate(0 43)"/>
</clipPath>
</defs>
</svg>
