<svg width="129" height="33" viewBox="0 0 129 33" fill="none" xmlns="http://www.w3.org/2000/svg">
<g clip-path="url(#clip0_397_1442)">
<path fill-rule="evenodd" clip-rule="evenodd" d="M0.386719 16.5485L25.5339 32.1803C26.0908 28.4 22.5853 26.1688 22.5525 25.8416C22.5144 25.4233 25.3433 24.3803 25.5519 21.518C25.9045 16.7402 19.3604 16.4362 19.1359 20.009C19.0163 21.877 21.0957 21.9193 21.1603 20.5322C21.2503 18.6748 23.175 19.0253 23.4736 21.1156C23.7753 23.2091 21.336 24.0954 20.3609 24.0679C18.8427 24.0213 16.8226 22.7845 16.6394 20.9568C16.3864 18.4397 19.2302 18.1146 15.5616 18.4249C14.1207 18.5456 13.0694 17.7758 12.4002 16.5368C13.2313 15.3847 14.1207 14.5842 15.5616 14.707C19.2302 15.0194 16.3864 14.6911 16.6394 12.1497C16.8226 10.3061 18.8427 9.05561 20.3609 9.01001C21.336 8.98041 23.7753 9.87521 23.4736 11.9898C23.175 14.0981 21.2503 14.4518 21.1603 12.5786C21.0957 11.1766 19.0163 11.221 19.1359 13.107C19.3604 16.7116 25.9045 16.4066 25.5519 11.5832C25.3465 8.75161 22.6213 7.68211 22.5536 7.24271C22.5186 7.01081 26.0792 4.56151 25.5339 0.820312" fill="#9C8761"/>
<path d="M125.752 21.0493C125.336 21.2568 124.712 21.3955 124.065 21.3955C122.425 21.3955 121.454 20.703 121.454 19.085C121.454 16.821 123.094 16.2428 125.752 15.9188V21.0493ZM128.385 22.0658V14.3473C128.385 11.1356 126.352 10.0502 123.788 10.0502C121.824 10.0502 120.323 10.6051 119.514 10.9969L120.161 12.6149C120.923 12.2454 122.078 11.8525 123.28 11.8525C124.736 11.8525 125.752 12.2909 125.752 13.909V14.5793C121.963 14.9488 118.798 15.8966 118.798 19.1771C118.798 21.5808 120.484 22.967 123.88 22.967C125.822 22.967 127.392 22.5974 128.385 22.0658ZM116.395 22.7361V13.8624C116.395 11.8525 115.17 10.0502 111.45 10.0502C109.348 10.0502 107.754 10.3965 106.576 10.9514V22.7361H109.394V12.1755C109.926 11.9679 110.411 11.8292 111.335 11.8292C113.115 11.8292 113.576 12.8924 113.576 13.909V22.7361H116.395ZM100.938 21.0493C100.523 21.2568 99.8996 21.3955 99.2527 21.3955C97.6116 21.3955 96.6418 20.703 96.6418 19.085C96.6418 16.821 98.2818 16.2428 100.938 15.9188V21.0493ZM103.573 22.0658V14.3473C103.573 11.1356 101.54 10.0502 98.9753 10.0502C97.0113 10.0502 95.51 10.6051 94.7011 10.9969L95.348 12.6149C96.1103 12.2454 97.2654 11.8525 98.4671 11.8525C99.9229 11.8525 100.938 12.2909 100.938 13.909V14.5793C97.15 14.9488 93.9844 15.8966 93.9844 19.1771C93.9844 21.5808 95.671 22.967 99.0685 22.967C101.008 22.967 102.579 22.5974 103.573 22.0658ZM92.229 22.6207V20.864C91.9982 20.9338 91.8129 20.9794 91.5588 20.9794C90.589 20.9794 90.1962 20.3324 90.1962 19.3613V12.0834H92.229V10.2811H90.1962V6.74534L87.3768 7.53114V10.2811H85.9909V12.0834H87.3768V19.5011C87.3768 21.2335 88.3476 22.8748 90.7965 22.8748C91.4667 22.8748 91.9749 22.7361 92.229 22.6207ZM84.3043 19.1538C84.3043 17.6988 83.7506 16.4504 81.3239 15.4804C80.2387 15.0409 79.4764 14.5327 79.4764 13.5161C79.4764 12.6382 80.1 11.8758 81.2541 11.8758C82.1328 11.8758 82.8718 12.2687 83.2413 12.5684L83.9348 10.9281C83.1259 10.3965 82.0873 10.0502 80.7004 10.0502C78.3203 10.0502 76.7502 11.6672 76.7502 13.6548C76.7502 14.9488 77.2351 16.2428 79.5918 17.144C80.8623 17.6289 81.4171 18.1372 81.4171 19.2004C81.4171 20.217 80.6538 20.9571 79.4997 20.9571C78.4823 20.9571 77.6279 20.6109 77.1663 20.2403L76.4262 22.0425C77.1663 22.5508 78.4135 22.9437 79.8692 22.9437C82.5944 22.9437 84.3043 21.188 84.3043 19.1538ZM71.5518 21.0493C71.1357 21.2568 70.5121 21.3955 69.8652 21.3955C68.2252 21.3955 67.2543 20.703 67.2543 19.085C67.2543 16.821 68.8943 16.2428 71.5518 15.9188V21.0493ZM74.1849 22.0658V14.3473C74.1849 11.1356 72.1521 10.0502 69.5878 10.0502C67.6238 10.0502 66.1225 10.6051 65.3137 10.9969L65.9606 12.6149C66.7229 12.2454 67.8779 11.8525 69.0796 11.8525C70.5343 11.8525 71.5518 12.2909 71.5518 13.909V14.5793C67.7625 14.9488 64.5969 15.8966 64.5969 19.1771C64.5969 21.5808 66.2835 22.967 69.6799 22.967C71.6216 22.967 73.1918 22.5974 74.1849 22.0658ZM57.0661 10.0735C53.9237 9.98044 52.3526 10.3266 51.0588 10.9514V22.7361H53.8771V12.2221C54.5251 11.8525 55.5637 11.8059 56.5113 12.13L57.0661 10.0735ZM47.963 22.7361V10.2811H45.1446V22.7361H47.963ZM48.1017 6.74534C48.1017 5.96074 47.4315 5.33594 46.5538 5.33594C45.6994 5.33594 45.006 5.96074 45.006 6.74534C45.006 7.50784 45.6994 8.13254 46.5538 8.13254C47.4315 8.13254 48.1017 7.50784 48.1017 6.74534ZM39.4147 21.0493C38.9987 21.2568 38.3751 21.3955 37.7282 21.3955C36.0882 21.3955 35.1173 20.703 35.1173 19.085C35.1173 16.821 36.7573 16.2428 39.4147 15.9188V21.0493ZM42.0478 22.0658V14.3473C42.0478 11.1356 40.0161 10.0502 37.4508 10.0502C35.4868 10.0502 33.9855 10.6051 33.1766 10.9969L33.8235 12.6149C34.5858 12.2454 35.742 11.8525 36.9426 11.8525C38.3983 11.8525 39.4147 12.2909 39.4147 13.909V14.5793C35.6255 14.9488 32.4609 15.8966 32.4609 19.1771C32.4609 21.5808 34.1475 22.967 37.5439 22.967C39.4846 22.967 41.0547 22.5974 42.0478 22.0658Z" fill="#2E498E"/>
</g>
<defs>
<clipPath id="clip0_397_1442">
<rect width="128" height="32" fill="white" transform="translate(0.386719 0.5)"/>
</clipPath>
</defs>
</svg>
