<svg width="128" height="128" viewBox="0 0 128 128" fill="none" xmlns="http://www.w3.org/2000/svg">
<path fill-rule="evenodd" clip-rule="evenodd" d="M0 64.0485L25.1472 79.6803C25.7041 75.9 22.1986 73.6688 22.1658 73.3416C22.1277 72.9233 24.9566 71.8803 25.1652 69.018C25.5178 64.2402 18.9737 63.9362 18.7492 67.509C18.6296 69.377 20.709 69.4193 20.7736 68.0322C20.8636 66.1748 22.7883 66.5253 23.0869 68.6156C23.3886 70.7091 20.9493 71.5954 19.9742 71.5679C18.456 71.5213 16.4359 70.2845 16.2527 68.4568C15.9997 65.9397 18.8435 65.6146 15.1749 65.9249C13.734 66.0456 12.6827 65.2758 12.0135 64.0368C12.8446 62.8847 13.734 62.0842 15.1749 62.207C18.8435 62.5194 15.9997 62.1911 16.2527 59.6497C16.4359 57.8061 18.456 56.5556 19.9742 56.51C20.9493 56.4804 23.3886 57.3752 23.0869 59.4898C22.7883 61.5981 20.8636 61.9518 20.7736 60.0786C20.709 58.6766 18.6296 58.721 18.7492 60.607C18.9737 64.2116 25.5178 63.9066 25.1652 59.0832C24.9598 56.2516 22.2346 55.1821 22.1669 54.7427C22.1319 54.5108 25.6925 52.0615 25.1472 48.3203" fill="#9C8761"/>
<path d="M125.367 68.5498C124.951 68.7573 124.327 68.896 123.68 68.896C122.04 68.896 121.069 68.2035 121.069 66.5855C121.069 64.3215 122.709 63.7433 125.367 63.4193V68.5498ZM128 69.5663V61.8478C128 58.6361 125.967 57.5507 123.403 57.5507C121.439 57.5507 119.938 58.1056 119.129 58.4974L119.776 60.1154C120.538 59.7459 121.693 59.353 122.895 59.353C124.351 59.353 125.367 59.7914 125.367 61.4095V62.0798C121.578 62.4493 118.413 63.3971 118.413 66.6776C118.413 69.0813 120.099 70.4675 123.495 70.4675C125.437 70.4675 127.007 70.0979 128 69.5663ZM116.01 70.2366V61.3629C116.01 59.353 114.785 57.5507 111.065 57.5507C108.963 57.5507 107.369 57.897 106.191 58.4519V70.2366H109.009V59.676C109.541 59.4684 110.026 59.3297 110.95 59.3297C112.73 59.3297 113.191 60.3929 113.191 61.4095V70.2366H116.01ZM100.553 68.5498C100.138 68.7573 99.5146 68.896 98.8677 68.896C97.2266 68.896 96.2568 68.2035 96.2568 66.5855C96.2568 64.3215 97.8968 63.7433 100.553 63.4193V68.5498ZM103.188 69.5663V61.8478C103.188 58.6361 101.155 57.5507 98.5903 57.5507C96.6263 57.5507 95.125 58.1056 94.3161 58.4974L94.963 60.1154C95.7253 59.7459 96.8804 59.353 98.0821 59.353C99.5379 59.353 100.553 59.7914 100.553 61.4095V62.0798C96.765 62.4493 93.5994 63.3971 93.5994 66.6776C93.5994 69.0813 95.286 70.4675 98.6835 70.4675C100.623 70.4675 102.194 70.0979 103.188 69.5663ZM91.844 70.1212V68.3645C91.6132 68.4343 91.4279 68.4799 91.1738 68.4799C90.204 68.4799 89.8112 67.8329 89.8112 66.8618V59.5839H91.844V57.7816H89.8112V54.2458L86.9918 55.0316V57.7816H85.6059V59.5839H86.9918V67.0016C86.9918 68.734 87.9626 70.3753 90.4115 70.3753C91.0817 70.3753 91.5899 70.2366 91.844 70.1212ZM83.9193 66.6543C83.9193 65.1993 83.3656 63.9509 80.9389 62.9809C79.8537 62.5414 79.0914 62.0332 79.0914 61.0166C79.0914 60.1387 79.715 59.3763 80.8691 59.3763C81.7478 59.3763 82.4868 59.7692 82.8563 60.0689L83.5498 58.4286C82.7409 57.897 81.7023 57.5507 80.3154 57.5507C77.9353 57.5507 76.3652 59.1677 76.3652 61.1553C76.3652 62.4493 76.8501 63.7433 79.2068 64.6445C80.4773 65.1294 81.0321 65.6377 81.0321 66.7009C81.0321 67.7175 80.2688 68.4576 79.1147 68.4576C78.0973 68.4576 77.2429 68.1114 76.7813 67.7408L76.0412 69.543C76.7813 70.0513 78.0285 70.4442 79.4842 70.4442C82.2094 70.4442 83.9193 68.6885 83.9193 66.6543ZM71.1668 68.5498C70.7507 68.7573 70.1271 68.896 69.4802 68.896C67.8402 68.896 66.8693 68.2035 66.8693 66.5855C66.8693 64.3215 68.5093 63.7433 71.1668 63.4193V68.5498ZM73.7999 69.5663V61.8478C73.7999 58.6361 71.7671 57.5507 69.2028 57.5507C67.2388 57.5507 65.7375 58.1056 64.9287 58.4974L65.5756 60.1154C66.3379 59.7459 67.4929 59.353 68.6946 59.353C70.1493 59.353 71.1668 59.7914 71.1668 61.4095V62.0798C67.3775 62.4493 64.2119 63.3971 64.2119 66.6776C64.2119 69.0813 65.8985 70.4675 69.2949 70.4675C71.2366 70.4675 72.8068 70.0979 73.7999 69.5663ZM56.6811 57.574C53.5387 57.4809 51.9676 57.8271 50.6738 58.4519V70.2366H53.4921V59.7226C54.1401 59.353 55.1787 59.3064 56.1263 59.6305L56.6811 57.574ZM47.578 70.2366V57.7816H44.7596V70.2366H47.578ZM47.7167 54.2458C47.7167 53.4612 47.0465 52.8364 46.1688 52.8364C45.3144 52.8364 44.621 53.4612 44.621 54.2458C44.621 55.0083 45.3144 55.633 46.1688 55.633C47.0465 55.633 47.7167 55.0083 47.7167 54.2458ZM39.0297 68.5498C38.6137 68.7573 37.9901 68.896 37.3432 68.896C35.7032 68.896 34.7323 68.2035 34.7323 66.5855C34.7323 64.3215 36.3723 63.7433 39.0297 63.4193V68.5498ZM41.6628 69.5663V61.8478C41.6628 58.6361 39.6311 57.5507 37.0658 57.5507C35.1018 57.5507 33.6005 58.1056 32.7916 58.4974L33.4385 60.1154C34.2008 59.7459 35.357 59.353 36.5576 59.353C38.0133 59.353 39.0297 59.7914 39.0297 61.4095V62.0798C35.2405 62.4493 32.0759 63.3971 32.0759 66.6776C32.0759 69.0813 33.7625 70.4675 37.1589 70.4675C39.0996 70.4675 40.6697 70.0979 41.6628 69.5663Z" fill="#2E498E"/>
</svg>
