<svg width="129" height="33" viewBox="0 0 129 33" fill="none" xmlns="http://www.w3.org/2000/svg">
<g clip-path="url(#clip0_397_1426)">
<path fill-rule="evenodd" clip-rule="evenodd" d="M115.731 25.4206H117.726C117.937 25.4206 118.108 25.2496 118.108 25.0388V19.9042H121.518C125.295 19.9042 128.387 17.8938 128.387 14.0449C128.387 10.5393 125.86 8.25925 121.861 8.25925H115.731C115.377 8.25925 115.09 8.54594 115.09 8.89944V24.7802C115.09 25.134 115.377 25.4206 115.731 25.4206ZM57.0962 22.8551L57.0963 22.8652C57.0963 22.9903 57.0361 23.1014 56.9429 23.171C55.2579 24.5609 52.884 25.7147 49.9325 25.7147C44.5601 25.7147 41.0273 21.89 41.0273 16.8398C41.0273 12.0345 44.7073 7.96484 49.8836 7.96484C52.5716 7.96484 54.3296 8.63714 55.9398 9.85794L55.9431 9.86034C56.1049 9.97684 56.2103 10.1663 56.2103 10.3808C56.2103 10.5432 56.1498 10.6917 56.0499 10.8045L56.0549 10.804L54.8228 12.2721C54.7529 12.362 54.6437 12.4199 54.5209 12.4199C54.4323 12.4199 54.3505 12.3896 54.2856 12.3388L54.278 12.3328C53.0494 11.3459 51.7844 10.7351 49.7608 10.7351C46.5961 10.7351 44.192 13.5056 44.192 16.8398C44.192 20.3703 46.5224 22.9689 50.0308 22.9689C51.6499 22.9689 53.1219 22.4541 54.177 21.6694V18.4579H50.1673C49.9563 18.4579 49.7853 18.2869 49.7853 18.0761L49.7855 18.0662V16.2269L49.7853 16.2164C49.7853 16.0055 49.9563 15.8346 50.1673 15.8346H56.7143C56.9254 15.8349 57.0963 16.0057 57.0963 16.2165L57.0962 16.2263V22.8551ZM60.8456 25.4206H62.8406C63.0516 25.4206 63.2226 25.2496 63.2226 25.0388L63.2225 25.029V19.4384H66.9513L71.0358 25.1623L71.0365 25.1614C71.1532 25.3187 71.3404 25.4206 71.5514 25.4206H74.0362C74.2472 25.4206 74.4181 25.2496 74.4181 25.0388C74.4181 24.9496 74.3875 24.8675 74.336 24.8023L70.1406 18.9236C72.5448 18.2373 74.2377 16.5456 74.2377 13.7265C74.2377 10.4164 71.8825 8.25925 67.8591 8.25925H60.8541L60.8456 8.25895C60.4918 8.25895 60.2049 8.54585 60.2049 8.89935V24.7802C60.2049 25.134 60.4918 25.4206 60.8456 25.4206ZM63.2225 16.7661V11.3866C63.2225 11.1757 63.3935 11.0049 63.6046 11.0049H67.6137C69.8461 11.0049 71.171 12.0101 71.171 13.8486C71.171 15.6385 69.7972 16.7661 67.6383 16.7661H63.2225ZM85.3425 25.7147C90.6172 25.7147 94.3461 21.6694 94.3461 16.8398C94.3461 11.9611 90.6662 7.96484 85.3916 7.96484C80.117 7.96484 76.3881 12.0101 76.3881 16.8398C76.3881 21.7185 80.068 25.7147 85.3425 25.7147ZM85.3916 22.9446C81.9815 22.9446 79.5529 20.1739 79.5529 16.8398C79.5529 13.4565 81.9324 10.7351 85.3425 10.7351C88.7525 10.7351 91.1814 13.5056 91.1814 16.8398C91.1814 20.2231 88.8016 22.9446 85.3916 22.9446ZM104.226 25.6903C108.715 25.6903 111.61 23.1162 111.61 17.9921V8.89944C111.61 8.54594 111.323 8.25925 110.969 8.25925H108.974C108.763 8.25925 108.592 8.43005 108.592 8.64085V8.65075V18.1393C108.592 21.3016 106.949 22.9199 104.275 22.9199C101.576 22.9199 99.9326 21.2037 99.9326 18.0166V8.64085C99.9326 8.43005 99.7618 8.25925 99.5508 8.25925H97.5558C97.2018 8.25925 96.915 8.54594 96.915 8.89944V18.1393C96.915 23.1162 99.7609 25.6903 104.226 25.6903ZM118.108 17.1831V11.3866C118.108 11.1757 118.278 11.0049 118.489 11.0049H121.616C123.872 11.0049 125.32 12.059 125.32 14.0697C125.32 15.9081 123.898 17.1831 121.616 17.1831H118.108Z" fill="#15599D"/>
<path fill-rule="evenodd" clip-rule="evenodd" d="M25.6206 30.25C31.1215 28.2929 35.4194 23.8223 35.4194 16.8392C35.4194 9.85651 31.1215 5.38571 25.6203 3.42881C23.4665 2.66241 21.1271 2.27931 18.786 2.27931C16.4449 2.27931 14.1055 2.66241 11.9516 3.42881C6.45069 5.38571 2.15275 9.85651 2.15275 16.8392C2.15275 23.8223 6.4507 28.2929 11.9518 30.25C14.1056 31.0164 16.445 31.3997 18.7862 31.3997C21.1272 31.3997 23.4667 31.0164 25.6206 30.25ZM37.1857 16.8397C37.1857 38.3864 0.386719 38.3864 0.386719 16.8397C0.386719 -4.70699 37.1857 -4.70699 37.1857 16.8397ZM36.2235 16.8392C36.2235 24.22 31.6901 28.9421 25.8874 31.0067C23.6458 31.8043 21.2148 32.2031 18.7862 32.2031C16.3574 32.2031 13.9264 31.8043 11.6848 31.0067C5.88208 28.9421 1.34876 24.22 1.34876 16.8392C1.34876 9.45901 5.88208 4.73671 11.6847 2.67231C13.9263 1.87451 16.3573 1.47581 18.786 1.47581C21.2147 1.47581 23.6457 1.87451 25.8873 2.67231C31.6901 4.73671 36.2235 9.45901 36.2235 16.8392Z" fill="url(#paint0_linear_397_1426)"/>
<path fill-rule="evenodd" clip-rule="evenodd" d="M36.2224 16.84C36.2224 24.2208 31.689 28.9429 25.8863 31.0075C23.6447 31.8051 21.2137 32.2039 18.7851 32.2039C16.3563 32.2039 13.9253 31.8051 11.6837 31.0075C5.88098 28.9429 1.34766 24.2208 1.34766 16.84C1.34766 9.45976 5.88098 4.73746 11.6836 2.67306C13.9252 1.87526 16.3562 1.47656 18.7849 1.47656C21.2136 1.47656 23.6446 1.87526 25.8862 2.67306C31.689 4.73746 36.2224 9.45976 36.2224 16.84ZM25.6195 30.2508C31.1204 28.2937 35.4183 23.8231 35.4183 16.84C35.4183 9.85726 31.1204 5.38646 25.6192 3.42956C23.4654 2.66316 21.126 2.28006 18.7849 2.28006C16.4438 2.28006 14.1044 2.66316 11.9505 3.42956C6.44959 5.38646 2.15165 9.85726 2.15165 16.84C2.15165 23.8231 6.4496 28.2937 11.9507 30.2508C14.1045 31.0172 16.4439 31.4005 18.7851 31.4005C21.1261 31.4005 23.4656 31.0172 25.6195 30.2508Z" fill="#FEFEFE"/>
<path fill-rule="evenodd" clip-rule="evenodd" d="M9.30849 25.5077H16.3976C20.3167 25.5077 22.8959 23.9228 22.8959 20.752C22.8959 18.3735 21.6554 17.2097 19.6468 16.4416C20.8867 15.7479 21.929 14.6585 21.929 12.7011C21.929 9.44927 19.0942 8.16797 16.1992 8.16797H9.30849C8.95685 8.16797 8.67188 8.45287 8.67188 8.80437V24.8713C8.67188 25.2229 8.95685 25.5077 9.30849 25.5077ZM12.393 15.1785V11.8939C12.3931 11.6831 12.5639 11.5122 12.7749 11.5122H15.6287C17.2406 11.5122 18.1338 12.156 18.1338 13.296C18.1338 14.6334 17.0669 15.1785 15.3808 15.1785H12.393ZM12.393 21.7817V18.349H16.2735C18.2326 18.349 19.1007 19.0677 19.1007 20.2314C19.1007 21.5693 18.0837 22.1636 16.3976 22.1636H12.7749C12.5639 22.1636 12.393 21.9926 12.393 21.7817ZM25.4634 25.5077H28.2648C28.6164 25.5077 28.9013 25.223 28.9013 24.8714V8.80437C28.9011 8.45287 28.6164 8.16797 28.2648 8.16797H25.4634C25.2525 8.16797 25.0817 8.33877 25.0816 8.54977V25.126C25.0816 25.3369 25.2525 25.5077 25.4634 25.5077Z" fill="white"/>
</g>
<defs>
<linearGradient id="paint0_linear_397_1426" x1="79.2935" y1="21.4325" x2="69.7694" y2="-14.1178" gradientUnits="userSpaceOnUse">
<stop stop-color="#074C89"/>
<stop offset="1" stop-color="#2F83C5"/>
</linearGradient>
<clipPath id="clip0_397_1426">
<rect width="128" height="33" fill="white" transform="translate(0.386719)"/>
</clipPath>
</defs>
</svg>
