<svg width="128" height="128" viewBox="0 0 128 128" fill="none" xmlns="http://www.w3.org/2000/svg">
<path fill-rule="evenodd" clip-rule="evenodd" d="M0 70.0593V69.9795C0 62.1268 6.10549 55.4767 14.6965 55.4767C18.9712 55.4767 21.8202 56.4773 24.4263 58.3206C24.7414 58.551 24.9978 58.8524 25.1747 59.2004C25.3516 59.5484 25.444 59.9331 25.4444 60.3234C25.4444 61.6465 24.3456 62.7684 22.9606 62.7684C22.3093 62.7684 21.821 62.4875 21.4134 62.2066C19.5818 60.8853 17.5871 60.0026 14.4927 60.0026C9.24148 60.0026 5.2521 64.5311 5.2521 69.8989V69.9795C5.2521 75.7487 9.1192 79.9954 14.9411 79.9954C17.6279 79.9954 20.07 79.1544 21.821 77.872V72.6239H16.203C14.981 72.6239 13.9646 71.7031 13.9646 70.5014C13.9646 69.2989 14.981 68.3373 16.203 68.3373H24.1418C25.5658 68.3373 26.6655 69.4194 26.6655 70.8222V78.3134C26.6655 79.7153 26.0957 80.7176 24.9154 81.4381C22.4723 83.0413 19.0528 84.4831 14.7789 84.4831C5.86179 84.4823 0 78.2336 0 70.0593ZM31.1553 56.9585C31.1553 55.6363 32.2134 54.5542 33.5966 54.5542C34.9817 54.5542 36.0805 55.6363 36.0805 56.9585V81.7988C36.0805 83.1609 34.9808 84.2022 33.5966 84.2022C32.2541 84.2022 31.1553 83.1618 31.1553 81.7979V56.9585ZM39.8964 73.5456V73.4641C39.8964 67.4148 44.7808 62.4069 51.3763 62.4069C57.9709 62.4069 62.8162 67.3351 62.8162 73.3852V73.4641C62.8162 79.4752 57.931 84.4831 51.2947 84.4831C44.74 84.4831 39.8964 79.5549 39.8964 73.5456ZM57.8902 73.5456V73.4641C57.8902 69.7393 55.1618 66.6544 51.2947 66.6544C47.3453 66.6544 44.8215 69.6994 44.8215 73.3852V73.4641C44.8215 77.1507 47.5491 80.2356 51.3763 80.2356C55.3656 80.2356 57.8902 77.1906 57.8902 73.5456ZM75.1148 84.4025H74.8702C73.5277 84.4025 72.631 83.5615 72.0621 82.2783L64.8985 66.1325C64.7754 65.7718 64.6123 65.373 64.6123 64.9308C64.6123 63.7291 65.7111 62.6072 67.0545 62.6072C68.397 62.6072 69.0891 63.3684 69.4967 64.3707L75.0333 78.3923L80.6514 64.2909C81.0182 63.4491 81.6687 62.6072 82.9722 62.6072C84.3155 62.6072 85.3736 63.6095 85.3736 64.9308C85.3736 65.373 85.2114 65.8533 85.09 66.0926L77.9247 82.2791C77.3523 83.5207 76.4591 84.4025 75.1148 84.4025ZM87.1697 73.5456V73.4641C87.1697 67.4148 92.0549 62.4069 98.6521 62.4069C105.245 62.4069 110.09 67.3351 110.09 73.3852V73.4641C110.09 79.4752 105.205 84.4831 98.5689 84.4831C92.015 84.4831 87.1697 79.5549 87.1697 73.5456ZM105.165 73.5456V73.4641C105.165 69.7393 102.437 66.6544 98.5689 66.6544C94.6203 66.6544 92.0965 69.6994 92.0965 73.3852V73.4641C92.0965 77.1507 94.8232 80.2356 98.6513 80.2356C102.64 80.2356 105.165 77.1906 105.165 73.5456Z" fill="#00A082"/>
<path fill-rule="evenodd" clip-rule="evenodd" d="M118.327 43.2031C112.994 43.2031 108.655 47.475 108.655 52.7231C108.655 54.7224 109.286 56.642 110.479 58.2738L110.736 58.6249L115.772 65.6192C115.772 65.6192 116.387 66.6076 117.726 66.6076H118.929C120.27 66.6076 120.882 65.6192 120.882 65.6192L125.919 58.6249L126.174 58.2738C127.36 56.6659 128 54.7207 128 52.7231C128 47.475 123.661 43.2031 118.327 43.2031ZM122.308 55.534L122.04 55.9033L118.328 61.0595L114.622 55.9137L114.349 55.5401C113.746 54.7247 113.419 53.7374 113.418 52.7231C113.418 50.0587 115.621 47.8911 118.327 47.8911C121.034 47.8911 123.236 50.0587 123.236 52.7231C123.236 53.7332 122.915 54.7051 122.308 55.534ZM115.607 70.902V70.883C115.607 69.461 116.754 68.2827 118.304 68.2827C119.856 68.2827 120.993 69.4411 120.993 70.8639V70.883C120.993 72.2945 119.845 73.4719 118.286 73.4719C116.746 73.4719 115.606 72.3144 115.606 70.902H115.607Z" fill="#00A082"/>
</svg>
