<svg width="105" height="41" viewBox="0 0 105 41" fill="none" xmlns="http://www.w3.org/2000/svg">
<g clip-path="url(#clip0_397_1445)">
<path fill-rule="evenodd" clip-rule="evenodd" d="M0.386719 21.9033V21.8387C0.386719 15.4818 5.32926 10.0983 12.2839 10.0983C15.7444 10.0983 18.0507 10.9084 20.1604 12.4006C20.4155 12.5871 20.623 12.8311 20.7662 13.1128C20.9094 13.3945 20.9842 13.7059 20.9846 14.0219C20.9846 15.0929 20.0951 16.0012 18.9739 16.0012C18.4466 16.0012 18.0513 15.7738 17.7214 15.5464C16.2387 14.4767 14.6239 13.7622 12.1189 13.7622C7.86792 13.7622 4.63842 17.4281 4.63842 21.7735V21.8387C4.63842 26.509 7.76893 29.9468 12.4819 29.9468C14.6569 29.9468 16.6339 29.266 18.0513 28.2279V23.9794H13.5034C12.5142 23.9794 11.6914 23.234 11.6914 22.2612C11.6914 21.2878 12.5142 20.5093 13.5034 20.5093H19.9301C21.0828 20.5093 21.9731 21.3853 21.9731 22.5209V28.5852C21.9731 29.7201 21.5118 30.5315 20.5563 31.1147C18.5786 32.4125 15.8104 33.5797 12.3506 33.5797C5.13198 33.5791 0.386719 28.5206 0.386719 21.9033ZM25.6077 11.2979C25.6077 10.2275 26.4642 9.35156 27.584 9.35156C28.7052 9.35156 29.5947 10.2275 29.5947 11.2979V31.4067C29.5947 32.5094 28.7045 33.3523 27.584 33.3523C26.4972 33.3523 25.6077 32.5101 25.6077 31.406V11.2979ZM32.6838 24.7256V24.6596C32.6838 19.7625 36.6378 15.7085 41.9771 15.7085C47.3155 15.7085 51.2379 19.698 51.2379 24.5957V24.6596C51.2379 29.5257 47.2832 33.5797 41.911 33.5797C36.6048 33.5797 32.6838 29.5902 32.6838 24.7256ZM47.2502 24.7256V24.6596C47.2502 21.6443 45.0415 19.147 41.911 19.147C38.7139 19.147 36.6708 21.612 36.6708 24.5957V24.6596C36.6708 27.644 38.8788 30.1413 41.9771 30.1413C45.2065 30.1413 47.2502 27.6763 47.2502 24.7256ZM61.1939 33.5145H60.9959C59.9091 33.5145 59.1832 32.8337 58.7227 31.7949L52.9236 18.7245C52.8239 18.4325 52.6919 18.1096 52.6919 17.7517C52.6919 16.7789 53.5814 15.8707 54.6689 15.8707C55.7557 15.8707 56.316 16.4869 56.646 17.2983L61.128 28.6491L65.6759 17.2337C65.9729 16.5522 66.4995 15.8707 67.5547 15.8707C68.6421 15.8707 69.4987 16.682 69.4987 17.7517C69.4987 18.1096 69.3674 18.4985 69.2691 18.6922L63.4686 31.7955C63.0052 32.8006 62.2822 33.5145 61.1939 33.5145ZM70.9527 24.7256V24.6596C70.9527 19.7625 74.9074 15.7085 80.2479 15.7085C85.5851 15.7085 89.5072 19.698 89.5072 24.5957V24.6596C89.5072 29.5257 85.5527 33.5797 80.1806 33.5797C74.8751 33.5797 70.9527 29.5902 70.9527 24.7256ZM85.5203 24.7256V24.6596C85.5203 21.6443 83.3119 19.147 80.1806 19.147C76.9841 19.147 74.941 21.612 74.941 24.5957V24.6596C74.941 27.644 77.1484 30.1413 80.2473 30.1413C83.4762 30.1413 85.5203 27.6763 85.5203 24.7256Z" fill="#00A082"/>
<path fill-rule="evenodd" clip-rule="evenodd" d="M96.1735 0.164062C91.8563 0.164062 88.3438 3.62227 88.3438 7.87073C88.3438 9.48921 88.8546 11.0432 89.8203 12.3642L90.0284 12.6484L94.1051 18.3104C94.1051 18.3104 94.603 19.1106 95.6869 19.1106H96.6608C97.7464 19.1106 98.2418 18.3104 98.2418 18.3104L102.319 12.6484L102.526 12.3642C103.486 11.0625 104.004 9.48783 104.004 7.87073C104.004 3.62227 100.491 0.164062 96.1735 0.164062ZM99.3962 10.1462L99.1792 10.4452L96.1743 14.6192L93.1742 10.4536L92.9532 10.1512C92.465 9.49107 92.2003 8.69183 92.1995 7.87073C92.1995 5.71383 93.9829 3.95911 96.1735 3.95911C98.3648 3.95911 100.147 5.71383 100.147 7.87073C100.147 8.68843 99.8876 9.47521 99.3962 10.1462ZM93.9716 22.587V22.5716C93.9716 21.4205 94.9001 20.4666 96.1548 20.4666C97.4112 20.4666 98.3317 21.4043 98.3317 22.5561V22.5716C98.3317 23.7142 97.4023 24.6674 96.1403 24.6674C94.8936 24.6674 93.9716 23.7304 93.9716 22.587Z" fill="#00A082"/>
</g>
<defs>
<clipPath id="clip0_397_1445">
<rect width="104" height="41" fill="white" transform="translate(0.386719)"/>
</clipPath>
</defs>
</svg>
