<svg width="57" height="37" viewBox="0 0 57 37" fill="none" xmlns="http://www.w3.org/2000/svg">
<g clip-path="url(#clip0_397_1454)">
<path fill-rule="evenodd" clip-rule="evenodd" d="M18.4563 0.0975987C17.2909 0.304534 15.966 0.872881 15.0916 1.54099C14.2308 2.19871 13.4163 3.17794 12.9589 4.10501C12.1701 5.70358 12.0383 7.68577 12.6092 9.36156C12.8182 9.9751 12.9171 10.203 13.1572 10.6239L13.3555 10.9715H15.1513H16.9471L16.5005 10.5129C15.5647 9.55167 15.1628 8.48281 15.2217 7.11104C15.2964 5.3671 16.2549 3.94481 17.8626 3.19234C18.4816 2.9026 18.9794 2.79838 19.7448 2.79838C20.5215 2.79838 21.05 2.92233 21.7418 3.26678C22.649 3.7184 23.3195 4.39722 23.7782 5.32821C24.1451 6.07305 24.2201 6.41174 24.2213 7.32978C24.2222 7.97367 24.2009 8.18311 24.0982 8.54179C23.8683 9.34518 23.4285 10.0755 22.8277 10.6519L22.4944 10.9715H24.3011H26.1078L26.3869 10.4295C26.9458 9.34399 27.181 8.3934 27.1827 7.21389C27.1877 3.81143 24.8707 0.999209 21.3833 0.174858C20.7745 0.0309545 19.0829 -0.0137097 18.4563 0.0975987ZM1.03441 5.71737V10.9715H2.33034H3.62628V8.99777V7.024H5.7494H7.87254V8.99777V10.9715H9.16846H10.4644V5.71737V0.463194H9.16846H7.87254V2.57598V4.68877H5.7494H3.62628V2.57598V0.463194H2.33034H1.03441V5.71737ZM28.9935 5.71737V10.9715H30.2889H31.5843L31.5986 8.35477L31.613 5.73794L32.771 7.54891L33.9291 9.35985L34.643 9.34562L35.357 9.33139L36.4904 7.56856L37.6239 5.80573L37.6382 8.38868L37.6526 10.9715H38.9755H40.2985V5.71737V0.463194H39.3122H38.3259L36.4973 3.24322C35.4915 4.7722 34.6511 6.02192 34.6297 6.02033C34.6083 6.01879 33.7719 4.76806 32.771 3.24101L30.9512 0.464559L29.9724 0.463854L28.9935 0.463194V5.71737ZM42.4492 5.71737V10.9715H46.392H50.3351V9.83177V8.69199H47.6883H45.041V7.80298V6.91401L47.3434 6.89948L49.6457 6.88499V5.773V4.66098L47.3434 4.64648L45.041 4.63195V3.68739V2.74279H47.6883H50.3351V1.60301V0.463194H46.392H42.4492V5.71737ZM17.3025 8.42009C17.3025 8.58474 17.6813 9.1659 17.9687 9.44235C18.9856 10.4202 20.5833 10.3907 21.5591 9.37601C21.7778 9.14855 22.1554 8.55029 22.1554 8.43115C22.1554 8.3723 21.6915 8.35838 19.729 8.35838C17.9878 8.35838 17.3025 8.37578 17.3025 8.42009ZM4.85638 13.3302C3.68203 13.5554 2.73561 14.041 1.95155 14.8207C0.83136 15.9346 0.274659 17.5587 0.432653 19.2518C0.670443 21.7997 2.43551 23.6866 4.9632 24.0949C5.6495 24.2057 6.90067 24.1391 7.51408 23.9589C9.27132 23.4428 10.4741 22.2402 10.9805 20.493L11.0651 20.2011H9.69721H8.32936L8.12987 20.5271C7.65036 21.3103 6.91151 21.7023 5.91484 21.7023C4.5668 21.7023 3.53937 20.9272 3.1512 19.6173C3.0163 19.1623 3.0163 18.2376 3.1512 17.7825C3.37525 17.0265 3.92561 16.3294 4.55053 16.0101C5.11419 15.7221 5.91652 15.6223 6.5601 15.7601C7.22839 15.9032 7.88333 16.3944 8.1722 16.9691L8.31557 17.2543H9.69435H11.0731L11.0369 17.1014C10.9487 16.7292 10.6671 16.0354 10.4684 15.7007C9.80231 14.5793 8.77829 13.8052 7.47986 13.4417C7.05154 13.3217 6.81575 13.2931 6.10786 13.2755C5.53123 13.2611 5.12401 13.2789 4.85638 13.3302ZM12.56 18.695V23.9819H13.8559H15.1518V22.4529V20.9239H16.1334H17.1149L18.1048 22.4526L19.0948 23.9813L20.5975 23.9816C21.424 23.9818 22.1002 23.9675 22.1002 23.95C22.1002 23.9323 21.5556 23.1037 20.8899 22.1085L19.6795 20.2991L19.9938 20.0656C20.8872 19.4017 21.4385 18.2894 21.4385 17.1504C21.4385 16.3234 21.1009 15.3667 20.6057 14.79C20.1196 14.2242 19.298 13.7741 18.3503 13.5543C17.9986 13.4728 17.5347 13.4547 15.2483 13.4333L12.56 13.408V18.695ZM23.4057 13.4546C23.3853 13.4752 23.3686 15.8523 23.3686 18.737V23.9819H27.3391H31.3097V22.8421V21.7023H28.6351H25.9605V20.7849V19.8675H28.3042H30.6479V18.7556V17.6435H28.3029H25.9579L25.9729 16.6844L25.988 15.7253L28.65 15.7109L31.3119 15.6965L31.297 14.5711L31.2821 13.4457L27.3625 13.4315C25.2067 13.4236 23.4262 13.4341 23.4057 13.4546ZM33.0192 18.7047V23.9914L35.5973 23.9659C37.7333 23.9448 38.2415 23.9247 38.5614 23.8489C40.7544 23.3288 42.1463 22.0573 42.6806 20.0862C42.7918 19.6759 42.8071 19.4958 42.8034 18.6443C42.7996 17.7547 42.7866 17.6295 42.6515 17.1831C42.0046 15.0448 40.3057 13.728 37.8679 13.4758C37.5604 13.444 36.3437 13.418 35.164 13.418H33.0192V18.7047ZM44.269 18.6999V23.9819H45.5647H46.8611V18.6999V13.418H45.5647H44.269V18.6999ZM48.2397 14.6134V15.8088H49.7286H51.2174V19.8953V23.9819H52.5132H53.8091V19.8953V15.8088H55.2984H56.7872V14.6134V13.418H52.5132H48.2397V14.6134ZM17.8674 15.8873C18.0114 15.9415 18.2532 16.0984 18.4051 16.2359C19.1813 16.9396 18.8617 18.0737 17.7831 18.4429C17.5719 18.5151 17.2829 18.5332 16.3355 18.5332H15.1518V17.1385V15.7439L16.3788 15.7663C17.3785 15.7846 17.6543 15.807 17.8674 15.8873ZM37.9696 15.8926C39.8004 16.3278 40.7305 18.2694 39.9137 19.9509C39.5753 20.6476 39.0476 21.1262 38.2856 21.4273C37.9832 21.5469 37.8541 21.5599 36.7829 21.5794L35.611 21.6007V18.7047V15.8088L36.6175 15.8096C37.3102 15.8101 37.7317 15.836 37.9696 15.8926ZM1.1447 31.6794V36.9369L3.66764 36.9492C7.24209 36.9664 7.29151 36.9637 8.15885 36.6792C9.37677 36.2806 10.1335 35.2785 10.1335 34.0643C10.1335 32.8442 9.5282 31.9762 8.39644 31.5737C8.29927 31.5391 8.31143 31.5212 8.49859 31.4235C8.77076 31.2814 9.14019 30.9088 9.3262 30.5888C9.50094 30.2881 9.69267 29.5664 9.69153 29.2133C9.69047 28.8845 9.56212 28.3383 9.40654 28.0005C9.21656 27.5882 8.6694 27.0695 8.19246 26.8497C7.34604 26.4597 7.39194 26.4643 4.10881 26.4421L1.1447 26.4221V31.6794ZM14.6593 26.5534C14.6324 26.6222 13.6402 28.978 12.4543 31.7886C11.2683 34.5993 10.3079 36.9087 10.32 36.9206C10.3321 36.9329 10.9516 36.9479 11.6965 36.9536L13.0511 36.9646L13.3925 36.0608L13.7337 35.1573H15.9502H18.1667L18.5204 36.0608L18.8742 36.9637L20.242 36.9646C21.5767 36.9655 21.6092 36.9629 21.5814 36.8558C21.5657 36.7955 20.578 34.4244 19.3864 31.5872L17.2198 26.4283H15.9639C14.7126 26.4283 14.7077 26.4287 14.6593 26.5534ZM22.4863 31.6825V36.9369H23.8093H25.1323L25.1466 34.0959L25.1609 31.2552L27.5321 33.9901C28.8363 35.4943 29.9418 36.7743 29.9888 36.8342C30.0668 36.9338 30.1565 36.9444 31.0366 36.958C31.5659 36.9664 32.03 36.9624 32.0679 36.9492C32.1224 36.9298 32.1369 35.8251 32.1369 31.6765V26.4283H30.8414H29.546L29.5317 29.3812L29.5174 32.3342L27.0119 29.3812L24.5064 26.4283H23.4963H22.4863V31.6825ZM34.2875 31.6825V36.9369H35.5835H36.8794V35.874V34.8111L37.5501 34.0252C37.919 33.593 38.262 33.1944 38.3124 33.1395C38.3989 33.0452 38.4787 33.1456 39.7786 34.9851L41.1532 36.9307L42.7943 36.9338L44.4353 36.9369L44.0588 36.4224C43.8518 36.1396 42.8835 34.8129 41.907 33.474L40.1318 31.0399L41.9604 28.9148C42.9662 27.746 43.8647 26.7084 43.9571 26.609L44.1252 26.4283H42.5718H41.0185L38.9627 28.8126L36.907 31.1968L36.8926 28.8126L36.8782 26.4283H35.5829H34.2875V31.6825ZM6.50372 28.6826C7.30565 28.9581 7.44462 29.9228 6.75836 30.4505C6.43346 30.7004 6.03637 30.7651 4.82792 30.7651H3.73657V29.6809V28.5967H4.99513C5.98545 28.5967 6.30691 28.615 6.50372 28.6826ZM16.6723 31.2951C17.0189 32.1959 17.3025 32.9455 17.3025 32.961C17.3025 33.0015 14.9324 32.9828 14.7552 32.9408L14.6067 32.9057L15.2282 31.2933C15.57 30.4065 15.8681 29.6309 15.8905 29.5697C15.9289 29.4649 15.9345 29.4643 15.9866 29.5579C16.0171 29.6125 16.3256 30.3943 16.6723 31.2951ZM6.58023 32.7153C7.02048 32.7959 7.34947 32.9962 7.48664 33.2673C7.73088 33.75 7.55126 34.2777 7.04396 34.568L6.74206 34.7407L5.23929 34.7578L3.73657 34.775V33.7151V32.6555H4.99478C5.68681 32.6555 6.40029 32.6824 6.58023 32.7153Z" fill="#E11831"/>
</g>
<defs>
<clipPath id="clip0_397_1454">
<rect width="56.3809" height="37" fill="white" transform="translate(0.40625)"/>
</clipPath>
</defs>
</svg>
