<svg width="128" height="128" viewBox="0 0 128 128" fill="none" xmlns="http://www.w3.org/2000/svg">
<path fill-rule="evenodd" clip-rule="evenodd" d="M40.9784 22.2199C38.3327 22.6897 35.3249 23.98 33.3397 25.4968C31.3855 26.99 29.5364 29.2131 28.498 31.3178C26.7072 34.947 26.4078 39.4471 27.7039 43.2516C28.1784 44.6445 28.403 45.162 28.9481 46.1174L29.3983 46.9067H33.4753H37.5522L36.5384 45.8654C34.4137 43.6832 33.5014 41.2566 33.635 38.1423C33.8046 34.1831 35.9808 30.9541 39.6306 29.2458C41.036 28.588 42.1661 28.3514 43.9037 28.3514C45.667 28.3514 46.8669 28.6328 48.4375 29.4148C50.497 30.4401 52.0193 31.9812 53.0606 34.0948C53.8937 35.7858 54.0639 36.5547 54.0666 38.6389C54.0686 40.1007 54.0202 40.5762 53.7871 41.3905C53.2651 43.2144 52.2667 44.8725 50.9028 46.1809L50.1461 46.9067H54.2478H58.3495L58.9832 45.676C60.2519 43.2117 60.786 41.0536 60.7899 38.3758C60.8011 30.6513 55.541 24.2668 47.6237 22.3953C46.2415 22.0686 42.401 21.9672 40.9784 22.2199ZM1.42609 34.9783V46.9067H4.36821H7.31034V42.4257V37.9447H12.1304H16.9505V42.4257V46.9067H19.8926H22.8347V34.9783V23.0499H19.8926H16.9505V27.8465V32.6431H12.1304H7.31034V27.8465V23.0499H4.36821H1.42609V34.9783ZM64.9008 34.9783V46.9067H67.8417H70.7826L70.8151 40.9659L70.8477 35.025L73.4768 39.1364L76.1059 43.2477L77.7267 43.2154L79.3477 43.1831L81.9208 39.181L84.4941 35.1789L84.5267 41.0429L84.5592 46.9067H87.5627H90.5662V34.9783V23.0499H88.327H86.0878L81.9364 29.3613C79.653 32.8325 77.7451 35.6697 77.6966 35.6661C77.648 35.6626 75.7491 32.8231 73.4768 29.3563L69.3453 23.053L67.1231 23.0514L64.9008 23.0499V34.9783ZM95.4488 34.9783V46.9067H104.4H113.352V44.3191V41.7315H107.343H101.333V39.7132V37.695L106.56 37.662L111.787 37.6291V35.1046V32.58L106.56 32.5471L101.333 32.5141V30.3697V28.2252H107.343H113.352V25.6376V23.0499H104.4H95.4488V34.9783ZM38.3591 41.1142C38.3591 41.488 39.219 42.8074 39.8716 43.435C42.1801 45.6551 45.8073 45.5881 48.0227 43.2844C48.5193 42.768 49.3764 41.4098 49.3764 41.1393C49.3764 41.0057 48.3233 40.9741 43.8678 40.9741C39.9148 40.9741 38.3591 41.0136 38.3591 41.1142ZM10.103 52.2615C7.43691 52.7727 5.28828 53.8752 3.50824 55.6453C0.965114 58.1741 -0.298747 61.8613 0.059942 65.7052C0.59979 71.4896 4.60696 75.7732 10.3455 76.7002C11.9036 76.9518 14.7441 76.8005 16.1367 76.3915C20.1261 75.2199 22.8568 72.4896 24.0063 68.523L24.1984 67.8603H21.093H17.9876L17.5347 68.6003C16.4461 70.3784 14.7687 71.2685 12.506 71.2685C9.44557 71.2685 7.11303 69.5087 6.23177 66.535C5.92553 65.5019 5.92553 63.4025 6.23177 62.3695C6.74044 60.6531 7.9899 59.0704 9.40863 58.3455C10.6883 57.6918 12.5098 57.4652 13.9709 57.778C15.4881 58.1028 16.975 59.218 17.6308 60.5227L17.9563 61.1703H21.0865H24.2167L24.1344 60.8232C23.9343 59.9781 23.295 58.403 22.8437 57.6432C21.3316 55.0972 19.0068 53.3399 16.059 52.5145C15.0866 52.2422 14.5513 52.1773 12.9442 52.1373C11.6351 52.1046 10.7106 52.145 10.103 52.2615ZM27.5922 64.441V76.4437H30.5343H33.4765V72.9725V69.5013H35.7048H37.9331L40.1806 72.9719L42.428 76.4424L45.8396 76.4431C47.7161 76.4435 49.2512 76.4111 49.2512 76.3712C49.2512 76.3312 48.0147 74.45 46.5034 72.1907L43.7555 68.0828L44.469 67.5527C46.4974 66.0455 47.7489 63.5202 47.7489 60.9343C47.7489 59.0569 46.9824 56.8848 45.8582 55.5757C44.7546 54.291 42.8895 53.2692 40.7379 52.7703C39.9394 52.5853 38.8862 52.5441 33.6955 52.4955L27.5922 52.4382V64.441ZM52.215 52.544C52.1687 52.5907 52.1308 57.9873 52.1308 64.5364V76.4437H61.1449H70.1591V73.8561V71.2685H64.0871H58.015V69.1857V67.103H63.3359H68.6567V64.5785V62.0539H63.3329H58.0091L58.0433 59.8765L58.0776 57.6991L64.121 57.6663L70.1642 57.6336L70.1304 55.0786L70.0965 52.5238L61.1979 52.4914C56.3037 52.4736 52.2615 52.4973 52.215 52.544ZM74.0402 64.463V76.4652L79.8932 76.4073C84.7426 76.3594 85.8963 76.3139 86.6225 76.1417C91.6013 74.961 94.7613 72.0744 95.9742 67.5994C96.2266 66.6679 96.2614 66.259 96.2531 64.326C96.2443 62.3063 96.2148 62.0221 95.9082 61.0085C94.4396 56.154 90.5825 53.1647 85.048 52.592C84.35 52.5198 81.5878 52.4607 78.9096 52.4607H74.0402V64.463ZM99.5803 64.4522V76.4437H102.522H105.465V64.4522V52.4607H102.522H99.5803V64.4522ZM108.595 55.1746V57.8885H111.975H115.355V67.1661V76.4437H118.297H121.239V67.1661V57.8885H124.62H128V55.1746V52.4607H118.297H108.595V55.1746ZM39.6416 58.0668C39.9684 58.1898 40.5175 58.546 40.8622 58.8582C42.6245 60.4558 41.8988 63.0304 39.4502 63.8686C38.9707 64.0327 38.3146 64.0736 36.1638 64.0736H33.4765V60.9074V57.7413L36.2621 57.7921C38.5316 57.8337 39.1578 57.8845 39.6416 58.0668ZM85.279 58.0788C89.4353 59.0668 91.547 63.4749 89.6927 67.2923C88.9243 68.8739 87.7263 69.9604 85.9965 70.6441C85.3098 70.9155 85.0168 70.9452 82.5849 70.9894L79.9244 71.0377V64.4631V57.8885L82.2093 57.8903C83.7819 57.8916 84.7388 57.9503 85.279 58.0788ZM1.67648 93.9191V105.855L7.40423 105.883C15.5192 105.922 15.6314 105.916 17.6005 105.27C20.3655 104.365 22.0835 102.09 22.0835 99.3335C22.0835 96.5635 20.7093 94.593 18.1399 93.6791C17.9193 93.6006 17.9469 93.5599 18.3718 93.3382C18.9897 93.0155 19.8284 92.1696 20.2507 91.4431C20.6474 90.7605 21.0827 89.1221 21.0801 88.3204C21.0777 87.5739 20.7863 86.3339 20.4331 85.567C20.0018 84.6309 18.7596 83.4535 17.6768 82.9545C15.7552 82.069 15.8594 82.0794 8.40581 82.0291L1.67648 81.9837V93.9191ZM32.3582 82.2817C32.2973 82.438 30.0447 87.7863 27.3523 94.167C24.6598 100.548 22.4794 105.791 22.5068 105.818C22.5344 105.846 23.9407 105.88 25.632 105.893L28.7073 105.918L29.4822 103.866L30.257 101.815H35.2889H40.321L41.1241 103.866L41.9272 105.916L45.0326 105.918C48.0626 105.92 48.1364 105.914 48.0733 105.671C48.0377 105.534 45.7953 100.151 43.0901 93.7098L38.1713 81.9978H35.32C32.4793 81.9977 32.4682 81.9987 32.3582 82.2817ZM50.1276 93.9261V105.855H53.1312H56.1348L56.1672 99.4052L56.1997 92.956L61.5831 99.165C64.544 102.58 67.0537 105.486 67.1604 105.622C67.3375 105.848 67.5411 105.872 69.5391 105.903C70.7408 105.922 71.7945 105.913 71.8806 105.883C72.0042 105.839 72.0371 103.331 72.0371 93.9126V81.9977H69.0961H66.1551L66.1226 88.7016L66.0902 95.4056L60.402 88.7016L54.7138 81.9977H52.4207H50.1276V93.9261ZM76.9197 93.9261V105.855H79.8618H82.804V103.442V101.029L84.3266 99.2448C85.1642 98.2634 85.9429 97.3586 86.0572 97.234C86.2536 97.0198 86.4347 97.2478 89.3858 101.424L92.5067 105.841L96.2323 105.848L99.9579 105.855L99.1032 104.687C98.6331 104.045 96.4348 101.033 94.218 97.9933L90.1877 92.4672L94.3392 87.6427C96.6226 84.9892 98.6625 82.6336 98.8723 82.408L99.2538 81.9977H95.7273H92.2007L87.5337 87.4106L82.8666 92.8234L82.8339 87.4106L82.8013 81.9977H79.8605H76.9197V93.9261ZM13.8429 87.1156C15.6635 87.741 15.979 89.9311 14.421 91.1292C13.6834 91.6965 12.7819 91.8434 10.0384 91.8434H7.56073V89.382V86.9206H10.418C12.6663 86.9206 13.3961 86.9621 13.8429 87.1156ZM36.9283 93.0466C37.7152 95.0916 38.3591 96.7935 38.3591 96.8286C38.3591 96.9206 32.9783 96.8781 32.576 96.7829L32.2389 96.7031L33.6499 93.0425C34.4258 91.0292 35.1025 89.2684 35.1535 89.1295C35.2406 88.8917 35.2534 88.8902 35.3717 89.1028C35.4408 89.2268 36.1413 91.0016 36.9283 93.0466ZM14.0166 96.271C15.0161 96.4539 15.763 96.9087 16.0744 97.524C16.6289 98.6199 16.2211 99.818 15.0694 100.477L14.384 100.869L10.9723 100.908L7.56073 100.947V98.5408V96.1351H10.4172C11.9883 96.1351 13.6081 96.1963 14.0166 96.271Z" fill="#E11831"/>
</svg>
