<svg width="128" height="128" viewBox="0 0 128 128" fill="none" xmlns="http://www.w3.org/2000/svg">
<path fill-rule="evenodd" clip-rule="evenodd" d="M16.4921 67.7108C17.1946 67.3537 17.6378 66.6314 17.639 65.8414V55.6537L14.6284 57.1667C13.9241 57.5216 13.4801 58.2455 13.4816 59.0362V69.2182L16.4921 67.7108ZM10.2531 70.8402C10.9547 70.485 11.3979 69.7649 11.4 68.9764L11.3943 64.524L8.38369 66.0311C7.68124 66.3883 7.23806 67.1108 7.23681 67.9008V72.3473L10.2531 70.8402ZM3.38903 51.5234H21.4868C23.3581 51.5265 24.8753 53.046 24.8816 54.9231V73.0779C24.8784 74.9574 23.3604 76.4802 21.4868 76.4834H3.38903C1.5164 76.4802 0 74.9565 0 73.0779V54.9231C0.00315933 53.0469 1.51864 51.5267 3.38903 51.5234ZM122.28 65.3153V53.5289L128 53.5457V74.4453H122.277L121.62 73.2851C119.943 70.3216 115.661 62.7549 115.6 62.6589V74.4486H109.877V53.5457H115.6C115.6 53.5457 122.024 64.8994 122.28 65.3153ZM65.5503 53.5557V56.4805H65.557V66.1571C65.5617 67.3115 65.388 68.4599 65.0419 69.5616C64.7171 70.5956 64.1703 71.5466 63.4393 72.3488C62.812 73.0703 62.031 73.6433 61.1533 74.0259C59.8622 74.5056 58.4906 74.7332 57.1132 74.6969C56.1098 74.6901 55.1078 74.6196 54.1135 74.4856C53.1703 74.39 52.2552 74.1108 51.42 73.6638C50.6593 73.2135 49.9937 72.6198 49.4606 71.9162C48.904 71.2311 48.4907 70.4419 48.2452 69.5951C47.9135 68.4702 47.7335 67.306 47.7099 66.1336V53.5557H53.2448V66.8011C53.1908 67.7481 53.5152 68.6778 54.1471 69.3873C54.8135 70.0271 55.7029 70.3847 56.6284 70.3847C57.5539 70.3847 58.4433 70.0271 59.1097 69.3873C59.4253 69.0343 59.6677 68.6225 59.8232 68.1759C59.9786 67.7291 60.0439 67.2562 60.0154 66.7844V53.5557H65.5503ZM107.998 74.4453H102.291L101.123 71.5976H91.9725L90.8042 74.4453H85.0809L93.6694 53.5457H99.4097L107.998 74.4453ZM96.5276 60.4819L93.5211 67.7975H99.5309L96.5276 60.4819ZM85.2288 69.4878C85.3636 68.3387 85.2731 67.1746 84.963 66.0599V66.0633C84.7151 65.2248 84.227 64.4764 83.5589 63.9099C83.4478 63.8226 83.3367 63.7355 83.2222 63.6515C82.4051 63.0818 81.483 62.6783 80.5086 62.4643C79.5635 62.2476 78.6119 62.063 77.6594 61.8785C77.2411 61.7975 76.8226 61.7163 76.4045 61.6325C76.264 61.604 76.1104 61.5757 75.9492 61.5461C75.2916 61.4251 74.5091 61.2813 73.9872 61.0118C73.7774 60.9268 73.5896 60.7957 73.4376 60.6286C73.2856 60.4614 73.1732 60.2623 73.1086 60.046C73.0178 59.6804 73.0178 59.298 73.1086 58.9324C73.2971 58.2951 73.7517 57.9195 74.5799 57.7214C75.8428 57.4331 77.155 57.4331 78.4179 57.7214C79.5359 57.9865 79.9733 58.5802 79.9902 59.7004V60.1063H85.2626C85.2758 59.5715 85.2599 59.0362 85.2153 58.503C85.1488 57.6579 84.8627 56.8448 84.3851 56.1432C83.9075 55.4417 83.255 54.8759 82.4916 54.5015C81.098 53.7468 79.5693 53.4752 78.0038 53.3611C76.9953 53.288 75.9826 53.288 74.9738 53.3611C73.4082 53.4752 71.8799 53.7468 70.4859 54.5015C69.7273 54.8763 69.0792 55.4402 68.6043 56.1384C68.1294 56.8368 67.844 57.6455 67.7758 58.4862C67.7413 58.8205 67.7268 59.1565 67.7319 59.4925C67.7136 60.2577 67.8183 61.0208 68.0416 61.7531C68.2881 62.5923 68.7762 63.341 69.4456 63.9066C69.551 63.9982 69.6632 64.0855 69.7824 64.1682C70.5998 64.7371 71.5218 65.1395 72.4959 65.3521C73.4411 65.5689 74.3927 65.7534 75.3452 65.938C75.7635 66.019 76.1819 66.1001 76.6001 66.1839C76.7536 66.215 76.926 66.2459 77.1084 66.2786C77.7742 66.3976 78.5746 66.5411 79.0846 66.8044C79.2944 66.8897 79.4822 67.0207 79.6342 67.1879C79.7865 67.355 79.899 67.5541 79.9632 67.7705C80.0033 67.94 80.026 68.113 80.0307 68.2871C80.0104 69.32 79.5828 69.9977 78.428 70.2693C77.1651 70.5595 75.8526 70.5595 74.5901 70.2693C73.4687 70.0043 73.0347 69.4108 73.0178 68.2904V67.8845H67.7285C67.7153 68.4195 67.7312 68.9546 67.7758 69.4878C67.8423 70.3329 68.1284 71.1462 68.606 71.8476C69.0836 72.5491 69.7361 73.1149 70.4994 73.4892C71.8934 74.244 73.4218 74.5156 74.9873 74.6331C75.9962 74.7028 77.0084 74.7028 78.0173 74.6331C79.5828 74.5156 81.1115 74.244 82.5051 73.4892C83.2685 73.1149 83.921 72.5491 84.3986 71.8476C84.8762 71.1462 85.1623 70.3329 85.2288 69.4878ZM40.0407 56.6692C40.3202 56.2189 40.72 55.8552 41.1952 55.6184L45.3397 53.5557V67.4921V67.5559V67.9818C45.3734 69.0584 45.1844 70.1307 44.7842 71.1314C44.1075 72.6944 42.8752 73.6 41.2693 74.0562C40.5178 74.2695 39.7411 74.3822 38.9597 74.3916H35.5055H31.9906V69.6959H37.4581C38.6971 69.6154 39.4075 68.8068 39.5523 67.5692C39.5926 67.204 39.6128 66.8366 39.6129 66.469V58.1676C39.6131 57.6383 39.7612 57.1195 40.0407 56.6692Z" fill="#F05323"/>
</svg>
