<svg width="114" height="23" viewBox="0 0 114 23" fill="none" xmlns="http://www.w3.org/2000/svg">
<g clip-path="url(#clip0_397_1448)">
<path fill-rule="evenodd" clip-rule="evenodd" d="M14.9759 14.7845C15.5973 14.4686 15.9894 13.8296 15.9905 13.1308V4.11857L13.3272 5.45699C12.7042 5.77094 12.3114 6.41132 12.3127 7.11078V16.1179L14.9759 14.7845ZM9.45677 17.5528C10.0774 17.2386 10.4695 16.6016 10.4713 15.904L10.4663 11.9654L7.80306 13.2986C7.18166 13.6146 6.78962 14.2537 6.78851 14.9525V18.886L9.45677 17.5528ZM3.38471 0.464844H19.3943C21.0497 0.467586 22.3918 1.81176 22.3974 3.47227V19.5323C22.3945 21.1949 21.0517 22.542 19.3943 22.5448H3.38471C1.72815 22.542 0.386719 21.1941 0.386719 19.5323V3.47227C0.389514 1.81256 1.73013 0.467763 3.38471 0.464844ZM108.557 12.6654V2.23894L113.617 2.2538V20.7419H108.555L107.974 19.7156C106.49 17.094 102.702 10.4004 102.648 10.3155V20.7448H97.5856V2.2538H102.648C102.648 2.2538 108.331 12.2975 108.557 12.6654ZM58.3735 2.26265V4.84997H58.3795V13.41C58.3836 14.4312 58.23 15.4471 57.9238 16.4217C57.6365 17.3364 57.1528 18.1777 56.5061 18.8873C55.9512 19.5256 55.2603 20.0324 54.4839 20.3709C53.3417 20.7953 52.1284 20.9966 50.9099 20.9645C50.0223 20.9585 49.1359 20.8961 48.2564 20.7776C47.422 20.693 46.6125 20.446 45.8736 20.0506C45.2007 19.6522 44.6119 19.127 44.1403 18.5046C43.648 17.8986 43.2823 17.2004 43.0652 16.4513C42.7717 15.4562 42.6125 14.4264 42.5916 13.3893V2.26265H47.4879V13.9797C47.4401 14.8175 47.7271 15.6399 48.2861 16.2675C48.8756 16.8335 49.6624 17.1498 50.4811 17.1498C51.2998 17.1498 52.0866 16.8335 52.6761 16.2675C52.9553 15.9553 53.1697 15.591 53.3072 15.1959C53.4447 14.8007 53.5025 14.3823 53.4773 13.965V2.26265H58.3735ZM95.9234 20.7419H90.8749L89.8417 18.2228H81.747L80.7135 20.7419H75.6506L83.2481 2.2538H88.3261L95.9234 20.7419ZM85.7765 8.38967L83.1169 14.8612H88.4333L85.7765 8.38967ZM75.7814 16.3564C75.9007 15.3399 75.8206 14.3101 75.5463 13.3241V13.3271C75.327 12.5853 74.8952 11.9233 74.3042 11.4221C74.2059 11.3449 74.1076 11.2679 74.0064 11.1935C73.2835 10.6896 72.4678 10.3326 71.6059 10.1433C70.7698 9.95163 69.928 9.78834 69.0854 9.62513C68.7154 9.55347 68.3452 9.48164 67.9753 9.40751C67.851 9.3823 67.7152 9.35726 67.5726 9.33108C66.9908 9.22404 66.2986 9.09683 65.8369 8.85843C65.6513 8.78324 65.4852 8.66726 65.3508 8.51945C65.2163 8.37154 65.1169 8.19541 65.0597 8.00407C64.9794 7.68065 64.9794 7.34237 65.0597 7.01896C65.2265 6.45519 65.6286 6.12293 66.3613 5.94769C67.4784 5.69266 68.6392 5.69266 69.7564 5.94769C70.7454 6.1822 71.1323 6.7074 71.1473 7.69835V8.05741H75.8113C75.823 7.58432 75.8089 7.11078 75.7695 6.6391C75.7107 5.89152 75.4576 5.17224 75.0351 4.55159C74.6126 3.93103 74.0354 3.43052 73.3601 3.09932C72.1273 2.4317 70.7749 2.19144 69.3901 2.0905C68.4979 2.02584 67.6021 2.02584 66.7097 2.0905C65.3247 2.19144 63.9728 2.4317 62.7396 3.09932C62.0686 3.43087 61.4952 3.92971 61.0751 4.54735C60.655 5.16516 60.4026 5.88055 60.3422 6.62424C60.3117 6.91997 60.2989 7.2172 60.3034 7.51443C60.2872 8.19134 60.3798 8.86639 60.5774 9.5142C60.7954 10.2566 61.2272 10.9189 61.8194 11.4192C61.9126 11.5002 62.0119 11.5775 62.1173 11.6506C62.8404 12.1539 63.656 12.5099 64.5177 12.6979C65.3539 12.8897 66.1956 13.0529 67.0382 13.2162C67.4083 13.2879 67.7784 13.3596 68.1483 13.4337C68.2841 13.4613 68.4366 13.4886 68.598 13.5175C69.187 13.6228 69.895 13.7497 70.3462 13.9826C70.5318 14.0581 70.6979 14.174 70.8324 14.3219C70.9671 14.4697 71.0666 14.6458 71.1234 14.8373C71.1589 14.9872 71.179 15.1403 71.1831 15.2943C71.1652 16.208 70.7869 16.8075 69.7653 17.0478C68.6482 17.3045 67.4871 17.3045 66.3703 17.0478C65.3783 16.8133 64.9943 16.2883 64.9794 15.2972V14.9381H60.3004C60.2887 15.4114 60.3028 15.8848 60.3422 16.3564C60.4011 17.104 60.6542 17.8235 61.0766 18.4439C61.4991 19.0645 62.0763 19.565 62.7516 19.8961C63.9847 20.5638 65.3368 20.8041 66.7216 20.908C67.6141 20.9697 68.5095 20.9697 69.402 20.908C70.7869 20.8041 72.1392 20.5638 73.372 19.8961C74.0473 19.565 74.6245 19.0645 75.047 18.4439C75.4695 17.8235 75.7226 17.104 75.7814 16.3564ZM35.8073 5.0169C36.0546 4.61856 36.4083 4.29682 36.8286 4.08734L40.4949 2.26265V14.591V14.6474V15.0242C40.5247 15.9766 40.3575 16.9251 40.0035 17.8104C39.4049 19.193 38.3148 19.9941 36.8942 20.3977C36.2294 20.5864 35.5423 20.6861 34.8511 20.6944H31.7954H28.6861V16.5405H33.5227C34.6188 16.4693 35.2472 15.754 35.3753 14.6592C35.4109 14.3361 35.4288 14.0111 35.4289 13.686V6.3424C35.4291 5.87418 35.5601 5.41524 35.8073 5.0169Z" fill="#F05323"/>
</g>
<defs>
<clipPath id="clip0_397_1448">
<rect width="113.231" height="23" fill="white" transform="translate(0.386719)"/>
</clipPath>
</defs>
</svg>
