<svg width="128" height="128" viewBox="0 0 128 128" fill="none" xmlns="http://www.w3.org/2000/svg">
<g clip-path="url(#clip0_394_1142)">
<path fill-rule="evenodd" clip-rule="evenodd" d="M29.2391 66.0933C29.215 66.152 29.1899 66.2097 29.1638 66.2674C29.148 66.3037 29.1322 66.3399 29.1154 66.3762C28.5027 67.742 27.6838 69.0141 26.6969 70.1419L26.6038 70.248L26.5192 70.341L26.3964 70.475L26.3852 70.4861C26.3443 70.5308 26.3034 70.5792 26.2606 70.6192L26.1433 70.7412C26.1341 70.7505 26.1247 70.7607 26.1145 70.77C26.0754 70.811 26.0354 70.851 25.9954 70.8919L25.8596 71.0259C25.7666 71.1143 25.6736 71.2018 25.5805 71.2874C25.4875 71.373 25.4084 71.4466 25.321 71.5238L25.2075 71.6224C25.1321 71.6885 25.0559 71.7536 24.9796 71.8169C24.9033 71.8802 24.8057 71.9612 24.7172 72.031C23.4962 73.0116 22.1272 73.7992 20.6647 74.3572C20.6795 74.2865 20.6935 74.2158 20.7083 74.145C20.7232 74.0743 20.7316 74.0203 20.7437 73.9589C20.7437 73.9459 20.7483 73.9338 20.7503 73.9208C20.7623 73.8566 20.7735 73.7924 20.7847 73.7273C20.7958 73.6621 20.8051 73.6054 20.8144 73.5412C20.8144 73.5142 20.8228 73.4881 20.8265 73.4611C20.8349 73.4081 20.8433 73.3541 20.8507 73.3001C20.8711 73.1587 20.8888 73.0163 20.9056 72.874C20.9056 72.8637 20.9056 72.8544 20.9056 72.8442C20.9205 72.7167 20.9335 72.5892 20.9446 72.4608V72.4356C20.9558 72.3062 20.9661 72.1778 20.9745 72.0484C20.9745 72.0317 20.9745 72.014 20.9745 71.9973C20.9745 71.9387 20.9819 71.8801 20.9847 71.8214C20.9837 71.8179 20.9836 71.8146 20.9836 71.8114C20.9836 71.8081 20.9837 71.8048 20.984 71.8017L20.9923 71.6062C20.9923 71.595 20.9923 71.5839 20.9923 71.5727C20.9923 71.5057 20.997 71.4387 20.9979 71.3707C20.9988 71.3029 20.9979 71.2451 21.0025 71.1846V71.1409C21.0025 71.0748 21.0025 71.0078 21.0025 70.9409C21.0025 70.8739 21.0025 70.8096 21.0025 70.7436V70.7184C21.0025 70.657 21.0025 70.5956 21.0025 70.5323C21.0025 70.469 21.0025 70.4281 20.9979 70.3751C20.9979 70.3379 20.9979 70.2997 20.9979 70.2624C20.9469 68.9967 20.7471 67.737 20.4102 66.5157C21.9793 66.1434 23.5861 65.9201 25.1958 65.8636C25.4462 65.8569 25.7022 65.8516 25.9528 65.8516C27.047 65.8516 28.1495 65.9351 29.2302 66.0969L29.2391 66.0933Z" fill="#F16036"/>
<path fill-rule="evenodd" clip-rule="evenodd" d="M16.5391 59.609L16.4461 59.5159L16.3066 59.3716L16.1754 59.2376H16.1698L16.0833 59.152C16.0089 59.0785 15.9335 59.005 15.8582 58.9333L15.7316 58.8151C15.6954 58.7807 15.6601 58.7472 15.6228 58.7146C15.6107 58.7025 15.5968 58.6905 15.5838 58.6792C15.554 58.6513 15.5251 58.6243 15.4907 58.5983C15.4563 58.5722 15.4302 58.5434 15.3977 58.5164C15.2582 58.3923 15.1171 58.2717 14.9744 58.1544L14.8711 58.0706L14.7112 57.9422L14.6414 57.8883C14.6023 57.8566 14.5632 57.8259 14.5232 57.7952C14.4832 57.7645 14.4376 57.7292 14.3939 57.7022L14.2386 57.5691L14.0963 57.4667C13.7632 57.2284 13.4199 57.0018 13.0664 56.7864C15.9582 53.1323 20.363 51 25.0227 51C25.8772 51 26.7317 51.0726 27.5732 51.2141C28.1494 52.0115 28.6515 52.8704 29.0621 53.7628C29.0407 53.7144 29.0183 53.6698 28.996 53.6196C29.0462 53.7265 29.0955 53.8336 29.143 53.9406C29.1727 54.0067 29.2016 54.0727 29.2304 54.1397C29.2593 54.2067 29.2937 54.2895 29.3234 54.365C29.3533 54.4404 29.3867 54.5222 29.4165 54.6013L29.4695 54.739C29.4853 54.78 29.5002 54.821 29.5151 54.8628C29.5971 55.0837 29.6735 55.3071 29.7442 55.533C29.761 55.5841 29.7768 55.6362 29.7926 55.6884C29.8085 55.7405 29.827 55.801 29.8429 55.8577L29.8484 55.8764L29.8959 56.0448C29.9126 56.1044 29.9284 56.164 29.9442 56.2235C29.9601 56.2831 29.975 56.3408 29.9898 56.4003C30.0047 56.4599 30.0206 56.5232 30.0345 56.5864C30.0345 56.5994 30.0409 56.6134 30.0438 56.6273C30.0467 56.6377 30.0493 56.6484 30.0513 56.659C29.475 56.6161 28.8895 56.5934 28.3098 56.5934C27.0712 56.5934 25.8269 56.6925 24.6052 56.8905C22.7047 57.1988 20.8361 57.7221 19.0527 58.4439C18.1968 58.7878 17.3556 59.1818 16.541 59.6092L16.5391 59.609Z" fill="#F16036"/>
<path fill-rule="evenodd" clip-rule="evenodd" d="M29.7148 64.8218C29.9788 64.0038 30.174 63.1601 30.2937 62.309C30.3142 62.1666 30.3328 62.0233 30.3486 61.88C30.3644 61.7367 30.3793 61.5915 30.3914 61.4473C30.4026 61.3226 30.4119 61.1969 30.4193 61.0751C30.4193 61.0118 30.4268 60.9485 30.4295 60.889C30.4323 60.8294 30.4342 60.7819 30.4361 60.728C30.4361 60.6917 30.4361 60.6554 30.4361 60.6191C30.4361 60.607 30.4361 60.5958 30.4361 60.5847V60.4692C30.4361 60.4237 30.4361 60.3762 30.4361 60.3315C30.4361 60.2645 30.4361 60.1966 30.4361 60.1287C30.4361 60.0254 30.4361 59.922 30.4361 59.8188C30.4361 59.7713 30.4361 59.7257 30.4361 59.6755C30.4361 59.6253 30.4361 59.5824 30.4314 59.5377C30.4268 59.4931 30.4268 59.4251 30.424 59.3693C30.4212 59.3134 30.4237 59.2475 30.4237 59.1899V59.1601C30.4237 59.1033 30.4172 59.0465 30.4126 58.9888L30.3986 58.8027L30.3819 58.6166L30.3623 58.4305C30.3549 58.3681 30.3484 58.3058 30.34 58.2444C30.3316 58.183 30.3251 58.1206 30.3158 58.0583C30.3158 58.0462 30.3158 58.0331 30.3112 58.0211C29.6516 57.9617 28.9837 57.9297 28.3184 57.9297C27.1582 57.9297 25.998 58.0229 24.8537 58.2065C23.054 58.4954 21.282 58.9873 19.5909 59.6652C18.802 59.9807 18.0755 60.3166 17.4346 60.6469L17.4336 60.6462C18.527 62.0268 19.3996 63.5843 20.0051 65.2392C21.6791 64.835 23.4046 64.5929 25.1271 64.5301C25.3991 64.5222 25.6863 64.5165 25.9622 64.5165C27.2164 64.5165 28.4734 64.6218 29.7105 64.8209L29.7093 64.82L29.7148 64.8218Z" fill="#F16036"/>
<path fill-rule="evenodd" clip-rule="evenodd" d="M19.6843 70.7456C19.6843 70.8088 19.6843 70.8721 19.6843 70.9317C19.6843 71.0974 19.6843 71.263 19.6768 71.4277C19.6768 71.4686 19.6768 71.5105 19.6722 71.5514C19.6675 71.5923 19.6722 71.6193 19.6675 71.6538C19.6629 71.6882 19.6629 71.7469 19.6601 71.798C19.6573 71.8492 19.6601 71.8706 19.6536 71.9069C19.6489 71.9879 19.6424 72.0679 19.6369 72.1479C19.6369 72.1768 19.6322 72.2056 19.6294 72.2354C19.6164 72.3852 19.6025 72.535 19.5848 72.6849C19.5792 72.7295 19.5736 72.7779 19.569 72.8189C19.569 72.8467 19.5625 72.8747 19.5578 72.9026C19.5485 72.9798 19.5374 73.0561 19.5261 73.1334C19.5197 73.1827 19.5122 73.233 19.5048 73.2823C19.4927 73.3586 19.4797 73.435 19.4667 73.5112C19.4602 73.5513 19.4536 73.5913 19.4462 73.6322C19.4462 73.6499 19.4397 73.6676 19.436 73.6861C19.4183 73.7792 19.4006 73.8779 19.3811 73.9728C19.3559 74.0956 19.3299 74.2184 19.302 74.345C16.2368 72.2493 13.5195 69.4389 11.6953 67.3339C10.3892 65.831 9.14094 64.2377 8.00967 62.5987C7.88885 62.4016 7.67537 62.2834 7.44589 62.2834C7.07805 62.2834 6.77977 62.5818 6.77977 62.9497C6.77977 63.0877 6.82275 63.2225 6.90256 63.3352C8.06325 65.0192 9.32975 66.6518 10.6746 68.1931C12.458 70.2476 15.0684 72.9612 18.0526 75.0923C17.6582 75.1656 17.2597 75.2235 16.8573 75.2663C16.7335 75.2803 16.6079 75.2923 16.4852 75.3017L16.2349 75.3203L16.1419 75.3259C16.0926 75.3259 16.0433 75.3315 15.9931 75.3343L15.8628 75.3398H15.7595C15.647 75.3445 15.5345 75.3464 15.4209 75.3473H15.2349C15.234 75.3473 15.2265 75.3473 15.2247 75.3473C6.81962 75.3473 0.00371921 68.5327 0 60.1246C0 60.0614 0 59.9981 0 59.9385C0 59.8789 0 59.8371 0 59.7859V59.758C0 59.7161 0 59.6752 0 59.6342C0 59.5933 0 59.5514 0 59.5105C0 59.4277 0.0065086 59.3457 0.0121297 59.2639C0.0121297 59.2257 0.0121297 59.1876 0.0186383 59.1495C0.0242171 59.0564 0.0307258 58.9689 0.0381642 58.8796C0.109336 57.9859 0.261528 57.0965 0.48988 56.2293C1.78265 55.8847 3.11941 55.707 4.45807 55.707C6.88484 55.707 9.27797 56.2849 11.4374 57.3903L11.5992 57.475C11.7211 57.5402 11.8429 57.6071 11.963 57.676L12.0392 57.7189C12.1165 57.7645 12.1937 57.8119 12.2709 57.8556L12.3723 57.9171L12.4712 57.9788C12.5372 58.0198 12.6033 58.0607 12.6684 58.1036C12.7 58.1227 12.731 58.1433 12.7614 58.165L12.8544 58.2283L13.0135 58.3363C13.0507 58.3604 13.0879 58.3865 13.1242 58.4126L13.1698 58.4442L13.2628 58.5112L13.2842 58.5271L13.3865 58.6006L13.5112 58.6936L13.6219 58.7764C13.7056 58.8397 13.7884 58.9039 13.8712 58.9691C13.9149 59.0035 13.9643 59.038 14.0024 59.0743C14.0405 59.1105 14.1131 59.1674 14.168 59.2092C14.2229 59.2511 14.2787 59.3023 14.3336 59.3488L14.395 59.4009L14.5327 59.5219C14.6257 59.6028 14.7187 59.6857 14.8053 59.7685C14.8918 59.8513 14.9913 59.9425 15.0843 60.0309C15.1774 60.1193 15.2462 60.1901 15.3262 60.271C15.3285 60.2745 15.3313 60.2777 15.3346 60.2803L15.3718 60.3184L15.4861 60.4375L15.6136 60.5725L15.6201 60.5809C15.6573 60.6199 15.6945 60.6599 15.7299 60.7009C15.7653 60.7418 15.8061 60.7846 15.8433 60.8266C15.9804 60.9791 16.1129 61.1342 16.2406 61.2918C17.2953 62.5744 18.1348 64.0273 18.7166 65.5815C18.8725 65.9974 19.0097 66.4197 19.1281 66.8483C19.436 67.967 19.6181 69.1221 19.6646 70.2808C19.6646 70.3236 19.6646 70.3664 19.6702 70.4092C19.6758 70.4521 19.6702 70.4958 19.6702 70.5395C19.6702 70.5609 19.6702 70.5833 19.6702 70.6065C19.6834 70.6564 19.6833 70.7009 19.6843 70.7456Z" fill="#F9CA0C"/>
<path d="M40.0743 75.4303H40.8938L41.0781 72.9072C41.1035 72.6085 41.0844 72.2017 41.0844 72.2017H41.0971C41.0971 72.2017 41.2433 72.6467 41.345 72.9072L42.0755 74.655H42.7871L43.5177 72.9072C43.6194 72.6467 43.7655 72.2081 43.7655 72.2081H43.7782C43.7782 72.2081 43.7591 72.6085 43.7846 72.9072L43.9688 75.4303H44.7883L44.4198 70.918H43.5494L42.66 73.1488C42.5583 73.4156 42.4376 73.8097 42.4376 73.8097H42.4249C42.4249 73.8097 42.3042 73.4156 42.2026 73.1488L41.3131 70.918H40.4427L40.0743 75.4303Z" fill="#F16036"/>
<path d="M45.7109 75.4303H46.5242L48.2395 72.831C48.4048 72.564 48.6144 72.1319 48.6144 72.1319H48.6271C48.6271 72.1319 48.5827 72.564 48.5827 72.831V75.4303H49.3958V70.918H48.5827L46.88 73.5174C46.7148 73.7843 46.4988 74.2228 46.4988 74.2228H46.4861C46.4861 74.2228 46.5305 73.7906 46.5305 73.5237V70.918H45.711L45.7109 75.4303Z" fill="#F16036"/>
<path d="M50.4922 75.4303H51.3117V73.5365H53.3765V75.4303H54.1898V70.918H53.3765V72.831H51.3117V70.918H50.4922V75.4303Z" fill="#F16036"/>
<path d="M55.2852 75.4303H58.0871V74.7248H56.1047V73.511H57.6232V72.8055H56.1047V71.6234H57.9852V70.918H55.2852V75.4303Z" fill="#F16036"/>
<path d="M58.8984 75.4303H59.718V73.8732H60.6395C61.4845 73.8732 62.0753 73.2631 62.0753 72.386C62.0753 71.509 61.4845 70.918 60.6395 70.918H58.8984V75.4303ZM59.718 73.1614V71.6234H60.4999C60.9632 71.6234 61.243 71.9221 61.243 72.3861C61.243 72.8564 60.9632 73.1614 60.4871 73.1614H59.718Z" fill="#F16036"/>
<path d="M62.0625 75.4303H62.9012L63.2823 74.2737H64.8646L65.2521 75.4303H66.0907L64.509 70.918H63.6448L62.0625 75.4303ZM63.4856 73.6063L63.8921 72.3988C63.9686 72.1446 64.07 71.6997 64.07 71.6997H64.0827C64.0827 71.6997 64.1846 72.1446 64.2611 72.3988L64.6613 73.6063H63.4856Z" fill="#F16036"/>
<path d="M66.2305 74.7313V75.4812C67.4821 75.4367 67.9837 74.3499 67.9837 72.1636V71.6234H69.1716V75.4303H69.9911V70.918H67.2023V72.1509C67.2023 73.8987 66.8971 74.6423 66.2305 74.7313Z" fill="#F16036"/>
<path d="M71.0826 75.4303H72.7976C73.6235 75.4303 74.1951 74.8393 74.1951 73.9749C74.1951 73.0725 73.6044 72.5005 72.7848 72.5005H71.9022V70.918H71.082L71.0826 75.4303ZM71.9022 74.7249V73.2059H72.6389C73.0901 73.2059 73.3629 73.511 73.3629 73.975C73.3629 74.4325 73.1028 74.7249 72.6516 74.7249H71.9022Z" fill="#F16036"/>
<path d="M74.9141 75.4303H75.7336V73.5365H77.7984V75.4303H78.6116V70.918H77.7984V72.831H75.7336V70.918H74.9141V75.4303Z" fill="#F16036"/>
<path d="M83.3605 75.4303H84.1737V70.918H83.3605V75.4303ZM79.707 75.4303H81.3844C82.2039 75.4303 82.7755 74.8393 82.7755 73.9749C82.7755 73.0725 82.1912 72.5005 81.3652 72.5005H80.5266V70.918H79.707V75.4303ZM80.5266 74.7249V73.2059H81.2257C81.6768 73.2059 81.9433 73.511 81.9433 73.975C81.9433 74.4325 81.6896 74.7249 81.2384 74.7249H80.5266Z" fill="#F16036"/>
<path d="M85.2695 75.4303H88.071V74.7248H86.0891V73.511H87.6071V72.8055H86.0891V71.6234H87.9697V70.918H85.2695V75.4303Z" fill="#F16036"/>
<path d="M90.3511 75.1951C90.6244 75.3859 90.9106 75.5066 91.2534 75.5066C91.9079 75.5066 92.2189 74.9664 92.4095 74.4834L93.8007 70.918H92.9435L92.2189 72.939C92.1176 73.2313 92.0348 73.53 92.0348 73.53H92.022C92.022 73.53 91.9143 73.2313 91.7678 72.9326L90.8086 70.918H89.9062L91.6728 74.4071C91.5772 74.655 91.4504 74.8011 91.2216 74.8011C91.0119 74.8011 90.8277 74.6677 90.7136 74.5787L90.3511 75.1951Z" fill="#F16036"/>
<path d="M94.8573 74.7248C95.3276 73.9622 95.4417 72.8436 95.4417 71.9603V71.6234H96.6487V74.7248H94.8573ZM93.5547 74.7248V76.3201H94.3111V75.4303H97.24V76.3201H97.9704V74.7248H97.4682V70.918H94.6667V71.903C94.6667 72.8183 94.5712 73.8796 94.0122 74.7249L93.5547 74.7248Z" fill="#F16036"/>
<path d="M98.4141 73.1405C98.4141 74.4688 99.4178 75.5048 100.746 75.5048C102.073 75.5048 103.077 74.4688 103.077 73.1405C103.077 71.8503 102.073 70.8398 100.746 70.8398C99.4178 70.8398 98.4141 71.8503 98.4141 73.1405ZM99.2591 73.1405C99.2591 72.2635 99.9199 71.5898 100.746 71.5898C101.572 71.5898 102.232 72.2635 102.232 73.1405C102.232 74.0557 101.572 74.7548 100.746 74.7548C99.9199 74.7548 99.2591 74.0557 99.2591 73.1405Z" fill="#F16036"/>
<path d="M103.906 75.4303H105.647C106.467 75.4303 107.038 74.871 107.038 74.0575C107.038 73.1995 106.454 72.6657 105.628 72.6657H104.726V71.6234H106.676V70.918H103.906V75.4303ZM104.726 74.7248V73.3712H105.489C105.94 73.3712 106.206 73.6445 106.206 74.0576C106.206 74.4643 105.953 74.7249 105.501 74.7249L104.726 74.7248Z" fill="#F16036"/>
<path d="M107.82 75.4303H108.64V73.8732H109.561C110.406 73.8732 110.997 73.2631 110.997 72.386C110.997 71.509 110.406 70.918 109.561 70.918H107.82V75.4303ZM108.64 73.1614V71.6234H109.421C109.885 71.6234 110.165 71.9221 110.165 72.3861C110.165 72.8564 109.885 73.1614 109.409 73.1614H108.64Z" fill="#F16036"/>
<path d="M111.707 75.4303H114.509V74.7248H112.527V73.511H114.045V72.8055H112.527V71.6234H114.407V70.918H111.707V75.4303Z" fill="#F16036"/>
<path d="M115.32 75.4303H116.14V73.5365H118.205V75.4303H119.018V70.918H118.205V72.831H116.14V70.918H115.32V75.4303Z" fill="#F16036"/>
<path d="M120.113 75.4303H120.926L122.642 72.831C122.807 72.564 123.017 72.1319 123.017 72.1319H123.029C123.029 72.1319 122.985 72.564 122.985 72.831V75.4303H123.798V70.918H122.985L121.282 73.5174C121.117 73.7843 120.901 74.2228 120.901 74.2228H120.888C120.888 74.2228 120.933 73.7906 120.933 73.5237V70.918H120.113V75.4303Z" fill="#F16036"/>
<path d="M124.457 75.4303H125.372L126.35 73.7461H127.011V75.4303H127.831V70.918H126.37C125.925 70.918 125.702 70.9561 125.512 71.0387C125.073 71.223 124.755 71.6488 124.755 72.2844C124.755 72.8563 125.003 73.3521 125.556 73.5936V73.6063C125.556 73.6063 125.512 73.6699 125.41 73.8415L124.457 75.4303ZM126.299 73.0598C125.861 73.0598 125.588 72.7929 125.588 72.3162C125.588 72.0747 125.683 71.8522 125.867 71.7378C125.981 71.668 126.141 71.6234 126.433 71.6234H127.011V73.0598H126.299Z" fill="#F16036"/>
<path fill-rule="evenodd" clip-rule="evenodd" d="M40.0742 52.9023H43.307V58.0019H44.6367L47.3709 52.9023H50.8431L47.2778 59.2206V59.2589L51.0442 66.1159H47.4258L44.6367 60.757H43.307V66.1159H40.0742V52.9023Z" fill="url(#paint0_linear_394_1142)"/>
<path fill-rule="evenodd" clip-rule="evenodd" d="M55.5893 52.9023H58.9886L63.4762 66.1143H60.1516L59.339 63.3425H55.2186L54.4259 66.1143H51.1016L55.5893 52.9023ZM58.5809 60.7554L57.8431 58.1864C57.6021 57.3551 57.3063 55.9135 57.3063 55.9135H57.2697C57.2697 55.9135 56.9738 57.3551 56.7344 58.1864L55.9765 60.7554H58.5809Z" fill="url(#paint1_linear_394_1142)"/>
<path fill-rule="evenodd" clip-rule="evenodd" d="M64.1033 64.0824L69.2024 56.8579C69.4967 56.4226 69.8378 56.0176 70.2178 55.6554V55.6188C69.8934 55.657 69.5639 55.6758 69.2366 55.6758C69.2262 55.6758 69.2123 55.6758 69.2019 55.6758L64.3408 55.6757V52.9023H74.3138V54.8976L69.1972 62.1587C68.9036 62.5944 68.5619 62.9988 68.1808 63.3604V63.397C68.5063 63.3617 68.8347 63.3423 69.1625 63.3423C69.1735 63.3423 69.1874 63.3423 69.1978 63.3423L74.4064 63.3425V66.1142H64.1016L64.1033 64.0824Z" fill="url(#paint2_linear_394_1142)"/>
<path fill-rule="evenodd" clip-rule="evenodd" d="M82.5179 52.6836C84.2914 52.6836 86.1743 53.2755 87.4694 54.5508L85.9733 56.99C85.1225 56.2501 83.8471 55.6399 82.6656 55.6399C80.0245 55.6399 78.9339 57.5071 78.9339 59.4109C78.9339 61.3696 80.116 63.3831 82.6656 63.3831C83.9769 63.3831 85.2702 62.6632 86.176 61.757L87.8383 64.1231C86.4795 65.5388 84.6018 66.3405 82.639 66.3405C82.5996 66.3405 82.5585 66.3397 82.5196 66.3397C78.2713 66.3397 75.5938 63.4016 75.5938 59.4842C75.5914 55.6399 78.4352 52.6836 82.5179 52.6836Z" fill="url(#paint3_linear_394_1142)"/>
<path fill-rule="evenodd" clip-rule="evenodd" d="M89.4805 52.9023H92.7135V58.1865H97.5167V52.9023H100.75V66.1143H97.5167V60.9415H92.7135V66.1159H89.4805V52.9023Z" fill="url(#paint4_linear_394_1142)"/>
<path fill-rule="evenodd" clip-rule="evenodd" d="M103.52 52.9023H111.796V55.6741H106.753V58.075H110.78V60.8468H106.753V63.3409H112.055V66.1126H103.52V52.9023Z" fill="url(#paint5_linear_394_1142)"/>
<path fill-rule="evenodd" clip-rule="evenodd" d="M114.704 52.9023H118.215L120.134 58.4824C120.43 59.3321 120.799 60.6623 120.799 60.6623L120.835 60.6622C120.835 60.6622 121.204 59.3321 121.5 58.4824L123.415 52.9023H126.924L128.001 66.1159H124.763L124.356 60.1651C124.337 59.7984 124.325 59.4253 124.325 59.0568C124.325 58.6885 124.337 58.3154 124.356 57.9494L124.319 57.9487C124.319 57.9487 123.877 59.3337 123.581 60.165L122.195 63.9893H119.425L118.04 60.165C117.744 59.3337 117.3 57.9487 117.3 57.9487H117.264C117.283 58.3154 117.294 58.6885 117.294 59.0568C117.294 59.4252 117.283 59.7984 117.263 60.1643L116.865 66.1159H113.605L114.704 52.9023H114.704Z" fill="url(#paint6_linear_394_1142)"/>
</g>
<defs>
<linearGradient id="paint0_linear_394_1142" x1="45.5592" y1="66.204" x2="45.5592" y2="53.0686" gradientUnits="userSpaceOnUse">
<stop stop-color="#333333"/>
<stop offset="1" stop-color="#4D4D4D"/>
</linearGradient>
<linearGradient id="paint1_linear_394_1142" x1="57.2888" y1="66.2024" x2="57.2888" y2="53.0686" gradientUnits="userSpaceOnUse">
<stop stop-color="#333333"/>
<stop offset="1" stop-color="#4D4D4D"/>
</linearGradient>
<linearGradient id="paint2_linear_394_1142" x1="69.254" y1="66.2023" x2="69.254" y2="53.0686" gradientUnits="userSpaceOnUse">
<stop stop-color="#333333"/>
<stop offset="1" stop-color="#4D4D4D"/>
</linearGradient>
<linearGradient id="paint3_linear_394_1142" x1="81.7157" y1="66.4315" x2="81.7157" y2="52.8555" gradientUnits="userSpaceOnUse">
<stop stop-color="#333333"/>
<stop offset="1" stop-color="#4D4D4D"/>
</linearGradient>
<linearGradient id="paint4_linear_394_1142" x1="95.1154" y1="66.204" x2="95.1154" y2="53.0686" gradientUnits="userSpaceOnUse">
<stop stop-color="#333333"/>
<stop offset="1" stop-color="#4D4D4D"/>
</linearGradient>
<linearGradient id="paint5_linear_394_1142" x1="107.787" y1="66.2007" x2="107.787" y2="53.0686" gradientUnits="userSpaceOnUse">
<stop stop-color="#333333"/>
<stop offset="1" stop-color="#4D4D4D"/>
</linearGradient>
<linearGradient id="paint6_linear_394_1142" x1="120.803" y1="66.204" x2="120.803" y2="53.0686" gradientUnits="userSpaceOnUse">
<stop stop-color="#333333"/>
<stop offset="1" stop-color="#4D4D4D"/>
</linearGradient>
<clipPath id="clip0_394_1142">
<rect width="128" height="25.4842" fill="white" transform="translate(0 51)"/>
</clipPath>
</defs>
</svg>
