<svg width="129" height="27" viewBox="0 0 129 27" fill="none" xmlns="http://www.w3.org/2000/svg">
<g clip-path="url(#clip0_394_1144)">
<path fill-rule="evenodd" clip-rule="evenodd" d="M29.3056 15.8511C29.2814 15.9098 29.2563 15.9675 29.2302 16.0252C29.2144 16.0615 29.1986 16.0977 29.1818 16.1341C28.5691 17.4998 27.7502 18.7719 26.7633 19.8997L26.6703 20.0058L26.5856 20.0988L26.4628 20.2328L26.4516 20.244C26.4107 20.2886 26.3698 20.337 26.327 20.3771L26.2097 20.499C26.2005 20.5083 26.1911 20.5185 26.1809 20.5278C26.1418 20.5688 26.1018 20.6088 26.0618 20.6497L25.926 20.7837C25.833 20.8721 25.74 20.9596 25.647 21.0452C25.5539 21.1308 25.4748 21.2044 25.3874 21.2816L25.2739 21.3802C25.1985 21.4463 25.1223 21.5114 25.046 21.5748C24.9697 21.6381 24.8721 21.719 24.7836 21.7888C23.5626 22.7694 22.1936 23.557 20.7311 24.1151C20.7459 24.0443 20.7599 23.9736 20.7747 23.9028C20.7896 23.8321 20.798 23.7781 20.8101 23.7168C20.8101 23.7037 20.8147 23.6916 20.8167 23.6786C20.8287 23.6144 20.8399 23.5502 20.8511 23.4851C20.8622 23.4199 20.8715 23.3632 20.8808 23.299C20.8808 23.272 20.8892 23.2459 20.8929 23.2189C20.9013 23.1659 20.9097 23.1119 20.9171 23.0579C20.9375 22.9165 20.9552 22.7741 20.972 22.6318C20.972 22.6215 20.972 22.6122 20.972 22.602C20.9869 22.4745 20.9999 22.347 21.011 22.2186V22.1934C21.0222 22.064 21.0325 21.9356 21.0409 21.8063C21.0409 21.7895 21.0409 21.7719 21.0409 21.7551C21.0409 21.6965 21.0483 21.6379 21.0511 21.5792C21.0501 21.5757 21.05 21.5724 21.05 21.5692C21.05 21.566 21.0501 21.5626 21.0504 21.5595L21.0587 21.364C21.0587 21.3528 21.0587 21.3417 21.0587 21.3305C21.0587 21.2635 21.0634 21.1965 21.0643 21.1285C21.0652 21.0607 21.0643 21.0029 21.069 20.9425V20.8987C21.069 20.8326 21.069 20.7656 21.069 20.6987C21.069 20.6317 21.069 20.5674 21.069 20.5014V20.4762C21.069 20.4148 21.069 20.3534 21.069 20.2901C21.069 20.2268 21.069 20.1859 21.0643 20.1329C21.0643 20.0957 21.0643 20.0575 21.0643 20.0202C21.0134 18.7545 20.8135 17.4949 20.4766 16.2735C22.0457 15.9012 23.6525 15.678 25.2623 15.6214C25.5126 15.6148 25.7686 15.6094 26.0193 15.6094C27.1135 15.6094 28.2159 15.693 29.2966 15.8547L29.3056 15.8511Z" fill="#F16036"/>
<path fill-rule="evenodd" clip-rule="evenodd" d="M16.6056 9.36677L16.5125 9.27369L16.373 9.12942L16.2418 8.99545H16.2362L16.1497 8.90985C16.0753 8.83635 16 8.76285 15.9246 8.69115L15.7981 8.57294C15.7618 8.53853 15.7265 8.505 15.6892 8.47245C15.6771 8.46034 15.6632 8.4483 15.6502 8.43706C15.6204 8.40914 15.5915 8.38215 15.5571 8.35609C15.5227 8.33003 15.4966 8.30118 15.4641 8.27419C15.3246 8.15013 15.1835 8.02949 15.0408 7.9122L14.9376 7.82845L14.7776 7.70005L14.7078 7.64607C14.6687 7.61444 14.6296 7.58375 14.5896 7.55305C14.5496 7.52235 14.504 7.48696 14.4603 7.45997L14.305 7.32693L14.1627 7.22453C13.8296 6.98626 13.4863 6.75956 13.1328 6.54425C16.0246 2.89014 20.4294 0.757812 25.0891 0.757812C25.9436 0.757812 26.7981 0.830448 27.6396 0.971954C28.2158 1.76933 28.7179 2.62818 29.1285 3.52064C29.1071 3.47223 29.0847 3.42759 29.0624 3.37736C29.1127 3.48433 29.1619 3.59138 29.2094 3.69842C29.2392 3.76447 29.268 3.83055 29.2968 3.89756C29.3257 3.96453 29.3601 4.04735 29.3899 4.12278C29.4197 4.19816 29.4531 4.28001 29.4829 4.35912L29.5359 4.49686C29.5517 4.53779 29.5666 4.5788 29.5815 4.62061C29.6635 4.84156 29.7399 5.06496 29.8106 5.29077C29.8274 5.34193 29.8432 5.39406 29.859 5.44619C29.8749 5.49832 29.8934 5.55882 29.9093 5.61556L29.9148 5.6342L29.9623 5.80264C29.979 5.86221 29.9948 5.92178 30.0106 5.98131C30.0265 6.04088 30.0414 6.09859 30.0562 6.15812C30.0711 6.21769 30.087 6.28098 30.1009 6.34423C30.1009 6.35725 30.1073 6.3712 30.1102 6.38516C30.1131 6.39552 30.1157 6.40617 30.1177 6.41683C29.5414 6.37387 28.9559 6.35125 28.3762 6.35125C27.1376 6.35125 25.8933 6.45027 24.6716 6.6483C22.7712 6.9566 20.9025 7.4799 19.1191 8.20168C18.2632 8.5456 17.422 8.93962 16.6074 9.36706L16.6056 9.36677Z" fill="#F16036"/>
<path fill-rule="evenodd" clip-rule="evenodd" d="M29.7812 14.5796C30.0452 13.7616 30.2404 12.9179 30.3601 12.0668C30.3806 11.9244 30.3992 11.7811 30.415 11.6378C30.4308 11.4945 30.4457 11.3493 30.4578 11.2051C30.469 11.0804 30.4783 10.9547 30.4857 10.8329C30.4857 10.7696 30.4932 10.7063 30.4959 10.6468C30.4987 10.5872 30.5006 10.5398 30.5025 10.4858C30.5025 10.4495 30.5025 10.4132 30.5025 10.3769C30.5025 10.3648 30.5025 10.3536 30.5025 10.3425V10.2271C30.5025 10.1815 30.5025 10.134 30.5025 10.0893C30.5025 10.0223 30.5025 9.95437 30.5025 9.88649C30.5025 9.78317 30.5025 9.67984 30.5025 9.57663C30.5025 9.52914 30.5025 9.4835 30.5025 9.43328C30.5025 9.38307 30.5025 9.34021 30.4978 9.29555C30.4932 9.2509 30.4932 9.18296 30.4904 9.12712C30.4876 9.07123 30.4901 9.00532 30.4901 8.94769V8.91792C30.4901 8.8611 30.4836 8.80434 30.479 8.74666L30.465 8.56051L30.4483 8.37441L30.4288 8.18832C30.4213 8.12594 30.4148 8.06356 30.4064 8.00217C30.398 7.94078 30.3915 7.87846 30.3822 7.81608C30.3822 7.80397 30.3822 7.79094 30.3776 7.7789C29.718 7.71953 29.0501 7.6875 28.3848 7.6875C27.2246 7.6875 26.0644 7.78069 24.9201 7.96435C23.1204 8.25325 21.3484 8.74509 19.6573 9.42303C18.8684 9.73851 18.1419 10.0744 17.501 10.4047L17.5 10.4041C18.5934 11.7846 19.466 13.3421 20.0715 14.997C21.7455 14.5928 23.471 14.3507 25.1936 14.288C25.4655 14.28 25.7527 14.2743 26.0286 14.2743C27.2828 14.2743 28.5398 14.3796 29.7769 14.5787L29.7757 14.5778L29.7812 14.5796Z" fill="#F16036"/>
<path fill-rule="evenodd" clip-rule="evenodd" d="M19.7507 20.5034C19.7507 20.5666 19.7507 20.6299 19.7507 20.6895C19.7507 20.8552 19.7507 21.0208 19.7433 21.1855C19.7433 21.2264 19.7433 21.2683 19.7386 21.3093C19.7339 21.3501 19.7386 21.3771 19.7339 21.4116C19.7293 21.446 19.7293 21.5047 19.7265 21.5558C19.7237 21.607 19.7265 21.6284 19.72 21.6647C19.7153 21.7457 19.7088 21.8257 19.7033 21.9058C19.7033 21.9346 19.6986 21.9634 19.6958 21.9932C19.6828 22.1431 19.6689 22.2928 19.6512 22.4427C19.6456 22.4873 19.64 22.5357 19.6354 22.5767C19.6354 22.6045 19.6289 22.6325 19.6242 22.6604C19.6149 22.7376 19.6038 22.8139 19.5925 22.8912C19.5861 22.9405 19.5786 22.9908 19.5712 23.0401C19.5591 23.1164 19.5461 23.1928 19.5331 23.269C19.5266 23.3091 19.52 23.3491 19.5126 23.39C19.5126 23.4077 19.5061 23.4254 19.5024 23.444C19.4847 23.537 19.467 23.6357 19.4475 23.7306C19.4223 23.8534 19.3963 23.9762 19.3684 24.1028C16.3032 22.0071 13.5859 19.1967 11.7617 17.0917C10.4556 15.5888 9.20734 13.9955 8.07608 12.3565C7.95526 12.1595 7.74177 12.0412 7.5123 12.0412C7.14446 12.0412 6.84618 12.3396 6.84618 12.7075C6.84618 12.8456 6.88915 12.9803 6.96897 13.093C8.12965 14.777 9.39616 16.4096 10.741 17.9509C12.5244 20.0054 15.1348 22.7191 18.119 24.8501C17.7246 24.9234 17.3261 24.9813 16.9237 25.0242C16.7999 25.0381 16.6743 25.0502 16.5516 25.0595L16.3013 25.0781L16.2083 25.0837C16.159 25.0837 16.1097 25.0893 16.0595 25.0921L15.9293 25.0977H15.8259C15.7134 25.1023 15.6009 25.1042 15.4873 25.1051H15.3013C15.3004 25.1051 15.2929 25.1051 15.2911 25.1051C6.88603 25.1051 0.0701255 18.2905 0.0664062 9.88245C0.0664062 9.8192 0.0664062 9.7559 0.0664062 9.6963C0.0664062 9.63676 0.0664062 9.59488 0.0664062 9.54374V9.51582C0.0664062 9.47395 0.0664062 9.433 0.0664062 9.39205C0.0664062 9.3511 0.0664062 9.30923 0.0664062 9.26828C0.0664062 9.18551 0.0729148 9.10356 0.078536 9.02172C0.078536 8.98355 0.078536 8.94538 0.0850446 8.90727C0.0906234 8.8142 0.097132 8.72674 0.10457 8.63737C0.175743 7.74375 0.327935 6.85435 0.556286 5.98715C1.84905 5.64254 3.18581 5.46484 4.52447 5.46484C6.95124 5.46484 9.34438 6.04275 11.5038 7.14811L11.6656 7.23279C11.7875 7.29801 11.9093 7.36496 12.0294 7.43383L12.1056 7.47669C12.1829 7.52232 12.2601 7.56976 12.3373 7.61343L12.4387 7.67488L12.5376 7.73662C12.6036 7.77757 12.6697 7.81852 12.7348 7.86138C12.7664 7.88055 12.7974 7.90111 12.8278 7.92283L12.9209 7.98608L13.08 8.0941C13.1171 8.11825 13.1543 8.14431 13.1906 8.17038L13.2362 8.202L13.3292 8.26901L13.3506 8.28488L13.4529 8.35838L13.5776 8.45145L13.6883 8.53422C13.772 8.59752 13.8548 8.66176 13.9376 8.72692C13.9813 8.76132 14.0307 8.79578 14.0688 8.8321C14.1069 8.86835 14.1795 8.92517 14.2344 8.96699C14.2893 9.00892 14.3451 9.06012 14.4 9.10663L14.4614 9.15876L14.5991 9.27969C14.6921 9.36066 14.7851 9.44348 14.8717 9.52631C14.9582 9.60913 15.0577 9.70029 15.1507 9.78874C15.2438 9.87712 15.3127 9.9479 15.3926 10.0288C15.3949 10.0323 15.3977 10.0355 15.401 10.0381L15.4382 10.0762L15.5526 10.1953L15.68 10.3303L15.6865 10.3387C15.7237 10.3777 15.7609 10.4177 15.7963 10.4587C15.8317 10.4996 15.8726 10.5424 15.9097 10.5844C16.0468 10.7369 16.1793 10.892 16.307 11.0496C17.3618 12.3322 18.2012 13.7851 18.783 15.3394C18.9389 15.7552 19.0761 16.1775 19.1945 16.6062C19.5024 17.7249 19.6845 18.8799 19.731 20.0386C19.731 20.0814 19.731 20.1242 19.7366 20.167C19.7422 20.2099 19.7366 20.2536 19.7366 20.2973C19.7366 20.3187 19.7366 20.3411 19.7366 20.3643C19.7499 20.4142 19.7497 20.4587 19.7507 20.5034Z" fill="#F9CA0C"/>
<path d="M40.1407 25.1882H40.9602L41.1445 22.665C41.1699 22.3663 41.1508 21.9595 41.1508 21.9595H41.1635C41.1635 21.9595 41.3097 22.4045 41.4114 22.665L42.1419 24.4128H42.8535L43.5841 22.665C43.6858 22.4045 43.8319 21.9659 43.8319 21.9659H43.8446C43.8446 21.9659 43.8255 22.3663 43.851 22.665L44.0352 25.1882H44.8547L44.4863 20.6758H43.6159L42.7264 22.9066C42.6248 23.1735 42.5041 23.5675 42.5041 23.5675H42.4913C42.4913 23.5675 42.3706 23.1735 42.269 22.9066L41.3795 20.6758H40.5091L40.1407 25.1882Z" fill="#F16036"/>
<path d="M45.7773 25.1882H46.5906L48.306 22.5888C48.4712 22.3218 48.6808 21.8897 48.6808 21.8897H48.6935C48.6935 21.8897 48.6491 22.3218 48.6491 22.5888V25.1882H49.4622V20.6758H48.6491L46.9464 23.2752C46.7812 23.5421 46.5652 23.9806 46.5652 23.9806H46.5525C46.5525 23.9806 46.5969 23.5484 46.5969 23.2815V20.6758H45.7774L45.7773 25.1882Z" fill="#F16036"/>
<path d="M50.5586 25.1882H51.3781V23.2943H53.4429V25.1882H54.2562V20.6758H53.4429V22.5888H51.3781V20.6758H50.5586V25.1882Z" fill="#F16036"/>
<path d="M55.3516 25.1882H58.1535V24.4827H56.1711V23.2688H57.6896V22.5633H56.1711V21.3812H58.0516V20.6758H55.3516V25.1882Z" fill="#F16036"/>
<path d="M58.9648 25.1882H59.7844V23.631H60.7059C61.5509 23.631 62.1417 23.0209 62.1417 22.1438C62.1417 21.2668 61.5509 20.6758 60.7059 20.6758H58.9648V25.1882ZM59.7844 22.9193V21.3812H60.5663C61.0296 21.3812 61.3094 21.6799 61.3094 22.1439C61.3094 22.6142 61.0296 22.9193 60.5535 22.9193H59.7844Z" fill="#F16036"/>
<path d="M62.1289 25.1882H62.9676L63.3487 24.0315H64.931L65.3185 25.1882H66.1571L64.5754 20.6758H63.7112L62.1289 25.1882ZM63.552 23.3641L63.9586 22.1566C64.035 21.9024 64.1364 21.4575 64.1364 21.4575H64.1491C64.1491 21.4575 64.251 21.9024 64.3275 22.1566L64.7277 23.3641H63.552Z" fill="#F16036"/>
<path d="M66.2969 24.4891V25.239C67.5485 25.1945 68.0501 24.1077 68.0501 21.9214V21.3812H69.238V25.1882H70.0575V20.6758H67.2687V21.9088C67.2687 23.6565 66.9635 24.4001 66.2969 24.4891Z" fill="#F16036"/>
<path d="M71.149 25.1882H72.864C73.6899 25.1882 74.2616 24.5971 74.2616 23.7327C74.2616 22.8303 73.6708 22.2583 72.8512 22.2583H71.9686V20.6758H71.1484L71.149 25.1882ZM71.9686 24.4827V22.9637H72.7053C73.1565 22.9637 73.4293 23.2688 73.4293 23.7328C73.4293 24.1903 73.1692 24.4827 72.718 24.4827H71.9686Z" fill="#F16036"/>
<path d="M74.9805 25.1882H75.8V23.2943H77.8648V25.1882H78.678V20.6758H77.8648V22.5888H75.8V20.6758H74.9805V25.1882Z" fill="#F16036"/>
<path d="M83.4269 25.1882H84.2401V20.6758H83.4269V25.1882ZM79.7734 25.1882H81.4508C82.2703 25.1882 82.842 24.5971 82.842 23.7327C82.842 22.8303 82.2576 22.2583 81.4316 22.2583H80.593V20.6758H79.7734V25.1882ZM80.593 24.4827V22.9637H81.2921C81.7432 22.9637 82.0097 23.2688 82.0097 23.7328C82.0097 24.1903 81.756 24.4827 81.3048 24.4827H80.593Z" fill="#F16036"/>
<path d="M85.3359 25.1882H88.1375V24.4827H86.1555V23.2688H87.6735V22.5633H86.1555V21.3812H88.0361V20.6758H85.3359V25.1882Z" fill="#F16036"/>
<path d="M90.4175 24.953C90.6908 25.1437 90.977 25.2644 91.3198 25.2644C91.9743 25.2644 92.2853 24.7242 92.4759 24.2412L93.8671 20.6758H93.0099L92.2854 22.6968C92.184 22.9891 92.1012 23.2878 92.1012 23.2878H92.0884C92.0884 23.2878 91.9807 22.9891 91.8342 22.6904L90.875 20.6758H89.9727L91.7392 24.1649C91.6436 24.4128 91.5168 24.5589 91.288 24.5589C91.0783 24.5589 90.8941 24.4255 90.78 24.3365L90.4175 24.953Z" fill="#F16036"/>
<path d="M94.9237 24.4827C95.394 23.72 95.5081 22.6015 95.5081 21.7181V21.3812H96.7151V24.4827H94.9237ZM93.6211 24.4827V26.0779H94.3775V25.1881H97.3064V26.0779H98.0368V24.4827H97.5346V20.6758H94.7331V21.6609C94.7331 22.5761 94.6376 23.6374 94.0786 24.4827L93.6211 24.4827Z" fill="#F16036"/>
<path d="M98.4805 22.8984C98.4805 24.2267 99.4842 25.2626 100.812 25.2626C102.14 25.2626 103.143 24.2267 103.143 22.8984C103.143 21.6082 102.14 20.5977 100.812 20.5977C99.4842 20.5977 98.4805 21.6082 98.4805 22.8984ZM99.3255 22.8984C99.3255 22.0213 99.9864 21.3476 100.812 21.3476C101.638 21.3476 102.298 22.0213 102.298 22.8984C102.298 23.8135 101.638 24.5127 100.812 24.5127C99.9864 24.5127 99.3255 23.8135 99.3255 22.8984Z" fill="#F16036"/>
<path d="M103.973 25.1881H105.714C106.533 25.1881 107.105 24.6288 107.105 23.8153C107.105 22.9573 106.52 22.4235 105.695 22.4235H104.792V21.3812H106.743V20.6758H103.973V25.1881ZM104.792 24.4827V23.129H105.555C106.006 23.129 106.273 23.4023 106.273 23.8154C106.273 24.2221 106.019 24.4827 105.568 24.4827L104.792 24.4827Z" fill="#F16036"/>
<path d="M107.887 25.1882H108.706V23.631H109.628C110.473 23.631 111.064 23.0209 111.064 22.1438C111.064 21.2668 110.473 20.6758 109.628 20.6758H107.887V25.1882ZM108.706 22.9193V21.3812H109.488C109.952 21.3812 110.231 21.6799 110.231 22.1439C110.231 22.6142 109.952 22.9193 109.475 22.9193H108.706Z" fill="#F16036"/>
<path d="M111.773 25.1882H114.576V24.4827H112.593V23.2688H114.112V22.5633H112.593V21.3812H114.474V20.6758H111.773V25.1882Z" fill="#F16036"/>
<path d="M115.387 25.1882H116.206V23.2943H118.271V25.1882H119.084V20.6758H118.271V22.5888H116.206V20.6758H115.387V25.1882Z" fill="#F16036"/>
<path d="M120.18 25.1882H120.993L122.708 22.5888C122.873 22.3218 123.083 21.8897 123.083 21.8897H123.096C123.096 21.8897 123.051 22.3218 123.051 22.5888V25.1882H123.864V20.6758H123.051L121.348 23.2752C121.183 23.5421 120.967 23.9806 120.967 23.9806H120.955C120.955 23.9806 120.999 23.5484 120.999 23.2815V20.6758H120.18V25.1882Z" fill="#F16036"/>
<path d="M124.523 25.1882H125.438L126.417 23.5039H127.077V25.1882H127.897V20.6758H126.436C125.991 20.6758 125.769 20.7139 125.578 20.7965C125.14 20.9808 124.822 21.4067 124.822 22.0422C124.822 22.6141 125.07 23.1099 125.623 23.3514V23.3641C125.623 23.3641 125.578 23.4277 125.476 23.5993L124.523 25.1882ZM126.366 22.8176C125.927 22.8176 125.654 22.5507 125.654 22.074C125.654 21.8325 125.75 21.61 125.934 21.4956C126.048 21.4258 126.207 21.3812 126.499 21.3812H127.077V22.8176H126.366Z" fill="#F16036"/>
<path fill-rule="evenodd" clip-rule="evenodd" d="M40.1406 2.66016H43.3734V7.75972H44.7031L47.4373 2.66016H50.9095L47.3442 8.97844V9.01672L51.1106 15.8738H47.4922L44.7031 10.5148H43.3734V15.8738H40.1406V2.66016Z" fill="url(#paint0_linear_394_1144)"/>
<path fill-rule="evenodd" clip-rule="evenodd" d="M55.6557 2.66016H59.055L63.5426 15.8721H60.218L59.4054 13.1003H55.2851L54.4923 15.8721H51.168L55.6557 2.66016ZM58.6473 10.5132L57.9095 7.94425C57.6685 7.11288 57.3727 5.67129 57.3727 5.67129H57.3361C57.3361 5.67129 57.0402 7.11288 56.8008 7.94425L56.0429 10.5132H58.6473Z" fill="url(#paint1_linear_394_1144)"/>
<path fill-rule="evenodd" clip-rule="evenodd" d="M64.1697 13.8402L69.2689 6.61571C69.5631 6.18041 69.9042 5.77538 70.2842 5.41322V5.37665C69.9598 5.41479 69.6303 5.4336 69.303 5.4336C69.2926 5.4336 69.2787 5.4336 69.2683 5.4336L64.4072 5.43356V2.66016H74.3802V4.65542L69.2636 11.9165C68.97 12.3522 68.6283 12.7566 68.2472 13.1182V13.1548C68.5727 13.1196 68.9011 13.1002 69.2289 13.1002C69.2399 13.1002 69.2538 13.1002 69.2642 13.1002L74.4728 13.1003V15.872H64.168L64.1697 13.8402Z" fill="url(#paint2_linear_394_1144)"/>
<path fill-rule="evenodd" clip-rule="evenodd" d="M82.5843 2.44141C84.3578 2.44141 86.2407 3.03331 87.5358 4.30865L86.0397 6.74785C85.1889 6.00796 83.9135 5.39771 82.732 5.39771C80.0909 5.39771 79.0003 7.26495 79.0003 9.16873C79.0003 11.1274 80.1824 13.141 82.732 13.141C84.0433 13.141 85.3366 12.421 86.2425 11.5148L87.9047 13.8809C86.5459 15.2966 84.6682 16.0983 82.7054 16.0983C82.666 16.0983 82.6249 16.0975 82.5861 16.0975C78.3377 16.0975 75.6602 13.1594 75.6602 9.24206C75.6578 5.39775 78.5016 2.44141 82.5843 2.44141Z" fill="url(#paint3_linear_394_1144)"/>
<path fill-rule="evenodd" clip-rule="evenodd" d="M89.5469 2.66016H92.7799V7.9443H97.5831V2.66016H100.816V15.8721H97.5831V10.6993H92.7799V15.8738H89.5469V2.66016Z" fill="url(#paint4_linear_394_1144)"/>
<path fill-rule="evenodd" clip-rule="evenodd" d="M103.586 2.66016H111.862V5.43191H106.819V7.83281H110.847V10.6046H106.819V13.0987H112.121V15.8704H103.586V2.66016Z" fill="url(#paint5_linear_394_1144)"/>
<path fill-rule="evenodd" clip-rule="evenodd" d="M114.771 2.66016H118.281L120.2 8.24021C120.496 9.08993 120.865 10.4201 120.865 10.4201L120.902 10.42C120.902 10.42 121.271 9.08987 121.567 8.24021L123.482 2.66016H126.99L128.068 15.8738H124.829L124.422 9.92292C124.404 9.55623 124.391 9.18307 124.391 8.81465C124.391 8.44634 124.404 8.07317 124.423 7.70724L124.386 7.70649C124.386 7.70649 123.944 9.09155 123.648 9.92286L122.262 13.7471H119.491L118.106 9.92286C117.81 9.0915 117.366 7.70649 117.366 7.70649H117.33C117.349 8.07317 117.361 8.44628 117.361 8.81465C117.361 9.18301 117.349 9.55618 117.329 9.92211L116.931 15.8738H113.672L114.77 2.66016H114.771Z" fill="url(#paint6_linear_394_1144)"/>
</g>
<defs>
<linearGradient id="paint0_linear_394_1144" x1="45.6256" y1="15.9619" x2="45.6256" y2="2.82644" gradientUnits="userSpaceOnUse">
<stop stop-color="#333333"/>
<stop offset="1" stop-color="#4D4D4D"/>
</linearGradient>
<linearGradient id="paint1_linear_394_1144" x1="57.3552" y1="15.9602" x2="57.3552" y2="2.82642" gradientUnits="userSpaceOnUse">
<stop stop-color="#333333"/>
<stop offset="1" stop-color="#4D4D4D"/>
</linearGradient>
<linearGradient id="paint2_linear_394_1144" x1="69.3204" y1="15.9601" x2="69.3204" y2="2.82642" gradientUnits="userSpaceOnUse">
<stop stop-color="#333333"/>
<stop offset="1" stop-color="#4D4D4D"/>
</linearGradient>
<linearGradient id="paint3_linear_394_1144" x1="81.7821" y1="16.1893" x2="81.7821" y2="2.61327" gradientUnits="userSpaceOnUse">
<stop stop-color="#333333"/>
<stop offset="1" stop-color="#4D4D4D"/>
</linearGradient>
<linearGradient id="paint4_linear_394_1144" x1="95.1818" y1="15.9619" x2="95.1818" y2="2.82644" gradientUnits="userSpaceOnUse">
<stop stop-color="#333333"/>
<stop offset="1" stop-color="#4D4D4D"/>
</linearGradient>
<linearGradient id="paint5_linear_394_1144" x1="107.853" y1="15.9585" x2="107.853" y2="2.82639" gradientUnits="userSpaceOnUse">
<stop stop-color="#333333"/>
<stop offset="1" stop-color="#4D4D4D"/>
</linearGradient>
<linearGradient id="paint6_linear_394_1144" x1="120.869" y1="15.9619" x2="120.869" y2="2.82644" gradientUnits="userSpaceOnUse">
<stop stop-color="#333333"/>
<stop offset="1" stop-color="#4D4D4D"/>
</linearGradient>
<clipPath id="clip0_394_1144">
<rect width="128" height="25.4842" fill="white" transform="translate(0.0664062 0.757812)"/>
</clipPath>
</defs>
</svg>
