<svg width="128" height="128" viewBox="0 0 128 128" fill="none" xmlns="http://www.w3.org/2000/svg">
<g clip-path="url(#clip0_394_1086)">
<mask id="mask0_394_1086" style="mask-type:luminance" maskUnits="userSpaceOnUse" x="0" y="0" width="128" height="128">
<path d="M124 0H4C1.79086 0 0 1.79086 0 4V124C0 126.209 1.79086 128 4 128H124C126.209 128 128 126.209 128 124V4C128 1.79086 126.209 0 124 0Z" fill="white"/>
</mask>
<g mask="url(#mask0_394_1086)">
<path fill-rule="evenodd" clip-rule="evenodd" d="M79.4106 92H66.0937V36H79.4106V92ZM61.3383 64.0682C61.3383 76.8152 50.9618 87.1303 38.1782 87.1303C25.3934 87.1303 15 76.7983 15 64.0682C15 51.3381 25.3764 41.005 38.1601 41.005C50.9448 41.005 61.3383 51.3201 61.3383 64.0682ZM45.1673 64.0682C45.1682 63.1527 44.9876 62.2461 44.6362 61.4002C44.2847 60.5542 43.7692 59.7857 43.1191 59.1386C42.4691 58.4914 41.6972 57.9784 40.8479 57.6287C39.9985 57.2791 39.0882 57.0998 38.1691 57.1011C37.2501 57.0998 36.3397 57.2791 35.4904 57.6287C34.641 57.9784 33.8692 58.4914 33.2191 59.1386C32.569 59.7857 32.0535 60.5542 31.7021 61.4002C31.3506 62.2461 31.1701 63.1527 31.1709 64.0682C31.1702 64.9835 31.3508 65.8899 31.7023 66.7357C32.0538 67.5814 32.5692 68.3498 33.2191 68.9968C33.869 69.6439 34.6407 70.1568 35.4899 70.5064C36.3391 70.856 37.2492 71.0354 38.1681 71.0342C39.0872 71.0357 39.9975 70.8565 40.8469 70.507C41.6964 70.1575 42.4683 69.6445 43.1184 68.9975C43.7685 68.3505 44.2842 67.582 44.6358 66.7362C44.9874 65.8903 45.168 64.9837 45.1673 64.0682ZM113.212 50.0681H104.362L99.1656 55.2371L93.9693 50.0671H85.1167V59.0271L90.2437 64.1272L85.1167 69.2282V78.0682H94.1067L99.1817 73.0192L104.256 78.0682H113.246V69.2282L108.119 64.1282L113.246 59.0281V50.0681H113.212Z" fill="#002F34"/>
</g>
</g>
<defs>
<clipPath id="clip0_394_1086">
<rect width="128" height="128" fill="white"/>
</clipPath>
</defs>
</svg>
