<svg width="62" height="35" viewBox="0 0 62 35" fill="none" xmlns="http://www.w3.org/2000/svg">
<path fill-rule="evenodd" clip-rule="evenodd" d="M40.323 35H32V0H40.323V35ZM29.0278 17.5426C29.0278 25.5095 22.5426 31.9564 14.5528 31.9564C6.5623 31.9564 0.0664062 25.4989 0.0664062 17.5426C0.0664062 9.58634 6.55165 3.12814 14.5414 3.12814C22.5319 3.12814 29.0278 9.57507 29.0278 17.5426ZM18.921 17.5426C18.9215 16.9704 18.8087 16.4038 18.589 15.8751C18.3694 15.3464 18.0472 14.8661 17.6409 14.4616C17.2346 14.0571 16.7522 13.7365 16.2213 13.518C15.6905 13.2994 15.1215 13.1874 14.5471 13.1882C13.9727 13.1874 13.4037 13.2994 12.8729 13.518C12.342 13.7365 11.8596 14.0571 11.4534 14.4616C11.047 14.8661 10.7249 15.3464 10.5052 15.8751C10.2855 16.4038 10.1727 16.9704 10.1732 17.5426C10.1728 18.1147 10.2857 18.6812 10.5053 19.2098C10.725 19.7384 11.0471 20.2186 11.4534 20.623C11.8595 21.0274 12.3418 21.348 12.8726 21.5665C13.4034 21.785 13.9722 21.8971 14.5465 21.8964C15.1209 21.8973 15.6898 21.7853 16.2207 21.5669C16.7516 21.3484 17.2341 21.0278 17.6404 20.6234C18.0467 20.219 18.369 19.7387 18.5888 19.2101C18.8085 18.6814 18.9214 18.1148 18.921 17.5426ZM61.4488 8.79255H55.9176L52.6699 12.0232L49.4222 8.79193H43.8894V14.392L47.0937 17.5795L43.8894 20.7676V26.2926H49.5081L52.68 23.137L55.8514 26.2926H61.4703V20.7676L58.2658 17.5801L61.4703 14.3926V8.79255H61.4488Z" fill="#002F34"/>
</svg>
