<svg width="128" height="128" viewBox="0 0 128 128" fill="none" xmlns="http://www.w3.org/2000/svg">
<g clip-path="url(#clip0_249_2963)">
<path fill-rule="evenodd" clip-rule="evenodd" d="M83.9251 100.483H66.5753V27.5234H83.9251V100.483ZM60.3796 64.092C60.3796 80.6995 46.8607 94.1385 30.2055 94.1385C13.5489 94.1385 0.0078125 80.6774 0.0078125 64.092C0.0078125 47.5067 13.5267 34.0442 30.1819 34.0442C46.8385 34.0442 60.3796 47.4832 60.3796 64.092ZM39.3113 64.092C39.3124 62.8993 39.0772 61.7181 38.6193 60.616C38.1614 59.5139 37.4898 58.5126 36.6428 57.6695C35.7959 56.8263 34.7903 56.1579 33.6837 55.7024C32.5771 55.2469 31.3911 55.0133 30.1937 55.015C28.9963 55.0133 27.8103 55.2469 26.7037 55.7024C25.5971 56.1579 24.5915 56.8263 23.7446 57.6695C22.8976 58.5126 22.226 59.5139 21.7681 60.616C21.3102 61.7181 21.075 62.8993 21.0761 64.092C21.0752 65.2845 21.3105 66.4655 21.7684 67.5674C22.2263 68.6692 22.8978 69.6703 23.7446 70.5133C24.5913 71.3563 25.5967 72.0246 26.7031 72.4801C27.8095 72.9356 28.9952 73.1693 30.1924 73.1677C31.3898 73.1696 32.5758 72.9362 33.6825 72.4809C34.7892 72.0255 35.7949 71.3572 36.6419 70.5142C37.4889 69.6712 38.1607 68.67 38.6188 67.568C39.0769 66.466 39.3122 65.2848 39.3113 64.092ZM127.963 45.852H116.433L109.663 52.5865L102.893 45.8507H91.3594V57.5243L98.039 64.1689L91.3594 70.8148V82.332H103.072L109.684 75.7539L116.295 82.332H128.008V70.8148L121.328 64.1702L128.008 57.5256V45.852H127.962H127.963Z" fill="#002F34"/>
</g>
<defs>
<clipPath id="clip0_249_2963">
<rect width="128" height="128" rx="4" fill="white"/>
</clipPath>
</defs>
</svg>
