<svg width="90" height="29" viewBox="0 0 90 29" fill="none" xmlns="http://www.w3.org/2000/svg">
<g clip-path="url(#clip0_397_1462)">
<path fill-rule="evenodd" clip-rule="evenodd" d="M71.46 3.56868C72.0455 3.20915 72.6918 2.96845 73.3636 2.85956L89.17 0.363281V8.93513C89.17 9.7222 88.8897 11.8003 87.419 13.7873C86.9398 14.3862 86.3425 14.8715 85.6672 15.2108C85.0078 15.5775 84.2856 15.8077 83.5413 15.8888L73.0812 16.9979C72.3949 17.0748 71.73 17.292 71.1244 17.6369C70.8275 17.8037 70.5465 17.9985 70.2841 18.2187H70.2641L70.0963 18.3694C70.0238 18.4317 69.934 18.52 69.8836 18.5694C69.8336 18.6188 69.8036 18.6499 69.7336 18.7252L69.7232 18.7364C69.6555 18.8091 69.5782 18.8922 69.5259 18.9564C69.4797 19.0131 69.4264 19.0808 69.3839 19.1349L69.3608 19.1643C69.3158 19.2214 69.2707 19.2811 69.2282 19.3409C69.2184 19.3525 69.2092 19.3646 69.2007 19.3772C69.1688 19.4214 69.1381 19.4668 69.1079 19.5118C69.1022 19.5203 69.0964 19.5288 69.0908 19.5371C69.084 19.5471 69.0773 19.557 69.0706 19.5669L69.0305 19.6266C69.0073 19.6622 68.987 19.6961 68.9656 19.732C68.9479 19.7616 68.9295 19.7925 68.908 19.8266C68.8604 19.902 68.8179 19.9798 68.7753 20.0578C68.7379 20.1279 68.7003 20.2007 68.6653 20.2734C68.6603 20.2863 68.6477 20.3098 68.6477 20.3098C68.6127 20.3798 68.5777 20.4578 68.5477 20.5253C68.5177 20.5929 68.4902 20.6604 68.4626 20.7279C68.4602 20.7339 68.4566 20.7401 68.453 20.7465C68.4456 20.7597 68.4376 20.7737 68.4376 20.7877L68.4226 20.8318V20.8501C68.3769 20.9525 68.3381 21.0816 68.3018 21.2023L68.2975 21.2163C68.287 21.2443 68.2792 21.2714 68.2709 21.3003L68.2703 21.3023C68.2649 21.3211 68.2593 21.3406 68.2525 21.3618C68.2376 21.4082 68.2245 21.4584 68.2116 21.5076L68.2049 21.5331C68.1968 21.5631 68.1902 21.5935 68.1849 21.6241C68.1698 21.6762 68.1572 21.7291 68.1474 21.7825C68.1455 21.7905 68.1433 21.7986 68.141 21.8068C68.1343 21.8309 68.1274 21.8561 68.1274 21.8812C68.1263 21.8864 68.1263 21.8917 68.1274 21.8968C68.1224 21.9268 68.1175 21.956 68.1125 21.9852C68.105 22.0292 68.0974 22.0733 68.0898 22.1202C68.086 22.1447 68.081 22.1689 68.0762 22.193C68.0655 22.2457 68.0548 22.2979 68.0548 22.3514V22.4449C68.0474 22.4939 68.0423 22.5434 68.0399 22.593C68.0385 22.612 68.0385 22.6311 68.0399 22.6501C68.0372 22.6708 68.0372 22.6918 68.0399 22.7125C68.0274 22.806 68.0274 22.8891 68.0274 22.9722L68.0048 9.74561C68.1529 7.97177 68.8139 6.28584 69.9009 4.90896C70.3463 4.3764 70.8731 3.92351 71.46 3.56868ZM76.2609 11.2444L77.3663 11.1067L77.3787 9.88584L76.2761 10.0287L76.343 4.90896L74.1218 5.23369L71.2473 10.4288L71.2149 11.8678L74.6949 11.4262L74.6769 12.6652L73.7814 12.7717L73.7613 14.0003L76.9465 13.6419L76.961 12.4028L76.2457 12.486L76.2609 11.2444ZM82.7306 12.9769L84.3719 12.7899L84.4389 9.0079L85.0092 8.93775V7.63897L81.4298 8.11436V9.41308L82.6802 9.25468V11.2028C82.6022 11.2812 82.5187 11.3532 82.4303 11.4184C82.3447 11.4852 82.2535 11.5435 82.1575 11.5924C82.0602 11.6451 81.958 11.6869 81.8523 11.7171C81.7391 11.7516 81.6238 11.7759 81.5071 11.7898H81.4243H81.3393H81.2592H81.1819C80.9423 11.7709 80.7131 11.6807 80.5211 11.5301C80.3229 11.3692 80.1648 11.1618 80.0585 10.9249C79.9232 10.6307 79.8313 10.3173 79.7857 9.99494C79.7215 9.59239 79.6932 9.1846 79.7008 8.77673V8.62345C79.6994 8.60266 79.6994 8.58188 79.7008 8.5611V8.49619V8.30396V8.21303V8.09095C79.6981 8.07286 79.6981 8.05449 79.7008 8.0364C79.6981 8.02004 79.6981 8.0034 79.7008 7.98704C79.6994 7.97233 79.6994 7.95762 79.7008 7.94291C79.6981 7.91785 79.6981 7.89265 79.7008 7.86758V7.77927C79.6994 7.77154 79.6994 7.7636 79.7008 7.75586C79.7036 7.73128 79.7084 7.70712 79.7133 7.68316C79.7208 7.64642 79.7284 7.61024 79.7284 7.57406V7.55065C79.7312 7.52449 79.7353 7.49845 79.7409 7.47277C79.7395 7.45544 79.7395 7.43811 79.7409 7.42077C79.7457 7.39164 79.7498 7.37272 79.7561 7.34351L79.7657 7.2987C79.7782 7.23897 79.7982 7.15322 79.8058 7.1247C79.8085 7.11483 79.812 7.1053 79.8154 7.09591C79.8217 7.07802 79.8286 7.06021 79.8286 7.04157C79.8313 7.02651 79.8355 7.01174 79.841 6.99738C79.8486 6.96665 79.8576 6.93627 79.8686 6.90651C79.9225 6.72733 79.9922 6.55347 80.0758 6.38699C80.2083 6.11681 80.3982 5.88143 80.6316 5.69866C80.8567 5.52804 81.1204 5.41984 81.3966 5.38435H81.4892H81.5768H81.6645C81.6922 5.38159 81.7198 5.38159 81.7474 5.38435C81.8945 5.38981 82.0395 5.4233 82.1748 5.48302C82.2998 5.54289 82.4137 5.62561 82.5104 5.72718C82.6098 5.84028 82.694 5.96698 82.7603 6.10383C82.8397 6.26319 82.9046 6.43022 82.953 6.60256L84.3892 6.20257C84.3712 5.90787 84.3118 5.61739 84.2138 5.34016C84.1213 5.07944 83.9811 4.83957 83.8009 4.63367C83.6131 4.42231 83.3852 4.25418 83.1304 4.14012C82.8294 4.01065 82.5083 3.9385 82.1824 3.9271H81.9877C81.92 3.92324 81.8523 3.92324 81.7847 3.9271C81.7412 3.92876 81.6984 3.93242 81.6535 3.93615C81.6273 3.93843 81.6003 3.94078 81.572 3.94271C81.4968 3.94789 81.4243 3.95831 81.3469 3.97129C80.8277 4.04145 80.3264 4.218 79.8734 4.49081C79.4378 4.75568 79.0587 5.10906 78.7576 5.52977C78.4338 5.99487 78.1921 6.51536 78.0423 7.06753C77.8669 7.71789 77.7778 8.38979 77.7772 9.06501C77.7647 9.63582 77.8124 10.2064 77.9194 10.7664C78.0043 11.2317 78.1611 11.6797 78.382 12.0938C78.5705 12.4517 78.837 12.7587 79.1602 12.9899C79.4854 13.215 79.861 13.3484 80.2511 13.377H80.3961H80.5411C80.5922 13.3796 80.6433 13.3796 80.6937 13.377C80.7455 13.3808 80.7973 13.3808 80.8491 13.377C81.0749 13.3536 81.2965 13.3013 81.5092 13.2211C81.6928 13.1585 81.8682 13.0711 82.0298 12.9613C82.1782 12.8561 82.3129 12.7312 82.4303 12.5899C82.5449 12.4595 82.6457 12.3167 82.7306 12.1639V12.9769ZM79.6256 8.27275C79.6249 8.2771 79.6249 8.28152 79.6256 8.28587V8.27275ZM79.6256 8.28587V8.36431C79.6242 8.35451 79.6242 8.34056 79.6249 8.32247C79.6256 8.3117 79.6256 8.29955 79.6256 8.28587ZM74.777 6.36877L74.7149 10.2158L72.5206 10.4963L74.777 6.36877ZM32.812 28.6452H26.9078L26.8978 24.2398L32.812 24.0528V28.6452ZM46.4594 28.6452H39.6244V23.8397L46.4594 23.6242V28.6452ZM46.4594 10.982L39.6244 11.7612V6.96624L46.4594 5.96877V10.982ZM15.5496 17.5252L18.9371 17.2161V21.4423L15.5496 21.6319V17.5252ZM63.9269 23.0735V28.6452H47.9704V23.5748L63.9269 23.0735ZM39.6244 15.3744L44.1052 14.977V20.0058L39.6244 20.2656V15.3744ZM26.1573 28.6452H22.0894V9.53515L26.1573 8.93775V28.6452ZM56.4765 15.003C57.8125 13.3639 58.3779 11.5976 57.83 10.4261C57.4898 9.67801 56.7017 9.3066 55.7385 9.36115V4.044C58.1152 3.69331 60.2868 4.29078 61.7678 5.74278C63.124 7.07347 63.8159 8.97752 63.6442 10.9066C63.3365 14.6003 61.6102 17.559 56.8018 22.4345L48.9336 22.6942C48.9336 22.6942 54.415 17.5278 56.4765 15.003ZM54.8279 9.58452C53.8597 10.0054 52.8965 10.7794 53.1216 14.0419L48.1806 14.4991C47.9154 8.72218 50.192 5.1973 54.8279 4.15828V9.58452ZM20.7109 28.6452H15.5496V24.5982L20.7109 24.4346V28.6452ZM14.8742 28.6452H11.2966V11.1015L14.8742 10.582V28.6452ZM20.7109 13.9328L15.5496 14.5198V10.4832L20.7109 9.73V13.9328ZM7.13612 28.6452H3.74118V16.4238L7.13612 16.0601V28.6452ZM10.0457 15.1458L0.789062 16.203V12.6393L10.0457 11.2833V15.1458ZM38.7488 28.6452H34.063V7.76629L38.7488 7.08569V28.6452Z" fill="#232628"/>
</g>
<defs>
<clipPath id="clip0_397_1462">
<rect width="88.381" height="29" fill="white" transform="translate(0.789062)"/>
</clipPath>
</defs>
</svg>
