<svg width="109" height="33" viewBox="0 0 109 33" fill="none" xmlns="http://www.w3.org/2000/svg">
<g clip-path="url(#clip0_397_1450)">
<path d="M85.8757 1.13672H97.6736C100.52 1.13706 103.249 2.26809 105.262 4.28114C107.274 6.29419 108.405 9.02447 108.405 11.8713V21.1232C108.405 22.5328 108.128 23.9287 107.589 25.231C107.049 26.5334 106.259 27.7167 105.262 28.7134C104.266 29.7101 103.082 30.5007 101.781 31.04C100.479 31.5793 99.0825 31.8569 97.6736 31.8567H85.8757C84.4661 31.8568 83.0707 31.5792 81.7687 31.0399C80.4667 30.5006 79.2836 29.71 78.2871 28.7133C77.2907 27.7166 76.5003 26.5333 75.9611 25.231C75.4219 23.9286 75.1444 22.5328 75.1445 21.1232V11.8713C75.1445 5.94169 79.9472 1.13672 85.8757 1.13672Z" fill="black"/>
<path d="M88.6883 18.5089V17.9875H85.5498V15.6667H91.6711V18.4273C91.6711 22.7724 89.597 25.2968 85.6711 25.2968C81.625 25.2968 79.2734 22.1077 79.2734 16.4847C79.2734 11.0016 81.8398 7.64453 86.5452 7.64453C88.3237 7.64453 89.8563 8.11569 90.6942 8.72882V11.118C89.4909 10.3718 88.1048 9.97177 86.6883 9.962C83.6018 9.962 82.294 12.0579 82.294 16.4847C82.294 20.7783 83.3769 22.9749 85.7275 22.9749C87.9734 22.9861 88.6883 21.2482 88.6883 18.5089ZM104.368 18.8357C104.368 23.0073 102.12 25.3069 98.8871 25.3069C95.6542 25.3069 93.405 23.0073 93.405 18.867C93.405 14.6954 95.6542 12.3959 98.8871 12.3959C102.12 12.3959 104.368 14.6853 104.368 18.8357ZM101.333 18.8357C101.333 15.9733 100.516 14.7166 98.8904 14.7166C97.2652 14.7166 96.4483 15.9733 96.4483 18.867C96.4483 21.7294 97.266 22.9872 98.8904 22.9872C100.515 22.9872 101.333 21.7194 101.333 18.8357Z" fill="white"/>
<path d="M9.039 10.2154H7.6965C5.25767 10.2154 3.97337 11.4518 3.97337 13.2815C3.97337 15.3572 4.86164 16.3184 6.69188 17.5549L8.19433 18.5676L3.85032 25.0578H0.617188L4.51148 19.2513C2.26284 17.6467 1.00539 16.0935 1.00539 13.4459C1.00539 10.1337 3.30214 7.89453 7.66518 7.89453H12.0081V25.0589H9.02891V10.2154H9.039ZM24.2883 12.638V25.0589H21.355V19.8758H17.4294V25.0589H14.4961V12.638H17.4294V17.5549H21.355V12.638H24.2883ZM37.5442 27.8912H34.8257V25.0489H28.233V27.8912H25.5144V22.7337H26.4341C27.4667 20.6579 27.6714 16.7324 27.6714 13.6966V12.6336H36.2353V22.7337H37.5442V27.8912ZM33.302 14.9589H30.1952V15.327C30.1952 17.4732 29.9715 20.8571 29.1526 22.7382H33.302V14.9589ZM44.1357 25.2939C40.3858 25.2939 38.259 23.198 38.259 18.8742C38.259 15.1222 39.9662 12.384 43.5439 12.384C46.4772 12.384 48.3779 14.0188 48.3779 18.3338V19.8869H41.2952C41.4172 21.9627 42.235 22.9743 44.3818 22.9743C45.8127 22.9743 47.3453 22.4326 48.2549 21.8094V24.2107C47.3968 24.8038 46.0162 25.2939 44.1357 25.2939ZM41.2952 17.7183H45.3932V17.4743C45.3932 15.9211 44.9457 14.7149 43.4913 14.7149C42.0918 14.7026 41.3769 15.7455 41.2952 17.7183ZM53.2936 18.9559V25.0589H50.3502V12.638H53.2936V18.3628L57.4486 12.638H60.4132L56.2638 18.3628L60.9748 25.0489H57.6376L53.2936 18.9559ZM60.8059 18.8541C60.8059 15.0707 62.7581 12.3829 66.5114 12.3829C67.9657 12.3829 69.0565 12.6279 69.6695 12.9749V15.4702C69.0766 15.102 67.9623 14.7026 66.8279 14.7026C64.906 14.7026 63.8432 16.0834 63.8432 18.7824C63.8432 21.3483 64.7125 22.9832 66.8078 22.9832C68.044 22.9832 68.9335 22.6665 69.6695 22.1451V24.5375C68.9536 25.0589 67.9915 25.304 66.6333 25.304C62.7066 25.2939 60.8048 23.0044 60.8048 18.8541H60.8059Z" fill="black"/>
</g>
<defs>
<clipPath id="clip0_397_1450">
<rect width="107.789" height="32" fill="white" transform="translate(0.617188 0.5)"/>
</clipPath>
</defs>
</svg>
